SplineFontDB: 3.0
FontName: SystematicTTBRK
FullName: Æ Systematic TT BRK
FamilyName:  Systematic TT BRK
Weight: Book
Copyright: Copyright (c) NIGMA FONTS, 2001. All rights reserved.  [please read the included text file for more info]
Version: 2.17
ItalicAngle: 0
UnderlinePosition: -75
UnderlineWidth: 50
Ascent: 800
Descent: 200
sfntRevision: 0x00010000
LayerCount: 2
Layer: 0 1 "Warstwa t+AUIA-a"  1
Layer: 1 1 "Plan pierwszy"  0
NeedsXUIDChange: 1
XUID: [1021 714 2129124277 15525588]
FSType: 0
OS2Version: 2
OS2_WeightWidthSlopeOnly: 0
OS2_UseTypoMetrics: 1
CreationTime: 1008169021
ModificationTime: 1308494985
PfmFamily: 81
TTFWeight: 400
TTFWidth: 5
LineGap: 9
VLineGap: 0
Panose: 0 0 0 0 0 0 0 0 0 0
OS2TypoAscent: -125
OS2TypoAOffset: 1
OS2TypoDescent: 50
OS2TypoDOffset: 1
OS2TypoLinegap: 30
OS2WinAscent: 0
OS2WinAOffset: 1
OS2WinDescent: 0
OS2WinDOffset: 1
HheadAscent: 0
HheadAOffset: 1
HheadDescent: 0
HheadDOffset: 1
OS2SubXSize: 100
OS2SubYSize: 100
OS2SubXOff: 0
OS2SubYOff: 140
OS2SupXSize: 100
OS2SupYSize: 100
OS2SupXOff: 0
OS2SupYOff: 140
OS2StrikeYSize: 50
OS2StrikeYPos: 250
OS2Vendor: 'ERUC'
OS2CodePages: 20000111.41000000
OS2UnicodeRanges: 80000003.00000000.00000000.00000000
DEI: 91125
ShortTable: maxp 16
  1
  0
  227
  486
  5
  0
  0
  1
  0
  0
  0
  0
  0
  0
  0
  0
EndShort
LangName: 1033 "Copyright +AKkA +AMYA-NIGMA FONTS, 2001. All rights reserved.  [please read the included text file for more info]" "+AMYA Systematic TT BRK" "Regular" "AENIGMA FONTS: AE Systematic TT BRK" "" "Version 2.17" "" "" "+AMYA-NIGMA FONTS" "+AMYA-NIGMA FONTS - Brian Kent" "" "" "http://www.aenigmafonts.com/" 
Encoding: UnicodeBmp
UnicodeInterp: none
NameList: Adobe Glyph List
DisplaySize: -24
AntiAlias: 1
FitToEm: 1
WinInfo: 0 40 15
BeginChars: 65537 228

StartChar: .notdef
Encoding: 65536 -1 0
Width: 736
Flags: W
LayerCount: 2
Fore
SplineSet
169 8 m 1,0,1
 167 10 167 10 167 16 c 1,2,-1
 153 16 l 1,3,4
 152 27 152 27 146.5 38.5 c 128,-1,5
 141 50 141 50 128 50 c 2,6,-1
 126 50 l 1,7,8
 106 36 106 36 90.5 29 c 128,-1,9
 75 22 75 22 51 22 c 1,10,11
 51 32 51 32 56.5 39 c 128,-1,12
 62 46 62 46 64 56 c 1,13,14
 60 56 60 56 47.5 56.5 c 128,-1,15
 35 57 35 57 31 58 c 0,16,17
 29 58 29 58 25.5 59 c 128,-1,18
 22 60 22 60 20 60 c 1,19,-1
 20 64 l 2,20,21
 20 72 20 72 24 77.5 c 128,-1,22
 28 83 28 83 31 91 c 0,23,24
 31 92 31 92 31.5 96 c 128,-1,25
 32 100 32 100 33 101 c 0,26,27
 33 102 33 102 35.5 103.5 c 128,-1,28
 38 105 38 105 39 106 c 0,29,30
 47 112 47 112 50.5 117.5 c 128,-1,31
 54 123 54 123 54 133 c 0,32,33
 54 142 54 142 41.5 150 c 128,-1,34
 29 158 29 158 22 166 c 0,35,36
 13 177 13 177 11.5 194.5 c 128,-1,37
 10 212 10 212 10 226 c 2,38,-1
 10 239 l 2,39,40
 10 245 10 245 16 250 c 0,41,42
 17 251 17 251 22 255 c 128,-1,43
 27 259 27 259 32.5 263.5 c 128,-1,44
 38 268 38 268 43 272 c 128,-1,45
 48 276 48 276 49 277 c 0,46,47
 52 280 52 280 52 284 c 0,48,49
 52 309 52 309 42.5 332 c 128,-1,50
 33 355 33 355 33 380 c 0,51,52
 33 385 33 385 33.5 389 c 128,-1,53
 34 393 34 393 37 397 c 1,54,-1
 37 435 l 1,55,56
 36 447 36 447 35 465.5 c 128,-1,57
 34 484 34 484 32.5 501 c 128,-1,58
 31 518 31 518 29 544 c 1,59,-1
 18 557 l 1,60,-1
 18 559 l 2,61,62
 18 569 18 569 22 577.5 c 128,-1,63
 26 586 26 586 31.5 594.5 c 128,-1,64
 37 603 37 603 41 612.5 c 128,-1,65
 45 622 45 622 45 633 c 256,66,67
 45 644 45 644 44 644.5 c 128,-1,68
 43 645 43 645 43 646 c 0,69,70
 41 648 41 648 37 654 c 128,-1,71
 33 660 33 660 31 662 c 1,72,-1
 31 665 l 2,73,74
 31 669 31 669 36.5 678 c 128,-1,75
 42 687 42 687 48.5 696 c 128,-1,76
 55 705 55 705 61 711.5 c 128,-1,77
 67 718 67 718 68 718 c 2,78,-1
 93 718 l 2,79,80
 95 718 95 718 100 708.5 c 128,-1,81
 105 699 105 699 120 697 c 1,82,-1
 161 697 l 2,83,84
 164 697 164 697 172.5 697.5 c 128,-1,85
 181 698 181 698 191 699 c 128,-1,86
 201 700 201 700 209.5 700.5 c 128,-1,87
 218 701 218 701 221 701 c 0,88,89
 238 705 238 705 252.5 712.5 c 128,-1,90
 267 720 267 720 281 730 c 0,91,92
 282 730 282 730 283.5 730.5 c 128,-1,93
 285 731 285 731 286 731 c 0,94,95
 288 731 288 731 294.5 729.5 c 128,-1,96
 301 728 301 728 308 726 c 128,-1,97
 315 724 315 724 320.5 721.5 c 128,-1,98
 326 719 326 719 326 718 c 2,99,-1
 326 687 l 1,100,101
 336 687 336 687 346 691.5 c 128,-1,102
 356 696 356 696 366 701.5 c 128,-1,103
 376 707 376 707 386 712.5 c 128,-1,104
 396 718 396 718 407 720 c 1,105,-1
 428 720 l 2,106,107
 453 720 453 720 476.5 716 c 128,-1,108
 500 712 500 712 525 712 c 2,109,-1
 538 712 l 1,110,111
 548 718 548 718 558 722 c 128,-1,112
 568 726 568 726 580 726 c 0,113,114
 596 726 596 726 611.5 721.5 c 128,-1,115
 627 717 627 717 642 711 c 128,-1,116
 657 705 657 705 672.5 699.5 c 128,-1,117
 688 694 688 694 705 693 c 1,118,-1
 705 678 l 2,119,120
 705 652 705 652 698.5 628.5 c 128,-1,121
 692 605 692 605 692 580 c 2,122,-1
 692 569 l 2,123,124
 692 559 692 559 694.5 547.5 c 128,-1,125
 697 536 697 536 705 534 c 1,126,127
 705 532 705 532 705.5 525 c 128,-1,128
 706 518 706 518 706 516 c 0,129,130
 706 513 706 513 705.5 506.5 c 128,-1,131
 705 500 705 500 705 499 c 0,132,133
 705 493 705 493 703.5 479.5 c 128,-1,134
 702 466 702 466 700.5 450 c 128,-1,135
 699 434 699 434 697.5 420.5 c 128,-1,136
 696 407 696 407 695 401 c 1,137,138
 691 393 691 393 686.5 386 c 128,-1,139
 682 379 682 379 682 370 c 0,140,141
 682 359 682 359 688.5 349.5 c 128,-1,142
 695 340 695 340 697 329 c 0,143,144
 697 327 697 327 698 319 c 128,-1,145
 699 311 699 311 700 302 c 128,-1,146
 701 293 701 293 702 285 c 128,-1,147
 703 277 703 277 703 275 c 0,148,149
 705 266 705 266 708.5 256 c 128,-1,150
 712 246 712 246 720 240 c 1,151,152
 722 227 722 227 724 215.5 c 128,-1,153
 726 204 726 204 726 192 c 2,154,-1
 726 184 l 1,155,-1
 691 145 l 1,156,-1
 691 141 l 2,157,158
 691 116 691 116 697 93 c 128,-1,159
 703 70 703 70 703 46 c 2,160,-1
 703 35 l 1,161,162
 694 24 694 24 673.5 16 c 128,-1,163
 653 8 653 8 638 8 c 0,164,165
 629 8 629 8 624.5 16.5 c 128,-1,166
 620 25 620 25 614 31 c 0,167,168
 609 36 609 36 598.5 39 c 128,-1,169
 588 42 588 42 581 42 c 0,170,171
 580 42 580 42 578 41.5 c 128,-1,172
 576 41 576 41 575 41 c 0,173,174
 574 38 574 38 568.5 32.5 c 128,-1,175
 563 27 563 27 556 22 c 128,-1,176
 549 17 549 17 542 13.5 c 128,-1,177
 535 10 535 10 532 10 c 0,178,179
 525 10 525 10 513 11 c 128,-1,180
 501 12 501 12 496 19 c 0,181,182
 489 30 489 30 476.5 30.5 c 128,-1,183
 464 31 464 31 452 31 c 0,184,185
 431 31 431 31 412 26 c 128,-1,186
 393 21 393 21 374 15.5 c 128,-1,187
 355 10 355 10 336.5 5 c 128,-1,188
 318 0 318 0 298 0 c 2,189,-1
 287 0 l 1,190,191
 282 7 282 7 275 10.5 c 128,-1,192
 268 14 268 14 260 19 c 0,193,194
 258 20 258 20 251 25 c 1,195,196
 251 41 251 41 248.5 41.5 c 128,-1,197
 246 42 246 42 244 41 c 0,198,199
 236 39 236 39 222.5 35.5 c 128,-1,200
 209 32 209 32 202 27 c 1,201,202
 197 22 197 22 188.5 15 c 128,-1,203
 180 8 180 8 172 8 c 2,204,-1
 169 8 l 1,0,1
469 139 m 1,205,206
 480 139 480 139 486 133 c 128,-1,207
 492 127 492 127 502 124 c 0,208,209
 507 123 507 123 511 122.5 c 128,-1,210
 515 122 515 122 518 122 c 2,211,-1
 558 122 l 2,212,213
 562 122 562 122 573.5 123 c 128,-1,214
 585 124 585 124 597.5 125 c 128,-1,215
 610 126 610 126 621 127 c 128,-1,216
 632 128 632 128 637 128 c 1,217,218
 637 197 637 197 635 198.5 c 128,-1,219
 633 200 633 200 631 201 c 0,220,221
 622 205 622 205 611 205 c 0,222,223
 608 205 608 205 605.5 201.5 c 128,-1,224
 603 198 603 198 600 197 c 0,225,226
 599 196 599 196 594 196 c 2,227,-1
 588 196 l 2,228,229
 578 196 578 196 570.5 199 c 128,-1,230
 563 202 563 202 552 203 c 0,231,232
 549 203 549 203 537 203.5 c 128,-1,233
 525 204 525 204 511 205 c 128,-1,234
 497 206 497 206 484.5 206.5 c 128,-1,235
 472 207 472 207 469 207 c 0,236,237
 467 207 467 207 462 208 c 128,-1,238
 457 209 457 209 455 209 c 1,239,240
 455 210 455 210 452 214.5 c 128,-1,241
 449 219 449 219 446 224.5 c 128,-1,242
 443 230 443 230 438 240 c 0,243,244
 438 241 438 241 434.5 244 c 128,-1,245
 431 247 431 247 430 248 c 0,246,247
 426 253 426 253 427 260.5 c 128,-1,248
 428 268 428 268 424 273 c 0,249,250
 419 279 419 279 413 279 c 1,251,-1
 413 285 l 2,252,253
 413 292 413 292 422 300 c 1,254,255
 429 300 429 300 448 300.5 c 128,-1,256
 467 301 467 301 488 301 c 256,257,258
 509 301 509 301 527.5 301.5 c 128,-1,259
 546 302 546 302 554 302 c 0,260,261
 560 302 560 302 570.5 302.5 c 128,-1,262
 581 303 581 303 592 304.5 c 128,-1,263
 603 306 603 306 613 308.5 c 128,-1,264
 623 311 623 311 629 315 c 1,265,266
 628 322 628 322 627.5 327 c 128,-1,267
 627 332 627 332 627 336 c 2,268,-1
 627 364 l 2,269,270
 627 365 627 365 628 369 c 128,-1,271
 629 373 629 373 629 374 c 128,-1,272
 629 375 629 375 628 380 c 128,-1,273
 627 385 627 385 627 387 c 0,274,275
 626 389 626 389 624.5 396.5 c 128,-1,276
 623 404 623 404 622 406 c 1,277,-1
 591 406 l 2,278,279
 585 406 585 406 577 406.5 c 128,-1,280
 569 407 569 407 561 406.5 c 128,-1,281
 553 406 553 406 545.5 404 c 128,-1,282
 538 402 538 402 533 396 c 1,283,-1
 465 396 l 1,284,285
 460 390 460 390 455 386.5 c 128,-1,286
 450 383 450 383 442 383 c 0,287,288
 437 383 437 383 435.5 384.5 c 128,-1,289
 434 386 434 386 432 391 c 128,-1,290
 430 396 430 396 424 399.5 c 128,-1,291
 418 403 418 403 416 408 c 2,292,-1
 407 435 l 1,293,294
 401 438 401 438 399.5 444 c 128,-1,295
 398 450 398 450 397.5 456.5 c 128,-1,296
 397 463 397 463 395 469 c 128,-1,297
 393 475 393 475 387 478 c 1,298,-1
 387 501 l 1,299,-1
 393 507 l 1,300,301
 413 524 413 524 434.5 528 c 128,-1,302
 456 532 456 532 483 532 c 0,303,304
 489 532 489 532 492.5 529 c 128,-1,305
 496 526 496 526 499.5 522 c 128,-1,306
 503 518 503 518 506.5 514 c 128,-1,307
 510 510 510 510 515 509 c 0,308,309
 532 508 532 508 545 507.5 c 128,-1,310
 558 507 558 507 573 507 c 2,311,-1
 581 507 l 1,312,313
 583 511 583 511 590 513.5 c 128,-1,314
 597 516 597 516 604 516.5 c 128,-1,315
 611 517 611 517 616.5 517.5 c 128,-1,316
 622 518 622 518 622 519 c 2,317,-1
 622 557 l 1,318,319
 618 563 618 563 616 571 c 1,320,321
 616 577 616 577 614 593 c 128,-1,322
 612 609 612 609 612 615 c 0,323,324
 612 617 612 617 611 625 c 128,-1,325
 610 633 610 633 605 633 c 0,326,327
 598 633 598 633 592 628 c 128,-1,328
 586 623 586 623 579 621 c 0,329,330
 547 608 547 608 511 608 c 0,331,332
 493 608 493 608 475.5 609.5 c 128,-1,333
 458 611 458 611 440 611 c 0,334,335
 414 611 414 611 390 606.5 c 128,-1,336
 366 602 366 602 340 602 c 2,337,-1
 312 602 l 1,338,339
 303 604 303 604 299 608.5 c 128,-1,340
 295 613 295 613 287 621 c 1,341,-1
 284 621 l 2,342,343
 273 621 273 621 264 607.5 c 128,-1,344
 255 594 255 594 248 586 c 0,345,346
 247 584 247 584 244 579.5 c 128,-1,347
 241 575 241 575 240 573 c 0,348,349
 239 572 239 572 236.5 566.5 c 128,-1,350
 234 561 234 561 231 554.5 c 128,-1,351
 228 548 228 548 225 542.5 c 128,-1,352
 222 537 222 537 221 536 c 0,353,354
 216 528 216 528 213 526 c 0,355,356
 208 521 208 521 204 520 c 128,-1,357
 200 519 200 519 194 517 c 0,358,359
 189 515 189 515 187 510 c 128,-1,360
 185 505 185 505 180 503 c 1,361,362
 179 501 179 501 178.5 493.5 c 128,-1,363
 178 486 178 486 178 484 c 2,364,-1
 178 482 l 2,365,366
 178 477 178 477 181 473 c 128,-1,367
 184 469 184 469 184 464 c 0,368,369
 184 461 184 461 183 455.5 c 128,-1,370
 182 450 182 450 181 444 c 128,-1,371
 180 438 180 438 178.5 433.5 c 128,-1,372
 177 429 177 429 176 428 c 0,373,374
 175 425 175 425 175.5 414 c 128,-1,375
 176 403 176 403 178 399 c 0,376,377
 181 387 181 387 186.5 380.5 c 128,-1,378
 192 374 192 374 192 362 c 0,379,380
 192 345 192 345 188 325 c 128,-1,381
 184 305 184 305 176 290 c 0,382,383
 174 288 174 288 170.5 279.5 c 128,-1,384
 167 271 167 271 165 269 c 1,385,386
 167 267 167 267 165 265 c 128,-1,387
 163 263 163 263 161 263 c 1,388,389
 149 250 149 250 147 233.5 c 128,-1,390
 145 217 145 217 142 201 c 1,391,392
 142 195 142 195 140 195 c 1,393,-1
 122 174 l 1,394,395
 111 172 111 172 107 163.5 c 128,-1,396
 103 155 103 155 103 146 c 0,397,398
 103 138 103 138 105 139 c 128,-1,399
 107 140 107 140 113 137 c 0,400,401
 116 135 116 135 116 134 c 2,402,-1
 116 132 l 2,403,404
 116 130 116 130 124 130 c 0,405,406
 130 130 130 130 133 134.5 c 128,-1,407
 136 139 136 139 141 139 c 2,408,-1
 142 139 l 1,409,410
 144 138 144 138 149 135.5 c 128,-1,411
 154 133 154 133 155 132 c 0,412,413
 156 132 156 132 161 130 c 1,414,-1
 200 130 l 1,415,416
 202 132 202 132 206 137 c 128,-1,417
 210 142 210 142 215 143 c 1,418,-1
 215 195 l 2,419,420
 215 196 215 196 216.5 198.5 c 128,-1,421
 218 201 218 201 219 203 c 0,422,423
 221 205 221 205 228 211 c 128,-1,424
 235 217 235 217 237 219 c 1,425,-1
 237 242 l 1,426,427
 242 246 242 246 243.5 254 c 128,-1,428
 245 262 245 262 246 267 c 1,429,430
 248 271 248 271 255.5 273 c 128,-1,431
 263 275 263 275 267 275 c 2,432,-1
 313 275 l 1,433,434
 313 273 313 273 311 269 c 128,-1,435
 309 265 309 265 310 263 c 0,436,437
 310 262 310 262 318 259 c 1,438,439
 320 257 320 257 324.5 255 c 128,-1,440
 329 253 329 253 329 252 c 2,441,-1
 339 149 l 1,442,443
 355 147 355 147 372 143 c 1,444,445
 376 141 376 141 377 138 c 128,-1,446
 378 135 378 135 379 132.5 c 128,-1,447
 380 130 380 130 383 128 c 128,-1,448
 386 126 386 126 395 126 c 2,449,-1
 403 126 l 1,450,-1
 463 139 l 1,451,-1
 469 139 l 1,452,-1
 469 139 l 1,205,206
268 382 m 0,453,454
 268 383 268 383 268.5 385.5 c 128,-1,455
 269 388 269 388 269 389 c 0,456,457
 271 390 271 390 275 391.5 c 128,-1,458
 279 393 279 393 279 397 c 256,459,460
 279 401 279 401 279.5 412 c 128,-1,461
 280 423 280 423 281 426 c 0,462,463
 281 428 281 428 283 432.5 c 128,-1,464
 285 437 285 437 285 439 c 2,465,-1
 285 444 l 2,466,467
 285 452 285 452 282 459 c 128,-1,468
 279 466 279 466 279 474 c 1,469,-1
 296 474 l 1,470,471
 301 466 301 466 307 466 c 1,472,-1
 307 449 l 2,473,474
 307 445 307 445 314 446 c 128,-1,475
 321 447 321 447 320 441 c 0,476,477
 320 436 320 436 321 423 c 128,-1,478
 322 410 322 410 322 399 c 2,479,-1
 322 375 l 1,480,481
 318 369 318 369 307 360.5 c 128,-1,482
 296 352 296 352 287 352 c 0,483,484
 279 352 279 352 273.5 363.5 c 128,-1,485
 268 375 268 375 268 382 c 0,453,454
EndSplineSet
EndChar

StartChar: exclam
Encoding: 33 33 2
Width: 375
Flags: W
LayerCount: 2
Fore
SplineSet
150 675 m 1,0,-1
 300 675 l 1,1,-1
 300 600 l 1,2,-1
 375 600 l 1,3,-1
 375 375 l 1,4,-1
 300 375 l 1,5,-1
 300 225 l 1,6,-1
 150 225 l 1,7,-1
 150 375 l 1,8,-1
 75 375 l 1,9,-1
 75 600 l 1,10,-1
 150 600 l 1,11,-1
 150 675 l 1,0,-1
300 0 m 1,12,-1
 150 0 l 1,13,-1
 150 150 l 1,14,-1
 300 150 l 1,15,-1
 300 0 l 1,12,-1
EndSplineSet
EndChar

StartChar: quotedbl
Encoding: 34 34 3
Width: 300
Flags: W
LayerCount: 2
Fore
SplineSet
75 675 m 1,0,-1
 150 675 l 1,1,-1
 150 450 l 1,2,-1
 75 450 l 1,3,-1
 75 675 l 1,0,-1
225 675 m 1,4,-1
 300 675 l 1,5,-1
 300 450 l 1,6,-1
 225 450 l 1,7,-1
 225 675 l 1,4,-1
EndSplineSet
EndChar

StartChar: numbersign
Encoding: 35 35 4
Width: 675
Flags: W
LayerCount: 2
Fore
SplineSet
300 0 m 1,0,-1
 225 0 l 1,1,-1
 225 75 l 1,2,-1
 150 75 l 1,3,-1
 150 150 l 1,4,-1
 75 150 l 1,5,-1
 75 225 l 1,6,-1
 150 225 l 1,7,-1
 150 450 l 1,8,-1
 75 450 l 1,9,-1
 75 525 l 1,10,-1
 150 525 l 1,11,-1
 150 600 l 1,12,-1
 225 600 l 1,13,-1
 225 675 l 1,14,-1
 300 675 l 1,15,-1
 300 525 l 1,16,-1
 450 525 l 1,17,-1
 450 675 l 1,18,-1
 525 675 l 1,19,-1
 525 600 l 1,20,-1
 600 600 l 1,21,-1
 600 525 l 1,22,-1
 675 525 l 1,23,-1
 675 450 l 1,24,-1
 600 450 l 1,25,-1
 600 225 l 1,26,-1
 675 225 l 1,27,-1
 675 150 l 1,28,-1
 600 150 l 1,29,-1
 600 75 l 1,30,-1
 525 75 l 1,31,-1
 525 0 l 1,32,-1
 450 0 l 1,33,-1
 450 150 l 1,34,-1
 300 150 l 1,35,-1
 300 0 l 1,0,-1
300 225 m 1,36,-1
 450 225 l 1,37,-1
 450 450 l 1,38,-1
 300 450 l 1,39,-1
 300 225 l 1,36,-1
EndSplineSet
EndChar

StartChar: dollar
Encoding: 36 36 5
Width: 525
Flags: W
LayerCount: 2
Fore
SplineSet
225 0 m 1,0,-1
 75 0 l 1,1,-1
 75 75 l 1,2,-1
 225 75 l 1,3,-1
 225 300 l 1,4,-1
 150 300 l 1,5,-1
 150 375 l 1,6,-1
 75 375 l 1,7,-1
 75 600 l 1,8,-1
 150 600 l 1,9,-1
 150 750 l 1,10,-1
 225 750 l 1,11,-1
 225 675 l 1,12,-1
 300 675 l 1,13,-1
 300 750 l 1,14,-1
 375 750 l 1,15,-1
 375 675 l 1,16,-1
 525 675 l 1,17,-1
 525 600 l 1,18,-1
 375 600 l 1,19,-1
 375 375 l 1,20,-1
 450 375 l 1,21,-1
 450 300 l 1,22,-1
 525 300 l 1,23,-1
 525 75 l 1,24,-1
 450 75 l 1,25,-1
 450 -74 l 1,26,-1
 375 -74 l 1,27,-1
 375 0 l 1,28,-1
 300 0 l 1,29,-1
 300 -74 l 1,30,-1
 225 -74 l 1,31,-1
 225 0 l 1,0,-1
300 600 m 1,32,-1
 225 600 l 1,33,-1
 225 375 l 1,34,-1
 300 375 l 1,35,-1
 300 600 l 1,32,-1
300 300 m 1,36,-1
 300 75 l 1,37,-1
 375 75 l 1,38,-1
 375 300 l 1,39,-1
 300 300 l 1,36,-1
EndSplineSet
EndChar

StartChar: percent
Encoding: 37 37 6
Width: 525
Flags: W
LayerCount: 2
Fore
SplineSet
225 0 m 1,0,-1
 150 0 l 1,1,-1
 150 225 l 1,2,-1
 225 225 l 1,3,-1
 225 375 l 1,4,-1
 300 375 l 1,5,-1
 300 450 l 1,6,-1
 75 450 l 1,7,-1
 75 675 l 1,8,-1
 300 675 l 1,9,-1
 300 525 l 1,10,-1
 375 525 l 1,11,-1
 375 675 l 1,12,-1
 450 675 l 1,13,-1
 450 450 l 1,14,-1
 375 450 l 1,15,-1
 375 300 l 1,16,-1
 300 300 l 1,17,-1
 300 225 l 1,18,-1
 525 225 l 1,19,-1
 525 0 l 1,20,-1
 300 0 l 1,21,-1
 300 150 l 1,22,-1
 225 150 l 1,23,-1
 225 0 l 1,0,-1
375 75 m 1,24,-1
 450 75 l 1,25,-1
 450 150 l 1,26,-1
 375 150 l 1,27,-1
 375 75 l 1,24,-1
150 525 m 1,28,-1
 225 525 l 1,29,-1
 225 600 l 1,30,-1
 150 600 l 1,31,-1
 150 525 l 1,28,-1
EndSplineSet
EndChar

StartChar: ampersand
Encoding: 38 38 7
Width: 600
Flags: W
LayerCount: 2
Fore
SplineSet
225 75 m 1,0,-1
 375 75 l 1,1,-1
 375 0 l 1,2,-1
 150 0 l 1,3,-1
 150 75 l 1,4,-1
 75 75 l 1,5,-1
 75 300 l 1,6,-1
 150 300 l 1,7,-1
 150 375 l 1,8,-1
 75 375 l 1,9,-1
 75 600 l 1,10,-1
 150 600 l 1,11,-1
 150 675 l 1,12,-1
 450 675 l 1,13,-1
 450 600 l 1,14,-1
 525 600 l 1,15,-1
 525 375 l 1,16,-1
 450 375 l 1,17,-1
 450 300 l 1,18,-1
 600 300 l 1,19,-1
 600 225 l 1,20,-1
 525 225 l 1,21,-1
 525 75 l 1,22,-1
 600 75 l 1,23,-1
 600 0 l 1,24,-1
 525 0 l 1,25,-1
 525 75 l 1,26,-1
 375 75 l 1,27,-1
 375 300 l 1,28,-1
 225 300 l 1,29,-1
 225 75 l 1,0,-1
225 375 m 1,30,-1
 375 375 l 1,31,-1
 375 600 l 1,32,-1
 225 600 l 1,33,-1
 225 375 l 1,30,-1
EndSplineSet
EndChar

StartChar: quotesingle
Encoding: 39 39 8
Width: 150
Flags: W
LayerCount: 2
Fore
SplineSet
75 675 m 1,0,-1
 150 675 l 1,1,-1
 150 450 l 1,2,-1
 75 450 l 1,3,-1
 75 675 l 1,0,-1
EndSplineSet
EndChar

StartChar: parenleft
Encoding: 40 40 9
Width: 300
Flags: W
LayerCount: 2
Fore
SplineSet
150 225 m 1,0,-1
 75 225 l 1,1,-1
 75 450 l 1,2,-1
 150 450 l 1,3,-1
 150 600 l 1,4,-1
 225 600 l 1,5,-1
 225 675 l 1,6,-1
 300 675 l 1,7,-1
 300 525 l 1,8,-1
 225 525 l 1,9,-1
 225 150 l 1,10,-1
 300 150 l 1,11,-1
 300 0 l 1,12,-1
 225 0 l 1,13,-1
 225 75 l 1,14,-1
 150 75 l 1,15,-1
 150 225 l 1,0,-1
EndSplineSet
EndChar

StartChar: parenright
Encoding: 41 41 10
Width: 300
Flags: W
LayerCount: 2
Fore
SplineSet
150 0 m 1,0,-1
 75 0 l 1,1,-1
 75 150 l 1,2,-1
 150 150 l 1,3,-1
 150 525 l 1,4,-1
 75 525 l 1,5,-1
 75 675 l 1,6,-1
 150 675 l 1,7,-1
 150 600 l 1,8,-1
 225 600 l 1,9,-1
 225 450 l 1,10,-1
 300 450 l 1,11,-1
 300 225 l 1,12,-1
 225 225 l 1,13,-1
 225 75 l 1,14,-1
 150 75 l 1,15,-1
 150 0 l 1,0,-1
EndSplineSet
EndChar

StartChar: asterisk
Encoding: 42 42 11
Width: 525
Flags: W
LayerCount: 2
Fore
SplineSet
150 525 m 1,0,-1
 225 525 l 1,1,-1
 225 450 l 1,2,-1
 375 450 l 1,3,-1
 375 375 l 1,4,-1
 525 375 l 1,5,-1
 525 300 l 1,6,-1
 375 300 l 1,7,-1
 375 225 l 1,8,-1
 450 225 l 1,9,-1
 450 150 l 1,10,-1
 375 150 l 1,11,-1
 375 225 l 1,12,-1
 225 225 l 1,13,-1
 225 300 l 1,14,-1
 75 300 l 1,15,-1
 75 375 l 1,16,-1
 225 375 l 1,17,-1
 225 450 l 1,18,-1
 150 450 l 1,19,-1
 150 525 l 1,0,-1
150 225 m 1,20,-1
 225 225 l 1,21,-1
 225 150 l 1,22,-1
 150 150 l 1,23,-1
 150 225 l 1,20,-1
375 525 m 1,24,-1
 450 525 l 1,25,-1
 450 450 l 1,26,-1
 375 450 l 1,27,-1
 375 525 l 1,24,-1
EndSplineSet
EndChar

StartChar: plus
Encoding: 43 43 12
Width: 525
Flags: W
LayerCount: 2
Fore
SplineSet
225 300 m 1,0,-1
 75 300 l 1,1,-1
 75 375 l 1,2,-1
 225 375 l 1,3,-1
 225 525 l 1,4,-1
 375 525 l 1,5,-1
 375 375 l 1,6,-1
 525 375 l 1,7,-1
 525 300 l 1,8,-1
 375 300 l 1,9,-1
 375 150 l 1,10,-1
 225 150 l 1,11,-1
 225 300 l 1,0,-1
EndSplineSet
EndChar

StartChar: comma
Encoding: 44 44 13
Width: 225
Flags: W
LayerCount: 2
Fore
SplineSet
75 150 m 1,0,-1
 225 150 l 1,1,-1
 225 -74 l 1,2,-1
 150 -74 l 1,3,-1
 150 0 l 1,4,-1
 75 0 l 1,5,-1
 75 150 l 1,0,-1
75 -74 m 1,6,-1
 150 -74 l 1,7,-1
 150 -149 l 1,8,-1
 75 -149 l 1,9,-1
 75 -74 l 1,6,-1
EndSplineSet
EndChar

StartChar: minus
Encoding: 45 45 14
Width: 300
Flags: W
LayerCount: 2
Fore
SplineSet
75 375 m 1,0,-1
 300 375 l 1,1,-1
 300 300 l 1,2,-1
 75 300 l 1,3,-1
 75 375 l 1,0,-1
EndSplineSet
EndChar

StartChar: period
Encoding: 46 46 15
Width: 225
Flags: W
LayerCount: 2
Fore
SplineSet
75 150 m 1,0,-1
 225 150 l 1,1,-1
 225 0 l 1,2,-1
 75 0 l 1,3,-1
 75 150 l 1,0,-1
EndSplineSet
EndChar

StartChar: slash
Encoding: 47 47 16
Width: 375
Flags: W
LayerCount: 2
Fore
SplineSet
150 0 m 1,0,-1
 75 0 l 1,1,-1
 75 225 l 1,2,-1
 150 225 l 1,3,-1
 150 375 l 1,4,-1
 225 375 l 1,5,-1
 225 525 l 1,6,-1
 300 525 l 1,7,-1
 300 675 l 1,8,-1
 375 675 l 1,9,-1
 375 450 l 1,10,-1
 300 450 l 1,11,-1
 300 300 l 1,12,-1
 225 300 l 1,13,-1
 225 150 l 1,14,-1
 150 150 l 1,15,-1
 150 0 l 1,0,-1
EndSplineSet
EndChar

StartChar: zero
Encoding: 48 48 17
Width: 525
Flags: W
LayerCount: 2
Fore
SplineSet
150 75 m 1,0,-1
 75 75 l 1,1,-1
 75 600 l 1,2,-1
 150 600 l 1,3,-1
 150 675 l 1,4,-1
 450 675 l 1,5,-1
 450 600 l 1,6,-1
 525 600 l 1,7,-1
 525 75 l 1,8,-1
 450 75 l 1,9,-1
 450 0 l 1,10,-1
 150 0 l 1,11,-1
 150 75 l 1,0,-1
225 75 m 1,12,-1
 375 75 l 1,13,-1
 375 600 l 1,14,-1
 225 600 l 1,15,-1
 225 75 l 1,12,-1
EndSplineSet
EndChar

StartChar: one
Encoding: 49 49 18
Width: 300
Flags: W
LayerCount: 2
Fore
SplineSet
75 600 m 1,0,-1
 150 600 l 1,1,-1
 150 675 l 1,2,-1
 300 675 l 1,3,-1
 300 0 l 1,4,-1
 150 0 l 1,5,-1
 150 450 l 1,6,-1
 75 450 l 1,7,-1
 75 600 l 1,0,-1
EndSplineSet
EndChar

StartChar: two
Encoding: 50 50 19
Width: 525
Flags: W
LayerCount: 2
Fore
SplineSet
75 600 m 1,0,-1
 150 600 l 1,1,-1
 150 675 l 1,2,-1
 450 675 l 1,3,-1
 450 600 l 1,4,-1
 525 600 l 1,5,-1
 525 375 l 1,6,-1
 450 375 l 1,7,-1
 450 300 l 1,8,-1
 375 300 l 1,9,-1
 375 225 l 1,10,-1
 300 225 l 1,11,-1
 300 150 l 1,12,-1
 225 150 l 1,13,-1
 225 75 l 1,14,-1
 525 75 l 1,15,-1
 525 0 l 1,16,-1
 75 0 l 1,17,-1
 75 225 l 1,18,-1
 150 225 l 1,19,-1
 150 300 l 1,20,-1
 225 300 l 1,21,-1
 225 375 l 1,22,-1
 300 375 l 1,23,-1
 300 450 l 1,24,-1
 375 450 l 1,25,-1
 375 600 l 1,26,-1
 225 600 l 1,27,-1
 225 450 l 1,28,-1
 75 450 l 1,29,-1
 75 600 l 1,0,-1
EndSplineSet
EndChar

StartChar: three
Encoding: 51 51 20
Width: 525
Flags: W
LayerCount: 2
Fore
SplineSet
75 600 m 1,0,-1
 150 600 l 1,1,-1
 150 675 l 1,2,-1
 450 675 l 1,3,-1
 450 600 l 1,4,-1
 525 600 l 1,5,-1
 525 375 l 1,6,-1
 450 375 l 1,7,-1
 450 300 l 1,8,-1
 525 300 l 1,9,-1
 525 75 l 1,10,-1
 450 75 l 1,11,-1
 450 0 l 1,12,-1
 150 0 l 1,13,-1
 150 75 l 1,14,-1
 75 75 l 1,15,-1
 75 225 l 1,16,-1
 225 225 l 1,17,-1
 225 75 l 1,18,-1
 375 75 l 1,19,-1
 375 300 l 1,20,-1
 225 300 l 1,21,-1
 225 375 l 1,22,-1
 375 375 l 1,23,-1
 375 600 l 1,24,-1
 225 600 l 1,25,-1
 225 450 l 1,26,-1
 75 450 l 1,27,-1
 75 600 l 1,0,-1
EndSplineSet
EndChar

StartChar: four
Encoding: 52 52 21
Width: 600
Flags: W
LayerCount: 2
Fore
SplineSet
375 300 m 1,0,-1
 150 300 l 1,1,-1
 150 375 l 1,2,-1
 75 375 l 1,3,-1
 75 600 l 1,4,-1
 150 600 l 1,5,-1
 150 675 l 1,6,-1
 225 675 l 1,7,-1
 225 375 l 1,8,-1
 375 375 l 1,9,-1
 375 675 l 1,10,-1
 450 675 l 1,11,-1
 450 600 l 1,12,-1
 525 600 l 1,13,-1
 525 375 l 1,14,-1
 600 375 l 1,15,-1
 600 300 l 1,16,-1
 525 300 l 1,17,-1
 525 75 l 1,18,-1
 450 75 l 1,19,-1
 450 0 l 1,20,-1
 375 0 l 1,21,-1
 375 300 l 1,0,-1
EndSplineSet
EndChar

StartChar: five
Encoding: 53 53 22
Width: 525
Flags: W
LayerCount: 2
Fore
SplineSet
75 675 m 1,0,-1
 525 675 l 1,1,-1
 525 600 l 1,2,-1
 225 600 l 1,3,-1
 225 375 l 1,4,-1
 450 375 l 1,5,-1
 450 300 l 1,6,-1
 525 300 l 1,7,-1
 525 75 l 1,8,-1
 450 75 l 1,9,-1
 450 0 l 1,10,-1
 75 0 l 1,11,-1
 75 75 l 1,12,-1
 375 75 l 1,13,-1
 375 300 l 1,14,-1
 150 300 l 1,15,-1
 150 375 l 1,16,-1
 75 375 l 1,17,-1
 75 675 l 1,0,-1
EndSplineSet
EndChar

StartChar: six
Encoding: 54 54 23
Width: 525
Flags: W
LayerCount: 2
Fore
SplineSet
225 375 m 1,0,-1
 450 375 l 1,1,-1
 450 300 l 1,2,-1
 525 300 l 1,3,-1
 525 75 l 1,4,-1
 450 75 l 1,5,-1
 450 0 l 1,6,-1
 150 0 l 1,7,-1
 150 75 l 1,8,-1
 75 75 l 1,9,-1
 75 600 l 1,10,-1
 150 600 l 1,11,-1
 150 675 l 1,12,-1
 450 675 l 1,13,-1
 450 600 l 1,14,-1
 525 600 l 1,15,-1
 525 450 l 1,16,-1
 375 450 l 1,17,-1
 375 600 l 1,18,-1
 225 600 l 1,19,-1
 225 375 l 1,0,-1
225 75 m 1,20,-1
 375 75 l 1,21,-1
 375 300 l 1,22,-1
 225 300 l 1,23,-1
 225 75 l 1,20,-1
EndSplineSet
EndChar

StartChar: seven
Encoding: 55 55 24
Width: 525
Flags: W
LayerCount: 2
Fore
SplineSet
75 675 m 1,0,-1
 525 675 l 1,1,-1
 525 450 l 1,2,-1
 450 450 l 1,3,-1
 450 300 l 1,4,-1
 375 300 l 1,5,-1
 375 150 l 1,6,-1
 300 150 l 1,7,-1
 300 0 l 1,8,-1
 150 0 l 1,9,-1
 150 225 l 1,10,-1
 225 225 l 1,11,-1
 225 375 l 1,12,-1
 300 375 l 1,13,-1
 300 525 l 1,14,-1
 375 525 l 1,15,-1
 375 600 l 1,16,-1
 75 600 l 1,17,-1
 75 675 l 1,0,-1
EndSplineSet
EndChar

StartChar: eight
Encoding: 56 56 25
Width: 525
Flags: W
LayerCount: 2
Fore
SplineSet
450 0 m 1,0,-1
 150 0 l 1,1,-1
 150 75 l 1,2,-1
 75 75 l 1,3,-1
 75 300 l 1,4,-1
 150 300 l 1,5,-1
 150 375 l 1,6,-1
 75 375 l 1,7,-1
 75 600 l 1,8,-1
 150 600 l 1,9,-1
 150 675 l 1,10,-1
 450 675 l 1,11,-1
 450 600 l 1,12,-1
 525 600 l 1,13,-1
 525 375 l 1,14,-1
 450 375 l 1,15,-1
 450 300 l 1,16,-1
 525 300 l 1,17,-1
 525 75 l 1,18,-1
 450 75 l 1,19,-1
 450 0 l 1,0,-1
225 75 m 1,20,-1
 375 75 l 1,21,-1
 375 300 l 1,22,-1
 225 300 l 1,23,-1
 225 75 l 1,20,-1
225 375 m 1,24,-1
 375 375 l 1,25,-1
 375 600 l 1,26,-1
 225 600 l 1,27,-1
 225 375 l 1,24,-1
EndSplineSet
EndChar

StartChar: nine
Encoding: 57 57 26
Width: 525
Flags: W
LayerCount: 2
Fore
SplineSet
150 75 m 1,0,-1
 225 75 l 1,1,-1
 225 150 l 1,2,-1
 300 150 l 1,3,-1
 300 225 l 1,4,-1
 375 225 l 1,5,-1
 375 300 l 1,6,-1
 150 300 l 1,7,-1
 150 375 l 1,8,-1
 75 375 l 1,9,-1
 75 600 l 1,10,-1
 150 600 l 1,11,-1
 150 675 l 1,12,-1
 450 675 l 1,13,-1
 450 600 l 1,14,-1
 525 600 l 1,15,-1
 525 225 l 1,16,-1
 450 225 l 1,17,-1
 450 150 l 1,18,-1
 375 150 l 1,19,-1
 375 75 l 1,20,-1
 300 75 l 1,21,-1
 300 0 l 1,22,-1
 150 0 l 1,23,-1
 150 75 l 1,0,-1
225 375 m 1,24,-1
 375 375 l 1,25,-1
 375 600 l 1,26,-1
 225 600 l 1,27,-1
 225 375 l 1,24,-1
EndSplineSet
EndChar

StartChar: colon
Encoding: 58 58 27
Width: 225
Flags: W
LayerCount: 2
Fore
SplineSet
75 150 m 1,0,-1
 225 150 l 1,1,-1
 225 0 l 1,2,-1
 75 0 l 1,3,-1
 75 150 l 1,0,-1
75 525 m 1,4,-1
 225 525 l 1,5,-1
 225 375 l 1,6,-1
 75 375 l 1,7,-1
 75 525 l 1,4,-1
EndSplineSet
EndChar

StartChar: semicolon
Encoding: 59 59 28
Width: 225
Flags: W
LayerCount: 2
Fore
SplineSet
75 150 m 1,0,-1
 225 150 l 1,1,-1
 225 -74 l 1,2,-1
 150 -74 l 1,3,-1
 150 0 l 1,4,-1
 75 0 l 1,5,-1
 75 150 l 1,0,-1
75 525 m 1,6,-1
 225 525 l 1,7,-1
 225 375 l 1,8,-1
 75 375 l 1,9,-1
 75 525 l 1,6,-1
75 -74 m 1,10,-1
 150 -74 l 1,11,-1
 150 -149 l 1,12,-1
 75 -149 l 1,13,-1
 75 -74 l 1,10,-1
EndSplineSet
EndChar

StartChar: less
Encoding: 60 60 29
Width: 525
Flags: W
LayerCount: 2
Fore
SplineSet
225 525 m 1,0,-1
 300 525 l 1,1,-1
 300 600 l 1,2,-1
 375 600 l 1,3,-1
 375 675 l 1,4,-1
 525 675 l 1,5,-1
 525 600 l 1,6,-1
 450 600 l 1,7,-1
 450 525 l 1,8,-1
 375 525 l 1,9,-1
 375 450 l 1,10,-1
 300 450 l 1,11,-1
 300 375 l 1,12,-1
 225 375 l 1,13,-1
 225 300 l 1,14,-1
 300 300 l 1,15,-1
 300 225 l 1,16,-1
 375 225 l 1,17,-1
 375 150 l 1,18,-1
 450 150 l 1,19,-1
 450 75 l 1,20,-1
 525 75 l 1,21,-1
 525 0 l 1,22,-1
 375 0 l 1,23,-1
 375 75 l 1,24,-1
 300 75 l 1,25,-1
 300 150 l 1,26,-1
 225 150 l 1,27,-1
 225 225 l 1,28,-1
 150 225 l 1,29,-1
 150 300 l 1,30,-1
 75 300 l 1,31,-1
 75 375 l 1,32,-1
 150 375 l 1,33,-1
 150 450 l 1,34,-1
 225 450 l 1,35,-1
 225 525 l 1,0,-1
EndSplineSet
EndChar

StartChar: equal
Encoding: 61 61 30
Width: 525
Flags: W
LayerCount: 2
Fore
SplineSet
75 300 m 1,0,-1
 525 300 l 1,1,-1
 525 225 l 1,2,-1
 75 225 l 1,3,-1
 75 300 l 1,0,-1
75 450 m 1,4,-1
 525 450 l 1,5,-1
 525 375 l 1,6,-1
 75 375 l 1,7,-1
 75 450 l 1,4,-1
EndSplineSet
EndChar

StartChar: greater
Encoding: 62 62 31
Width: 525
Flags: W
LayerCount: 2
Fore
SplineSet
75 675 m 1,0,-1
 225 675 l 1,1,-1
 225 600 l 1,2,-1
 300 600 l 1,3,-1
 300 525 l 1,4,-1
 375 525 l 1,5,-1
 375 450 l 1,6,-1
 450 450 l 1,7,-1
 450 375 l 1,8,-1
 525 375 l 1,9,-1
 525 300 l 1,10,-1
 450 300 l 1,11,-1
 450 225 l 1,12,-1
 375 225 l 1,13,-1
 375 150 l 1,14,-1
 300 150 l 1,15,-1
 300 75 l 1,16,-1
 225 75 l 1,17,-1
 225 0 l 1,18,-1
 75 0 l 1,19,-1
 75 75 l 1,20,-1
 150 75 l 1,21,-1
 150 150 l 1,22,-1
 225 150 l 1,23,-1
 225 225 l 1,24,-1
 300 225 l 1,25,-1
 300 300 l 1,26,-1
 375 300 l 1,27,-1
 375 375 l 1,28,-1
 300 375 l 1,29,-1
 300 450 l 1,30,-1
 225 450 l 1,31,-1
 225 525 l 1,32,-1
 150 525 l 1,33,-1
 150 600 l 1,34,-1
 75 600 l 1,35,-1
 75 675 l 1,0,-1
EndSplineSet
EndChar

StartChar: question
Encoding: 63 63 32
Width: 525
Flags: W
LayerCount: 2
Fore
SplineSet
150 675 m 1,0,-1
 450 675 l 1,1,-1
 450 600 l 1,2,-1
 525 600 l 1,3,-1
 525 375 l 1,4,-1
 450 375 l 1,5,-1
 450 300 l 1,6,-1
 375 300 l 1,7,-1
 375 225 l 1,8,-1
 225 225 l 1,9,-1
 225 300 l 1,10,-1
 300 300 l 1,11,-1
 300 375 l 1,12,-1
 375 375 l 1,13,-1
 375 600 l 1,14,-1
 225 600 l 1,15,-1
 225 450 l 1,16,-1
 75 450 l 1,17,-1
 75 600 l 1,18,-1
 150 600 l 1,19,-1
 150 675 l 1,0,-1
225 150 m 1,20,-1
 375 150 l 1,21,-1
 375 0 l 1,22,-1
 225 0 l 1,23,-1
 225 150 l 1,20,-1
EndSplineSet
EndChar

StartChar: at
Encoding: 64 64 33
Width: 675
Flags: W
LayerCount: 2
Fore
SplineSet
225 75 m 1,0,-1
 675 75 l 1,1,-1
 675 0 l 1,2,-1
 150 0 l 1,3,-1
 150 75 l 1,4,-1
 75 75 l 1,5,-1
 75 600 l 1,6,-1
 150 600 l 1,7,-1
 150 675 l 1,8,-1
 600 675 l 1,9,-1
 600 600 l 1,10,-1
 675 600 l 1,11,-1
 675 225 l 1,12,-1
 600 225 l 1,13,-1
 600 150 l 1,14,-1
 375 150 l 1,15,-1
 375 225 l 1,16,-1
 300 225 l 1,17,-1
 300 450 l 1,18,-1
 375 450 l 1,19,-1
 375 525 l 1,20,-1
 525 525 l 1,21,-1
 525 600 l 1,22,-1
 225 600 l 1,23,-1
 225 75 l 1,0,-1
525 450 m 1,24,-1
 450 450 l 1,25,-1
 450 225 l 1,26,-1
 525 225 l 1,27,-1
 525 450 l 1,24,-1
EndSplineSet
EndChar

StartChar: A
Encoding: 65 65 34
Width: 525
Flags: W
LayerCount: 2
Fore
SplineSet
225 0 m 1,0,-1
 150 0 l 1,1,-1
 150 75 l 1,2,-1
 75 75 l 1,3,-1
 75 600 l 1,4,-1
 150 600 l 1,5,-1
 150 675 l 1,6,-1
 450 675 l 1,7,-1
 450 600 l 1,8,-1
 525 600 l 1,9,-1
 525 75 l 1,10,-1
 450 75 l 1,11,-1
 450 0 l 1,12,-1
 375 0 l 1,13,-1
 375 300 l 1,14,-1
 225 300 l 1,15,-1
 225 0 l 1,0,-1
225 375 m 1,16,-1
 375 375 l 1,17,-1
 375 600 l 1,18,-1
 225 600 l 1,19,-1
 225 375 l 1,16,-1
EndSplineSet
EndChar

StartChar: B
Encoding: 66 66 35
Width: 525
Flags: W
LayerCount: 2
Fore
SplineSet
150 75 m 1,0,-1
 75 75 l 1,1,-1
 75 600 l 1,2,-1
 150 600 l 1,3,-1
 150 675 l 1,4,-1
 450 675 l 1,5,-1
 450 600 l 1,6,-1
 525 600 l 1,7,-1
 525 375 l 1,8,-1
 450 375 l 1,9,-1
 450 300 l 1,10,-1
 525 300 l 1,11,-1
 525 75 l 1,12,-1
 450 75 l 1,13,-1
 450 0 l 1,14,-1
 150 0 l 1,15,-1
 150 75 l 1,0,-1
225 375 m 1,16,-1
 375 375 l 1,17,-1
 375 600 l 1,18,-1
 225 600 l 1,19,-1
 225 375 l 1,16,-1
225 75 m 1,20,-1
 375 75 l 1,21,-1
 375 300 l 1,22,-1
 225 300 l 1,23,-1
 225 75 l 1,20,-1
EndSplineSet
EndChar

StartChar: C
Encoding: 67 67 36
Width: 525
Flags: W
LayerCount: 2
Fore
SplineSet
150 75 m 1,0,-1
 75 75 l 1,1,-1
 75 600 l 1,2,-1
 150 600 l 1,3,-1
 150 675 l 1,4,-1
 450 675 l 1,5,-1
 450 600 l 1,6,-1
 525 600 l 1,7,-1
 525 450 l 1,8,-1
 375 450 l 1,9,-1
 375 600 l 1,10,-1
 225 600 l 1,11,-1
 225 75 l 1,12,-1
 375 75 l 1,13,-1
 375 225 l 1,14,-1
 525 225 l 1,15,-1
 525 75 l 1,16,-1
 450 75 l 1,17,-1
 450 0 l 1,18,-1
 150 0 l 1,19,-1
 150 75 l 1,0,-1
EndSplineSet
EndChar

StartChar: D
Encoding: 68 68 37
Width: 525
Flags: W
LayerCount: 2
Fore
SplineSet
150 75 m 1,0,-1
 75 75 l 1,1,-1
 75 600 l 1,2,-1
 150 600 l 1,3,-1
 150 675 l 1,4,-1
 375 675 l 1,5,-1
 375 600 l 1,6,-1
 450 600 l 1,7,-1
 450 450 l 1,8,-1
 525 450 l 1,9,-1
 525 75 l 1,10,-1
 450 75 l 1,11,-1
 450 0 l 1,12,-1
 150 0 l 1,13,-1
 150 75 l 1,0,-1
300 600 m 1,14,-1
 225 600 l 1,15,-1
 225 75 l 1,16,-1
 375 75 l 1,17,-1
 375 450 l 1,18,-1
 300 450 l 1,19,-1
 300 600 l 1,14,-1
EndSplineSet
EndChar

StartChar: E
Encoding: 69 69 38
Width: 525
Flags: W
LayerCount: 2
Fore
SplineSet
150 75 m 1,0,-1
 75 75 l 1,1,-1
 75 600 l 1,2,-1
 150 600 l 1,3,-1
 150 675 l 1,4,-1
 525 675 l 1,5,-1
 525 600 l 1,6,-1
 225 600 l 1,7,-1
 225 375 l 1,8,-1
 375 375 l 1,9,-1
 375 300 l 1,10,-1
 225 300 l 1,11,-1
 225 75 l 1,12,-1
 525 75 l 1,13,-1
 525 0 l 1,14,-1
 150 0 l 1,15,-1
 150 75 l 1,0,-1
EndSplineSet
EndChar

StartChar: F
Encoding: 70 70 39
Width: 525
Flags: W
LayerCount: 2
Fore
SplineSet
225 0 m 1,0,-1
 150 0 l 1,1,-1
 150 75 l 1,2,-1
 75 75 l 1,3,-1
 75 600 l 1,4,-1
 150 600 l 1,5,-1
 150 675 l 1,6,-1
 525 675 l 1,7,-1
 525 600 l 1,8,-1
 225 600 l 1,9,-1
 225 375 l 1,10,-1
 375 375 l 1,11,-1
 375 300 l 1,12,-1
 225 300 l 1,13,-1
 225 0 l 1,0,-1
EndSplineSet
EndChar

StartChar: G
Encoding: 71 71 40
Width: 525
Flags: W
LayerCount: 2
Fore
SplineSet
150 75 m 1,0,-1
 75 75 l 1,1,-1
 75 600 l 1,2,-1
 150 600 l 1,3,-1
 150 675 l 1,4,-1
 450 675 l 1,5,-1
 450 600 l 1,6,-1
 525 600 l 1,7,-1
 525 450 l 1,8,-1
 375 450 l 1,9,-1
 375 600 l 1,10,-1
 225 600 l 1,11,-1
 225 75 l 1,12,-1
 375 75 l 1,13,-1
 375 300 l 1,14,-1
 300 300 l 1,15,-1
 300 375 l 1,16,-1
 450 375 l 1,17,-1
 450 300 l 1,18,-1
 525 300 l 1,19,-1
 525 75 l 1,20,-1
 450 75 l 1,21,-1
 450 0 l 1,22,-1
 150 0 l 1,23,-1
 150 75 l 1,0,-1
EndSplineSet
EndChar

StartChar: H
Encoding: 72 72 41
Width: 525
Flags: W
LayerCount: 2
Fore
SplineSet
225 0 m 1,0,-1
 150 0 l 1,1,-1
 150 75 l 1,2,-1
 75 75 l 1,3,-1
 75 600 l 1,4,-1
 150 600 l 1,5,-1
 150 675 l 1,6,-1
 225 675 l 1,7,-1
 225 375 l 1,8,-1
 375 375 l 1,9,-1
 375 675 l 1,10,-1
 450 675 l 1,11,-1
 450 600 l 1,12,-1
 525 600 l 1,13,-1
 525 75 l 1,14,-1
 450 75 l 1,15,-1
 450 0 l 1,16,-1
 375 0 l 1,17,-1
 375 300 l 1,18,-1
 225 300 l 1,19,-1
 225 0 l 1,0,-1
EndSplineSet
EndChar

StartChar: I
Encoding: 73 73 42
Width: 525
Flags: W
LayerCount: 2
Fore
SplineSet
75 675 m 1,0,-1
 525 675 l 1,1,-1
 525 600 l 1,2,-1
 375 600 l 1,3,-1
 375 75 l 1,4,-1
 525 75 l 1,5,-1
 525 0 l 1,6,-1
 75 0 l 1,7,-1
 75 75 l 1,8,-1
 225 75 l 1,9,-1
 225 600 l 1,10,-1
 75 600 l 1,11,-1
 75 675 l 1,0,-1
EndSplineSet
EndChar

StartChar: J
Encoding: 74 74 43
Width: 525
Flags: W
LayerCount: 2
Fore
SplineSet
450 675 m 1,0,-1
 450 600 l 1,1,-1
 525 600 l 1,2,-1
 525 75 l 1,3,-1
 450 75 l 1,4,-1
 450 0 l 1,5,-1
 150 0 l 1,6,-1
 150 75 l 1,7,-1
 75 75 l 1,8,-1
 75 225 l 1,9,-1
 225 225 l 1,10,-1
 225 75 l 1,11,-1
 375 75 l 1,12,-1
 375 675 l 1,13,-1
 450 675 l 1,0,-1
EndSplineSet
EndChar

StartChar: K
Encoding: 75 75 44
Width: 525
Flags: W
LayerCount: 2
Fore
SplineSet
225 0 m 1,0,-1
 150 0 l 1,1,-1
 150 75 l 1,2,-1
 75 75 l 1,3,-1
 75 600 l 1,4,-1
 150 600 l 1,5,-1
 150 675 l 1,6,-1
 225 675 l 1,7,-1
 225 375 l 1,8,-1
 300 375 l 1,9,-1
 300 450 l 1,10,-1
 375 450 l 1,11,-1
 375 675 l 1,12,-1
 450 675 l 1,13,-1
 450 600 l 1,14,-1
 525 600 l 1,15,-1
 525 450 l 1,16,-1
 450 450 l 1,17,-1
 450 375 l 1,18,-1
 375 375 l 1,19,-1
 375 300 l 1,20,-1
 450 300 l 1,21,-1
 450 225 l 1,22,-1
 525 225 l 1,23,-1
 525 75 l 1,24,-1
 450 75 l 1,25,-1
 450 0 l 1,26,-1
 375 0 l 1,27,-1
 375 225 l 1,28,-1
 300 225 l 1,29,-1
 300 300 l 1,30,-1
 225 300 l 1,31,-1
 225 0 l 1,0,-1
EndSplineSet
EndChar

StartChar: L
Encoding: 76 76 45
Width: 525
Flags: W
LayerCount: 2
Fore
SplineSet
150 75 m 1,0,-1
 75 75 l 1,1,-1
 75 600 l 1,2,-1
 150 600 l 1,3,-1
 150 675 l 1,4,-1
 225 675 l 1,5,-1
 225 75 l 1,6,-1
 525 75 l 1,7,-1
 525 0 l 1,8,-1
 150 0 l 1,9,-1
 150 75 l 1,0,-1
EndSplineSet
EndChar

StartChar: M
Encoding: 77 77 46
Width: 600
Flags: W
LayerCount: 2
Fore
SplineSet
225 0 m 1,0,-1
 150 0 l 1,1,-1
 150 75 l 1,2,-1
 75 75 l 1,3,-1
 75 600 l 1,4,-1
 150 600 l 1,5,-1
 150 675 l 1,6,-1
 225 675 l 1,7,-1
 225 525 l 1,8,-1
 300 525 l 1,9,-1
 300 450 l 1,10,-1
 375 450 l 1,11,-1
 375 525 l 1,12,-1
 450 525 l 1,13,-1
 450 675 l 1,14,-1
 525 675 l 1,15,-1
 525 600 l 1,16,-1
 600 600 l 1,17,-1
 600 75 l 1,18,-1
 525 75 l 1,19,-1
 525 0 l 1,20,-1
 450 0 l 1,21,-1
 450 375 l 1,22,-1
 375 375 l 1,23,-1
 375 300 l 1,24,-1
 300 300 l 1,25,-1
 300 375 l 1,26,-1
 225 375 l 1,27,-1
 225 0 l 1,0,-1
EndSplineSet
EndChar

StartChar: N
Encoding: 78 78 47
Width: 525
Flags: W
LayerCount: 2
Fore
SplineSet
225 0 m 1,0,-1
 150 0 l 1,1,-1
 150 75 l 1,2,-1
 75 75 l 1,3,-1
 75 600 l 1,4,-1
 150 600 l 1,5,-1
 150 675 l 1,6,-1
 225 675 l 1,7,-1
 225 525 l 1,8,-1
 300 525 l 1,9,-1
 300 450 l 1,10,-1
 375 450 l 1,11,-1
 375 675 l 1,12,-1
 450 675 l 1,13,-1
 450 600 l 1,14,-1
 525 600 l 1,15,-1
 525 75 l 1,16,-1
 450 75 l 1,17,-1
 450 0 l 1,18,-1
 375 0 l 1,19,-1
 375 300 l 1,20,-1
 300 300 l 1,21,-1
 300 375 l 1,22,-1
 225 375 l 1,23,-1
 225 0 l 1,0,-1
EndSplineSet
EndChar

StartChar: O
Encoding: 79 79 48
Width: 525
Flags: W
LayerCount: 2
Fore
SplineSet
150 75 m 1,0,-1
 75 75 l 1,1,-1
 75 600 l 1,2,-1
 150 600 l 1,3,-1
 150 675 l 1,4,-1
 450 675 l 1,5,-1
 450 600 l 1,6,-1
 525 600 l 1,7,-1
 525 75 l 1,8,-1
 450 75 l 1,9,-1
 450 0 l 1,10,-1
 150 0 l 1,11,-1
 150 75 l 1,0,-1
225 75 m 1,12,-1
 375 75 l 1,13,-1
 375 600 l 1,14,-1
 225 600 l 1,15,-1
 225 75 l 1,12,-1
EndSplineSet
EndChar

StartChar: P
Encoding: 80 80 49
Width: 525
Flags: W
LayerCount: 2
Fore
SplineSet
225 0 m 1,0,-1
 150 0 l 1,1,-1
 150 75 l 1,2,-1
 75 75 l 1,3,-1
 75 600 l 1,4,-1
 150 600 l 1,5,-1
 150 675 l 1,6,-1
 450 675 l 1,7,-1
 450 600 l 1,8,-1
 525 600 l 1,9,-1
 525 375 l 1,10,-1
 450 375 l 1,11,-1
 450 300 l 1,12,-1
 225 300 l 1,13,-1
 225 0 l 1,0,-1
225 375 m 1,14,-1
 375 375 l 1,15,-1
 375 600 l 1,16,-1
 225 600 l 1,17,-1
 225 375 l 1,14,-1
EndSplineSet
EndChar

StartChar: Q
Encoding: 81 81 50
Width: 525
Flags: W
LayerCount: 2
Fore
SplineSet
150 75 m 1,0,-1
 75 75 l 1,1,-1
 75 600 l 1,2,-1
 150 600 l 1,3,-1
 150 675 l 1,4,-1
 450 675 l 1,5,-1
 450 600 l 1,6,-1
 525 600 l 1,7,-1
 525 150 l 1,8,-1
 450 150 l 1,9,-1
 450 75 l 1,10,-1
 525 75 l 1,11,-1
 525 0 l 1,12,-1
 150 0 l 1,13,-1
 150 75 l 1,0,-1
225 75 m 1,14,-1
 300 75 l 1,15,-1
 300 225 l 1,16,-1
 375 225 l 1,17,-1
 375 600 l 1,18,-1
 225 600 l 1,19,-1
 225 75 l 1,14,-1
EndSplineSet
EndChar

StartChar: R
Encoding: 82 82 51
Width: 525
Flags: W
LayerCount: 2
Fore
SplineSet
225 0 m 1,0,-1
 150 0 l 1,1,-1
 150 75 l 1,2,-1
 75 75 l 1,3,-1
 75 600 l 1,4,-1
 150 600 l 1,5,-1
 150 675 l 1,6,-1
 450 675 l 1,7,-1
 450 600 l 1,8,-1
 525 600 l 1,9,-1
 525 375 l 1,10,-1
 450 375 l 1,11,-1
 450 300 l 1,12,-1
 525 300 l 1,13,-1
 525 75 l 1,14,-1
 450 75 l 1,15,-1
 450 0 l 1,16,-1
 375 0 l 1,17,-1
 375 300 l 1,18,-1
 225 300 l 1,19,-1
 225 0 l 1,0,-1
225 375 m 1,20,-1
 375 375 l 1,21,-1
 375 600 l 1,22,-1
 225 600 l 1,23,-1
 225 375 l 1,20,-1
EndSplineSet
EndChar

StartChar: S
Encoding: 83 83 52
Width: 525
Flags: W
LayerCount: 2
Fore
SplineSet
75 600 m 1,0,-1
 150 600 l 1,1,-1
 150 675 l 1,2,-1
 525 675 l 1,3,-1
 525 600 l 1,4,-1
 225 600 l 1,5,-1
 225 375 l 1,6,-1
 450 375 l 1,7,-1
 450 300 l 1,8,-1
 525 300 l 1,9,-1
 525 75 l 1,10,-1
 450 75 l 1,11,-1
 450 0 l 1,12,-1
 75 0 l 1,13,-1
 75 75 l 1,14,-1
 375 75 l 1,15,-1
 375 300 l 1,16,-1
 150 300 l 1,17,-1
 150 375 l 1,18,-1
 75 375 l 1,19,-1
 75 600 l 1,0,-1
EndSplineSet
EndChar

StartChar: T
Encoding: 84 84 53
Width: 525
Flags: W
LayerCount: 2
Fore
SplineSet
375 0 m 1,0,-1
 225 0 l 1,1,-1
 225 600 l 1,2,-1
 75 600 l 1,3,-1
 75 675 l 1,4,-1
 525 675 l 1,5,-1
 525 600 l 1,6,-1
 375 600 l 1,7,-1
 375 0 l 1,0,-1
EndSplineSet
EndChar

StartChar: U
Encoding: 85 85 54
Width: 525
Flags: W
LayerCount: 2
Fore
SplineSet
150 75 m 1,0,-1
 75 75 l 1,1,-1
 75 600 l 1,2,-1
 150 600 l 1,3,-1
 150 675 l 1,4,-1
 225 675 l 1,5,-1
 225 75 l 1,6,-1
 375 75 l 1,7,-1
 375 675 l 1,8,-1
 450 675 l 1,9,-1
 450 600 l 1,10,-1
 525 600 l 1,11,-1
 525 75 l 1,12,-1
 450 75 l 1,13,-1
 450 0 l 1,14,-1
 150 0 l 1,15,-1
 150 75 l 1,0,-1
EndSplineSet
EndChar

StartChar: V
Encoding: 86 86 55
Width: 525
Flags: W
LayerCount: 2
Fore
SplineSet
225 75 m 1,0,-1
 150 75 l 1,1,-1
 150 150 l 1,2,-1
 75 150 l 1,3,-1
 75 600 l 1,4,-1
 150 600 l 1,5,-1
 150 675 l 1,6,-1
 225 675 l 1,7,-1
 225 150 l 1,8,-1
 375 150 l 1,9,-1
 375 675 l 1,10,-1
 450 675 l 1,11,-1
 450 600 l 1,12,-1
 525 600 l 1,13,-1
 525 150 l 1,14,-1
 450 150 l 1,15,-1
 450 75 l 1,16,-1
 375 75 l 1,17,-1
 375 0 l 1,18,-1
 225 0 l 1,19,-1
 225 75 l 1,0,-1
EndSplineSet
EndChar

StartChar: W
Encoding: 87 87 56
Width: 600
Flags: W
LayerCount: 2
Fore
SplineSet
225 0 m 1,0,-1
 150 0 l 1,1,-1
 150 75 l 1,2,-1
 75 75 l 1,3,-1
 75 600 l 1,4,-1
 150 600 l 1,5,-1
 150 675 l 1,6,-1
 225 675 l 1,7,-1
 225 300 l 1,8,-1
 300 300 l 1,9,-1
 300 375 l 1,10,-1
 375 375 l 1,11,-1
 375 300 l 1,12,-1
 450 300 l 1,13,-1
 450 675 l 1,14,-1
 525 675 l 1,15,-1
 525 600 l 1,16,-1
 600 600 l 1,17,-1
 600 75 l 1,18,-1
 525 75 l 1,19,-1
 525 0 l 1,20,-1
 450 0 l 1,21,-1
 450 150 l 1,22,-1
 375 150 l 1,23,-1
 375 225 l 1,24,-1
 300 225 l 1,25,-1
 300 150 l 1,26,-1
 225 150 l 1,27,-1
 225 0 l 1,0,-1
EndSplineSet
EndChar

StartChar: X
Encoding: 88 88 57
Width: 525
Flags: W
LayerCount: 2
Fore
SplineSet
225 0 m 1,0,-1
 150 0 l 1,1,-1
 150 75 l 1,2,-1
 75 75 l 1,3,-1
 75 225 l 1,4,-1
 150 225 l 1,5,-1
 150 300 l 1,6,-1
 225 300 l 1,7,-1
 225 375 l 1,8,-1
 150 375 l 1,9,-1
 150 450 l 1,10,-1
 75 450 l 1,11,-1
 75 600 l 1,12,-1
 150 600 l 1,13,-1
 150 675 l 1,14,-1
 225 675 l 1,15,-1
 225 450 l 1,16,-1
 375 450 l 1,17,-1
 375 675 l 1,18,-1
 450 675 l 1,19,-1
 450 600 l 1,20,-1
 525 600 l 1,21,-1
 525 450 l 1,22,-1
 450 450 l 1,23,-1
 450 375 l 1,24,-1
 375 375 l 1,25,-1
 375 300 l 1,26,-1
 450 300 l 1,27,-1
 450 225 l 1,28,-1
 525 225 l 1,29,-1
 525 75 l 1,30,-1
 450 75 l 1,31,-1
 450 0 l 1,32,-1
 375 0 l 1,33,-1
 375 225 l 1,34,-1
 225 225 l 1,35,-1
 225 0 l 1,0,-1
EndSplineSet
EndChar

StartChar: Y
Encoding: 89 89 58
Width: 525
Flags: W
LayerCount: 2
Fore
SplineSet
225 300 m 1,0,-1
 150 300 l 1,1,-1
 150 375 l 1,2,-1
 75 375 l 1,3,-1
 75 600 l 1,4,-1
 150 600 l 1,5,-1
 150 675 l 1,6,-1
 225 675 l 1,7,-1
 225 375 l 1,8,-1
 375 375 l 1,9,-1
 375 675 l 1,10,-1
 450 675 l 1,11,-1
 450 600 l 1,12,-1
 525 600 l 1,13,-1
 525 375 l 1,14,-1
 450 375 l 1,15,-1
 450 300 l 1,16,-1
 375 300 l 1,17,-1
 375 0 l 1,18,-1
 225 0 l 1,19,-1
 225 300 l 1,0,-1
EndSplineSet
EndChar

StartChar: Z
Encoding: 90 90 59
Width: 525
Flags: W
LayerCount: 2
Fore
SplineSet
75 675 m 1,0,-1
 525 675 l 1,1,-1
 525 450 l 1,2,-1
 450 450 l 1,3,-1
 450 375 l 1,4,-1
 375 375 l 1,5,-1
 375 300 l 1,6,-1
 300 300 l 1,7,-1
 300 225 l 1,8,-1
 225 225 l 1,9,-1
 225 75 l 1,10,-1
 525 75 l 1,11,-1
 525 0 l 1,12,-1
 75 0 l 1,13,-1
 75 225 l 1,14,-1
 150 225 l 1,15,-1
 150 300 l 1,16,-1
 225 300 l 1,17,-1
 225 375 l 1,18,-1
 300 375 l 1,19,-1
 300 450 l 1,20,-1
 375 450 l 1,21,-1
 375 600 l 1,22,-1
 75 600 l 1,23,-1
 75 675 l 1,0,-1
EndSplineSet
EndChar

StartChar: bracketleft
Encoding: 91 91 60
Width: 375
Flags: W
LayerCount: 2
Fore
SplineSet
225 75 m 1,0,-1
 375 75 l 1,1,-1
 375 0 l 1,2,-1
 150 0 l 1,3,-1
 150 75 l 1,4,-1
 75 75 l 1,5,-1
 75 600 l 1,6,-1
 150 600 l 1,7,-1
 150 675 l 1,8,-1
 375 675 l 1,9,-1
 375 600 l 1,10,-1
 225 600 l 1,11,-1
 225 75 l 1,0,-1
EndSplineSet
EndChar

StartChar: backslash
Encoding: 92 92 61
Width: 375
Flags: W
LayerCount: 2
Fore
SplineSet
150 450 m 1,0,-1
 75 450 l 1,1,-1
 75 675 l 1,2,-1
 150 675 l 1,3,-1
 150 525 l 1,4,-1
 225 525 l 1,5,-1
 225 375 l 1,6,-1
 300 375 l 1,7,-1
 300 225 l 1,8,-1
 375 225 l 1,9,-1
 375 0 l 1,10,-1
 300 0 l 1,11,-1
 300 150 l 1,12,-1
 225 150 l 1,13,-1
 225 300 l 1,14,-1
 150 300 l 1,15,-1
 150 450 l 1,0,-1
EndSplineSet
EndChar

StartChar: bracketright
Encoding: 93 93 62
Width: 375
Flags: W
LayerCount: 2
Fore
SplineSet
300 0 m 1,0,-1
 75 0 l 1,1,-1
 75 75 l 1,2,-1
 225 75 l 1,3,-1
 225 600 l 1,4,-1
 75 600 l 1,5,-1
 75 675 l 1,6,-1
 300 675 l 1,7,-1
 300 600 l 1,8,-1
 375 600 l 1,9,-1
 375 75 l 1,10,-1
 300 75 l 1,11,-1
 300 0 l 1,0,-1
EndSplineSet
EndChar

StartChar: asciicircum
Encoding: 94 94 63
Width: 450
Flags: W
LayerCount: 2
Fore
SplineSet
150 375 m 1,0,-1
 75 375 l 1,1,-1
 75 525 l 1,2,-1
 150 525 l 1,3,-1
 150 600 l 1,4,-1
 225 600 l 1,5,-1
 225 675 l 1,6,-1
 300 675 l 1,7,-1
 300 600 l 1,8,-1
 375 600 l 1,9,-1
 375 525 l 1,10,-1
 450 525 l 1,11,-1
 450 375 l 1,12,-1
 375 375 l 1,13,-1
 375 450 l 1,14,-1
 300 450 l 1,15,-1
 300 525 l 1,16,-1
 225 525 l 1,17,-1
 225 450 l 1,18,-1
 150 450 l 1,19,-1
 150 375 l 1,0,-1
EndSplineSet
EndChar

StartChar: underscore
Encoding: 95 95 64
Width: 525
Flags: W
LayerCount: 2
Fore
SplineSet
75 0 m 1,0,-1
 525 0 l 1,1,-1
 525 -74 l 1,2,-1
 75 -74 l 1,3,-1
 75 0 l 1,0,-1
EndSplineSet
EndChar

StartChar: grave
Encoding: 96 96 65
Width: 150
Flags: W
LayerCount: 2
Fore
SplineSet
75 675 m 1,0,-1
 150 675 l 1,1,-1
 150 450 l 1,2,-1
 75 450 l 1,3,-1
 75 675 l 1,0,-1
EndSplineSet
EndChar

StartChar: a
Encoding: 97 97 66
Width: 525
Flags: W
LayerCount: 2
Fore
SplineSet
225 75 m 1,0,-1
 375 75 l 1,1,-1
 375 0 l 1,2,-1
 150 0 l 1,3,-1
 150 75 l 1,4,-1
 75 75 l 1,5,-1
 75 300 l 1,6,-1
 150 300 l 1,7,-1
 150 375 l 1,8,-1
 450 375 l 1,9,-1
 450 300 l 1,10,-1
 525 300 l 1,11,-1
 525 0 l 1,12,-1
 450 0 l 1,13,-1
 450 75 l 1,14,-1
 375 75 l 1,15,-1
 375 300 l 1,16,-1
 225 300 l 1,17,-1
 225 75 l 1,0,-1
EndSplineSet
EndChar

StartChar: b
Encoding: 98 98 67
Width: 525
Flags: W
LayerCount: 2
Fore
SplineSet
450 0 m 1,0,-1
 150 0 l 1,1,-1
 150 75 l 1,2,-1
 75 75 l 1,3,-1
 75 600 l 1,4,-1
 150 600 l 1,5,-1
 150 675 l 1,6,-1
 225 675 l 1,7,-1
 225 375 l 1,8,-1
 450 375 l 1,9,-1
 450 300 l 1,10,-1
 525 300 l 1,11,-1
 525 75 l 1,12,-1
 450 75 l 1,13,-1
 450 0 l 1,0,-1
225 75 m 1,14,-1
 375 75 l 1,15,-1
 375 300 l 1,16,-1
 225 300 l 1,17,-1
 225 75 l 1,14,-1
EndSplineSet
EndChar

StartChar: c
Encoding: 99 99 68
Width: 525
Flags: W
LayerCount: 2
Fore
SplineSet
225 75 m 1,0,-1
 525 75 l 1,1,-1
 525 0 l 1,2,-1
 150 0 l 1,3,-1
 150 75 l 1,4,-1
 75 75 l 1,5,-1
 75 300 l 1,6,-1
 150 300 l 1,7,-1
 150 375 l 1,8,-1
 525 375 l 1,9,-1
 525 300 l 1,10,-1
 225 300 l 1,11,-1
 225 75 l 1,0,-1
EndSplineSet
EndChar

StartChar: d
Encoding: 100 100 69
Width: 525
Flags: W
LayerCount: 2
Fore
SplineSet
450 0 m 1,0,-1
 150 0 l 1,1,-1
 150 75 l 1,2,-1
 75 75 l 1,3,-1
 75 300 l 1,4,-1
 150 300 l 1,5,-1
 150 375 l 1,6,-1
 375 375 l 1,7,-1
 375 675 l 1,8,-1
 450 675 l 1,9,-1
 450 600 l 1,10,-1
 525 600 l 1,11,-1
 525 75 l 1,12,-1
 450 75 l 1,13,-1
 450 0 l 1,0,-1
225 75 m 1,14,-1
 375 75 l 1,15,-1
 375 300 l 1,16,-1
 225 300 l 1,17,-1
 225 75 l 1,14,-1
EndSplineSet
EndChar

StartChar: e
Encoding: 101 101 70
Width: 525
Flags: W
LayerCount: 2
Fore
SplineSet
225 75 m 1,0,-1
 525 75 l 1,1,-1
 525 0 l 1,2,-1
 150 0 l 1,3,-1
 150 75 l 1,4,-1
 75 75 l 1,5,-1
 75 300 l 1,6,-1
 150 300 l 1,7,-1
 150 375 l 1,8,-1
 450 375 l 1,9,-1
 450 300 l 1,10,-1
 525 300 l 1,11,-1
 525 150 l 1,12,-1
 225 150 l 1,13,-1
 225 75 l 1,0,-1
225 225 m 1,14,-1
 375 225 l 1,15,-1
 375 300 l 1,16,-1
 225 300 l 1,17,-1
 225 225 l 1,14,-1
EndSplineSet
EndChar

StartChar: f
Encoding: 102 102 71
Width: 450
Flags: W
LayerCount: 2
Fore
SplineSet
300 0 m 1,0,-1
 225 0 l 1,1,-1
 225 75 l 1,2,-1
 150 75 l 1,3,-1
 150 300 l 1,4,-1
 75 300 l 1,5,-1
 75 375 l 1,6,-1
 150 375 l 1,7,-1
 150 600 l 1,8,-1
 225 600 l 1,9,-1
 225 675 l 1,10,-1
 450 675 l 1,11,-1
 450 600 l 1,12,-1
 300 600 l 1,13,-1
 300 375 l 1,14,-1
 375 375 l 1,15,-1
 375 300 l 1,16,-1
 300 300 l 1,17,-1
 300 0 l 1,0,-1
EndSplineSet
EndChar

StartChar: g
Encoding: 103 103 72
Width: 525
Flags: W
LayerCount: 2
Fore
SplineSet
75 -74 m 1,0,-1
 375 -74 l 1,1,-1
 375 0 l 1,2,-1
 150 0 l 1,3,-1
 150 75 l 1,4,-1
 75 75 l 1,5,-1
 75 300 l 1,6,-1
 150 300 l 1,7,-1
 150 375 l 1,8,-1
 450 375 l 1,9,-1
 450 300 l 1,10,-1
 525 300 l 1,11,-1
 525 -74 l 1,12,-1
 450 -74 l 1,13,-1
 450 -149 l 1,14,-1
 75 -149 l 1,15,-1
 75 -74 l 1,0,-1
225 75 m 1,16,-1
 375 75 l 1,17,-1
 375 300 l 1,18,-1
 225 300 l 1,19,-1
 225 75 l 1,16,-1
EndSplineSet
EndChar

StartChar: h
Encoding: 104 104 73
Width: 525
Flags: W
LayerCount: 2
Fore
SplineSet
225 0 m 1,0,-1
 150 0 l 1,1,-1
 150 75 l 1,2,-1
 75 75 l 1,3,-1
 75 600 l 1,4,-1
 150 600 l 1,5,-1
 150 675 l 1,6,-1
 225 675 l 1,7,-1
 225 375 l 1,8,-1
 450 375 l 1,9,-1
 450 300 l 1,10,-1
 525 300 l 1,11,-1
 525 75 l 1,12,-1
 450 75 l 1,13,-1
 450 0 l 1,14,-1
 375 0 l 1,15,-1
 375 300 l 1,16,-1
 225 300 l 1,17,-1
 225 0 l 1,0,-1
EndSplineSet
EndChar

StartChar: i
Encoding: 105 105 74
Width: 225
Flags: W
LayerCount: 2
Fore
SplineSet
75 375 m 1,0,-1
 225 375 l 1,1,-1
 225 0 l 1,2,-1
 75 0 l 1,3,-1
 75 375 l 1,0,-1
75 600 m 1,4,-1
 225 600 l 1,5,-1
 225 450 l 1,6,-1
 75 450 l 1,7,-1
 75 600 l 1,4,-1
EndSplineSet
EndChar

StartChar: j
Encoding: 106 106 75
Width: 300
Flags: W
LayerCount: 2
Fore
SplineSet
75 -74 m 1,0,-1
 150 -74 l 1,1,-1
 150 375 l 1,2,-1
 300 375 l 1,3,-1
 300 -74 l 1,4,-1
 225 -74 l 1,5,-1
 225 -149 l 1,6,-1
 75 -149 l 1,7,-1
 75 -74 l 1,0,-1
150 600 m 1,8,-1
 300 600 l 1,9,-1
 300 450 l 1,10,-1
 150 450 l 1,11,-1
 150 600 l 1,8,-1
EndSplineSet
EndChar

StartChar: k
Encoding: 107 107 76
Width: 525
Flags: W
LayerCount: 2
Fore
SplineSet
225 0 m 1,0,-1
 150 0 l 1,1,-1
 150 75 l 1,2,-1
 75 75 l 1,3,-1
 75 600 l 1,4,-1
 150 600 l 1,5,-1
 150 675 l 1,6,-1
 225 675 l 1,7,-1
 225 375 l 1,8,-1
 300 375 l 1,9,-1
 300 525 l 1,10,-1
 375 525 l 1,11,-1
 375 600 l 1,12,-1
 525 600 l 1,13,-1
 525 525 l 1,14,-1
 450 525 l 1,15,-1
 450 450 l 1,16,-1
 375 450 l 1,17,-1
 375 375 l 1,18,-1
 450 375 l 1,19,-1
 450 300 l 1,20,-1
 525 300 l 1,21,-1
 525 75 l 1,22,-1
 450 75 l 1,23,-1
 450 0 l 1,24,-1
 375 0 l 1,25,-1
 375 300 l 1,26,-1
 225 300 l 1,27,-1
 225 0 l 1,0,-1
EndSplineSet
EndChar

StartChar: l
Encoding: 108 108 77
Width: 225
Flags: W
LayerCount: 2
Fore
SplineSet
150 75 m 1,0,-1
 75 75 l 1,1,-1
 75 600 l 1,2,-1
 150 600 l 1,3,-1
 150 675 l 1,4,-1
 225 675 l 1,5,-1
 225 0 l 1,6,-1
 150 0 l 1,7,-1
 150 75 l 1,0,-1
EndSplineSet
EndChar

StartChar: m
Encoding: 109 109 78
Width: 600
Flags: W
LayerCount: 2
Fore
SplineSet
225 0 m 1,0,-1
 150 0 l 1,1,-1
 150 75 l 1,2,-1
 75 75 l 1,3,-1
 75 300 l 1,4,-1
 150 300 l 1,5,-1
 150 375 l 1,6,-1
 525 375 l 1,7,-1
 525 300 l 1,8,-1
 600 300 l 1,9,-1
 600 75 l 1,10,-1
 525 75 l 1,11,-1
 525 0 l 1,12,-1
 450 0 l 1,13,-1
 450 300 l 1,14,-1
 375 300 l 1,15,-1
 375 150 l 1,16,-1
 300 150 l 1,17,-1
 300 300 l 1,18,-1
 225 300 l 1,19,-1
 225 0 l 1,0,-1
EndSplineSet
EndChar

StartChar: n
Encoding: 110 110 79
Width: 525
Flags: W
LayerCount: 2
Fore
SplineSet
225 0 m 1,0,-1
 150 0 l 1,1,-1
 150 75 l 1,2,-1
 75 75 l 1,3,-1
 75 300 l 1,4,-1
 150 300 l 1,5,-1
 150 375 l 1,6,-1
 450 375 l 1,7,-1
 450 300 l 1,8,-1
 525 300 l 1,9,-1
 525 75 l 1,10,-1
 450 75 l 1,11,-1
 450 0 l 1,12,-1
 375 0 l 1,13,-1
 375 300 l 1,14,-1
 225 300 l 1,15,-1
 225 0 l 1,0,-1
EndSplineSet
EndChar

StartChar: o
Encoding: 111 111 80
Width: 525
Flags: W
LayerCount: 2
Fore
SplineSet
450 0 m 1,0,-1
 150 0 l 1,1,-1
 150 75 l 1,2,-1
 75 75 l 1,3,-1
 75 300 l 1,4,-1
 150 300 l 1,5,-1
 150 375 l 1,6,-1
 450 375 l 1,7,-1
 450 300 l 1,8,-1
 525 300 l 1,9,-1
 525 75 l 1,10,-1
 450 75 l 1,11,-1
 450 0 l 1,0,-1
225 75 m 1,12,-1
 375 75 l 1,13,-1
 375 300 l 1,14,-1
 225 300 l 1,15,-1
 225 75 l 1,12,-1
EndSplineSet
EndChar

StartChar: p
Encoding: 112 112 81
Width: 525
Flags: W
LayerCount: 2
Fore
SplineSet
75 300 m 1,0,-1
 150 300 l 1,1,-1
 150 375 l 1,2,-1
 450 375 l 1,3,-1
 450 300 l 1,4,-1
 525 300 l 1,5,-1
 525 75 l 1,6,-1
 450 75 l 1,7,-1
 450 0 l 1,8,-1
 225 0 l 1,9,-1
 225 -149 l 1,10,-1
 150 -149 l 1,11,-1
 150 -74 l 1,12,-1
 75 -74 l 1,13,-1
 75 300 l 1,0,-1
225 75 m 1,14,-1
 375 75 l 1,15,-1
 375 300 l 1,16,-1
 225 300 l 1,17,-1
 225 75 l 1,14,-1
EndSplineSet
EndChar

StartChar: q
Encoding: 113 113 82
Width: 525
Flags: W
LayerCount: 2
Fore
SplineSet
150 75 m 1,0,-1
 75 75 l 1,1,-1
 75 300 l 1,2,-1
 150 300 l 1,3,-1
 150 375 l 1,4,-1
 450 375 l 1,5,-1
 450 300 l 1,6,-1
 525 300 l 1,7,-1
 525 -74 l 1,8,-1
 450 -74 l 1,9,-1
 450 -149 l 1,10,-1
 375 -149 l 1,11,-1
 375 0 l 1,12,-1
 150 0 l 1,13,-1
 150 75 l 1,0,-1
225 75 m 1,14,-1
 375 75 l 1,15,-1
 375 300 l 1,16,-1
 225 300 l 1,17,-1
 225 75 l 1,14,-1
EndSplineSet
EndChar

StartChar: r
Encoding: 114 114 83
Width: 525
Flags: W
LayerCount: 2
Fore
SplineSet
225 0 m 1,0,-1
 150 0 l 1,1,-1
 150 75 l 1,2,-1
 75 75 l 1,3,-1
 75 300 l 1,4,-1
 150 300 l 1,5,-1
 150 375 l 1,6,-1
 525 375 l 1,7,-1
 525 300 l 1,8,-1
 225 300 l 1,9,-1
 225 0 l 1,0,-1
EndSplineSet
EndChar

StartChar: s
Encoding: 115 115 84
Width: 525
Flags: W
LayerCount: 2
Fore
SplineSet
75 300 m 1,0,-1
 150 300 l 1,1,-1
 150 375 l 1,2,-1
 525 375 l 1,3,-1
 525 300 l 1,4,-1
 225 300 l 1,5,-1
 225 225 l 1,6,-1
 450 225 l 1,7,-1
 450 150 l 1,8,-1
 525 150 l 1,9,-1
 525 75 l 1,10,-1
 450 75 l 1,11,-1
 450 0 l 1,12,-1
 75 0 l 1,13,-1
 75 75 l 1,14,-1
 375 75 l 1,15,-1
 375 150 l 1,16,-1
 150 150 l 1,17,-1
 150 225 l 1,18,-1
 75 225 l 1,19,-1
 75 300 l 1,0,-1
EndSplineSet
EndChar

StartChar: t
Encoding: 116 116 85
Width: 525
Flags: W
LayerCount: 2
Fore
SplineSet
300 75 m 1,0,-1
 525 75 l 1,1,-1
 525 0 l 1,2,-1
 225 0 l 1,3,-1
 225 75 l 1,4,-1
 150 75 l 1,5,-1
 150 300 l 1,6,-1
 75 300 l 1,7,-1
 75 375 l 1,8,-1
 225 375 l 1,9,-1
 225 450 l 1,10,-1
 300 450 l 1,11,-1
 300 375 l 1,12,-1
 450 375 l 1,13,-1
 450 300 l 1,14,-1
 300 300 l 1,15,-1
 300 75 l 1,0,-1
EndSplineSet
EndChar

StartChar: u
Encoding: 117 117 86
Width: 525
Flags: W
LayerCount: 2
Fore
SplineSet
450 0 m 1,0,-1
 150 0 l 1,1,-1
 150 75 l 1,2,-1
 75 75 l 1,3,-1
 75 300 l 1,4,-1
 150 300 l 1,5,-1
 150 375 l 1,6,-1
 225 375 l 1,7,-1
 225 75 l 1,8,-1
 375 75 l 1,9,-1
 375 375 l 1,10,-1
 450 375 l 1,11,-1
 450 300 l 1,12,-1
 525 300 l 1,13,-1
 525 75 l 1,14,-1
 450 75 l 1,15,-1
 450 0 l 1,0,-1
EndSplineSet
EndChar

StartChar: v
Encoding: 118 118 87
Width: 525
Flags: W
LayerCount: 2
Fore
SplineSet
225 75 m 1,0,-1
 150 75 l 1,1,-1
 150 150 l 1,2,-1
 75 150 l 1,3,-1
 75 300 l 1,4,-1
 150 300 l 1,5,-1
 150 375 l 1,6,-1
 225 375 l 1,7,-1
 225 150 l 1,8,-1
 375 150 l 1,9,-1
 375 375 l 1,10,-1
 450 375 l 1,11,-1
 450 300 l 1,12,-1
 525 300 l 1,13,-1
 525 150 l 1,14,-1
 450 150 l 1,15,-1
 450 75 l 1,16,-1
 375 75 l 1,17,-1
 375 0 l 1,18,-1
 225 0 l 1,19,-1
 225 75 l 1,0,-1
EndSplineSet
EndChar

StartChar: w
Encoding: 119 119 88
Width: 600
Flags: W
LayerCount: 2
Fore
SplineSet
525 0 m 1,0,-1
 150 0 l 1,1,-1
 150 75 l 1,2,-1
 75 75 l 1,3,-1
 75 300 l 1,4,-1
 150 300 l 1,5,-1
 150 375 l 1,6,-1
 225 375 l 1,7,-1
 225 75 l 1,8,-1
 300 75 l 1,9,-1
 300 225 l 1,10,-1
 375 225 l 1,11,-1
 375 75 l 1,12,-1
 450 75 l 1,13,-1
 450 375 l 1,14,-1
 525 375 l 1,15,-1
 525 300 l 1,16,-1
 600 300 l 1,17,-1
 600 75 l 1,18,-1
 525 75 l 1,19,-1
 525 0 l 1,0,-1
EndSplineSet
EndChar

StartChar: x
Encoding: 120 120 89
Width: 525
Flags: W
LayerCount: 2
Fore
SplineSet
375 75 m 1,0,-1
 225 75 l 1,1,-1
 225 0 l 1,2,-1
 75 0 l 1,3,-1
 75 75 l 1,4,-1
 150 75 l 1,5,-1
 150 150 l 1,6,-1
 225 150 l 1,7,-1
 225 225 l 1,8,-1
 150 225 l 1,9,-1
 150 300 l 1,10,-1
 75 300 l 1,11,-1
 75 375 l 1,12,-1
 225 375 l 1,13,-1
 225 300 l 1,14,-1
 375 300 l 1,15,-1
 375 375 l 1,16,-1
 525 375 l 1,17,-1
 525 300 l 1,18,-1
 450 300 l 1,19,-1
 450 225 l 1,20,-1
 375 225 l 1,21,-1
 375 150 l 1,22,-1
 450 150 l 1,23,-1
 450 75 l 1,24,-1
 525 75 l 1,25,-1
 525 0 l 1,26,-1
 375 0 l 1,27,-1
 375 75 l 1,0,-1
EndSplineSet
EndChar

StartChar: y
Encoding: 121 121 90
Width: 525
Flags: W
LayerCount: 2
Fore
SplineSet
75 -74 m 1,0,-1
 375 -74 l 1,1,-1
 375 0 l 1,2,-1
 150 0 l 1,3,-1
 150 75 l 1,4,-1
 75 75 l 1,5,-1
 75 300 l 1,6,-1
 150 300 l 1,7,-1
 150 375 l 1,8,-1
 225 375 l 1,9,-1
 225 75 l 1,10,-1
 375 75 l 1,11,-1
 375 375 l 1,12,-1
 450 375 l 1,13,-1
 450 300 l 1,14,-1
 525 300 l 1,15,-1
 525 -74 l 1,16,-1
 450 -74 l 1,17,-1
 450 -149 l 1,18,-1
 75 -149 l 1,19,-1
 75 -74 l 1,0,-1
EndSplineSet
EndChar

StartChar: z
Encoding: 122 122 91
Width: 525
Flags: W
LayerCount: 2
Fore
SplineSet
75 375 m 1,0,-1
 525 375 l 1,1,-1
 525 300 l 1,2,-1
 450 300 l 1,3,-1
 450 225 l 1,4,-1
 375 225 l 1,5,-1
 375 150 l 1,6,-1
 300 150 l 1,7,-1
 300 75 l 1,8,-1
 525 75 l 1,9,-1
 525 0 l 1,10,-1
 75 0 l 1,11,-1
 75 75 l 1,12,-1
 150 75 l 1,13,-1
 150 150 l 1,14,-1
 225 150 l 1,15,-1
 225 225 l 1,16,-1
 300 225 l 1,17,-1
 300 300 l 1,18,-1
 75 300 l 1,19,-1
 75 375 l 1,0,-1
EndSplineSet
EndChar

StartChar: braceleft
Encoding: 123 123 92
Width: 450
Flags: W
LayerCount: 2
Fore
SplineSet
150 300 m 1,0,-1
 75 300 l 1,1,-1
 75 375 l 1,2,-1
 150 375 l 1,3,-1
 150 450 l 1,4,-1
 225 450 l 1,5,-1
 225 600 l 1,6,-1
 300 600 l 1,7,-1
 300 675 l 1,8,-1
 450 675 l 1,9,-1
 450 600 l 1,10,-1
 375 600 l 1,11,-1
 375 525 l 1,12,-1
 300 525 l 1,13,-1
 300 150 l 1,14,-1
 375 150 l 1,15,-1
 375 75 l 1,16,-1
 450 75 l 1,17,-1
 450 0 l 1,18,-1
 300 0 l 1,19,-1
 300 75 l 1,20,-1
 225 75 l 1,21,-1
 225 225 l 1,22,-1
 150 225 l 1,23,-1
 150 300 l 1,0,-1
EndSplineSet
EndChar

StartChar: bar
Encoding: 124 124 93
Width: 225
Flags: W
LayerCount: 2
Fore
SplineSet
75 675 m 1,0,-1
 225 675 l 1,1,-1
 225 -149 l 1,2,-1
 75 -149 l 1,3,-1
 75 675 l 1,0,-1
EndSplineSet
EndChar

StartChar: braceright
Encoding: 125 125 94
Width: 450
Flags: W
LayerCount: 2
Fore
SplineSet
300 75 m 1,0,-1
 225 75 l 1,1,-1
 225 0 l 1,2,-1
 75 0 l 1,3,-1
 75 75 l 1,4,-1
 150 75 l 1,5,-1
 150 150 l 1,6,-1
 225 150 l 1,7,-1
 225 525 l 1,8,-1
 150 525 l 1,9,-1
 150 600 l 1,10,-1
 75 600 l 1,11,-1
 75 675 l 1,12,-1
 225 675 l 1,13,-1
 225 600 l 1,14,-1
 300 600 l 1,15,-1
 300 450 l 1,16,-1
 375 450 l 1,17,-1
 375 375 l 1,18,-1
 450 375 l 1,19,-1
 450 300 l 1,20,-1
 375 300 l 1,21,-1
 375 225 l 1,22,-1
 300 225 l 1,23,-1
 300 75 l 1,0,-1
EndSplineSet
EndChar

StartChar: asciitilde
Encoding: 126 126 95
Width: 525
Flags: W
LayerCount: 2
Fore
SplineSet
150 450 m 1,0,-1
 300 450 l 1,1,-1
 300 375 l 1,2,-1
 375 375 l 1,3,-1
 375 300 l 1,4,-1
 450 300 l 1,5,-1
 450 225 l 1,6,-1
 300 225 l 1,7,-1
 300 300 l 1,8,-1
 225 300 l 1,9,-1
 225 375 l 1,10,-1
 150 375 l 1,11,-1
 150 450 l 1,0,-1
75 375 m 1,12,-1
 150 375 l 1,13,-1
 150 225 l 1,14,-1
 75 225 l 1,15,-1
 75 375 l 1,12,-1
450 450 m 1,16,-1
 525 450 l 1,17,-1
 525 300 l 1,18,-1
 450 300 l 1,19,-1
 450 450 l 1,16,-1
EndSplineSet
EndChar

StartChar: .0127
Encoding: 127 127 96
Width: 525
Flags: W
LayerCount: 2
Fore
SplineSet
75 675 m 1,0,-1
 525 675 l 1,1,-1
 525 0 l 1,2,-1
 75 0 l 1,3,-1
 75 675 l 1,0,-1
150 75 m 1,4,-1
 450 75 l 1,5,-1
 450 600 l 1,6,-1
 150 600 l 1,7,-1
 150 75 l 1,4,-1
EndSplineSet
EndChar

StartChar: .0128
Encoding: 128 128 97
Width: 525
Flags: W
LayerCount: 2
Fore
SplineSet
75 675 m 1,0,-1
 525 675 l 1,1,-1
 525 0 l 1,2,-1
 75 0 l 1,3,-1
 75 675 l 1,0,-1
150 75 m 1,4,-1
 450 75 l 1,5,-1
 450 600 l 1,6,-1
 150 600 l 1,7,-1
 150 75 l 1,4,-1
EndSplineSet
EndChar

StartChar: .0129
Encoding: 129 129 98
Width: 525
Flags: W
LayerCount: 2
Fore
SplineSet
75 675 m 1,0,-1
 525 675 l 1,1,-1
 525 0 l 1,2,-1
 75 0 l 1,3,-1
 75 675 l 1,0,-1
150 75 m 1,4,-1
 450 75 l 1,5,-1
 450 600 l 1,6,-1
 150 600 l 1,7,-1
 150 75 l 1,4,-1
EndSplineSet
EndChar

StartChar: quotesinglbase
Encoding: 8218 8218 99
Width: 225
Flags: W
LayerCount: 2
Fore
SplineSet
75 150 m 1,0,-1
 225 150 l 1,1,-1
 225 -74 l 1,2,-1
 150 -74 l 1,3,-1
 150 0 l 1,4,-1
 75 0 l 1,5,-1
 75 150 l 1,0,-1
75 -74 m 1,6,-1
 150 -74 l 1,7,-1
 150 -149 l 1,8,-1
 75 -149 l 1,9,-1
 75 -74 l 1,6,-1
EndSplineSet
EndChar

StartChar: florin
Encoding: 402 402 100
Width: 450
Flags: W
LayerCount: 2
Fore
SplineSet
75 300 m 1,0,-1
 75 375 l 1,1,-1
 150 375 l 1,2,-1
 150 600 l 1,3,-1
 225 600 l 1,4,-1
 225 675 l 1,5,-1
 450 675 l 1,6,-1
 450 600 l 1,7,-1
 300 600 l 1,8,-1
 300 375 l 1,9,-1
 375 375 l 1,10,-1
 375 300 l 1,11,-1
 300 300 l 1,12,-1
 300 -74 l 1,13,-1
 225 -74 l 1,14,-1
 225 -149 l 1,15,-1
 75 -149 l 1,16,-1
 75 -74 l 1,17,-1
 150 -74 l 1,18,-1
 150 300 l 1,19,-1
 75 300 l 1,0,-1
EndSplineSet
EndChar

StartChar: quotedblbase
Encoding: 8222 8222 101
Width: 450
Flags: W
LayerCount: 2
Fore
SplineSet
75 150 m 1,0,-1
 225 150 l 1,1,-1
 225 -74 l 1,2,-1
 150 -74 l 1,3,-1
 150 0 l 1,4,-1
 75 0 l 1,5,-1
 75 150 l 1,0,-1
300 150 m 1,6,-1
 450 150 l 1,7,-1
 450 -74 l 1,8,-1
 375 -74 l 1,9,-1
 375 0 l 1,10,-1
 300 0 l 1,11,-1
 300 150 l 1,6,-1
300 -74 m 1,12,-1
 375 -74 l 1,13,-1
 375 -149 l 1,14,-1
 300 -149 l 1,15,-1
 300 -74 l 1,12,-1
75 -74 m 1,16,-1
 150 -74 l 1,17,-1
 150 -149 l 1,18,-1
 75 -149 l 1,19,-1
 75 -74 l 1,16,-1
EndSplineSet
EndChar

StartChar: ellipsis
Encoding: 8230 8230 102
Width: 675
Flags: W
LayerCount: 2
Fore
SplineSet
75 150 m 1,0,-1
 225 150 l 1,1,-1
 225 0 l 1,2,-1
 75 0 l 1,3,-1
 75 150 l 1,0,-1
300 150 m 1,4,-1
 450 150 l 1,5,-1
 450 0 l 1,6,-1
 300 0 l 1,7,-1
 300 150 l 1,4,-1
525 150 m 1,8,-1
 675 150 l 1,9,-1
 675 0 l 1,10,-1
 525 0 l 1,11,-1
 525 150 l 1,8,-1
EndSplineSet
EndChar

StartChar: dagger
Encoding: 8224 8224 103
Width: 525
Flags: W
LayerCount: 2
Fore
SplineSet
375 0 m 1,0,-1
 225 0 l 1,1,-1
 225 450 l 1,2,-1
 75 450 l 1,3,-1
 75 525 l 1,4,-1
 225 525 l 1,5,-1
 225 675 l 1,6,-1
 375 675 l 1,7,-1
 375 525 l 1,8,-1
 525 525 l 1,9,-1
 525 450 l 1,10,-1
 375 450 l 1,11,-1
 375 0 l 1,0,-1
EndSplineSet
EndChar

StartChar: daggerdbl
Encoding: 8225 8225 104
Width: 525
Flags: W
LayerCount: 2
Fore
SplineSet
75 225 m 1,0,-1
 225 225 l 1,1,-1
 225 450 l 1,2,-1
 75 450 l 1,3,-1
 75 525 l 1,4,-1
 225 525 l 1,5,-1
 225 675 l 1,6,-1
 375 675 l 1,7,-1
 375 525 l 1,8,-1
 525 525 l 1,9,-1
 525 450 l 1,10,-1
 375 450 l 1,11,-1
 375 225 l 1,12,-1
 525 225 l 1,13,-1
 525 150 l 1,14,-1
 375 150 l 1,15,-1
 375 0 l 1,16,-1
 225 0 l 1,17,-1
 225 150 l 1,18,-1
 75 150 l 1,19,-1
 75 225 l 1,0,-1
EndSplineSet
EndChar

StartChar: circumflex
Encoding: 710 710 105
Width: 300
Flags: W
LayerCount: 2
Fore
SplineSet
225 600 m 1,0,-1
 150 600 l 1,1,-1
 150 675 l 1,2,-1
 225 675 l 1,3,-1
 225 600 l 1,4,-1
 300 600 l 1,5,-1
 300 525 l 1,6,-1
 225 525 l 1,7,-1
 225 600 l 1,0,-1
75 600 m 1,8,-1
 150 600 l 1,9,-1
 150 525 l 1,10,-1
 75 525 l 1,11,-1
 75 600 l 1,8,-1
EndSplineSet
EndChar

StartChar: perthousand
Encoding: 8240 8240 106
Width: 825
Flags: W
LayerCount: 2
Fore
SplineSet
225 0 m 1,0,-1
 150 0 l 1,1,-1
 150 225 l 1,2,-1
 225 225 l 1,3,-1
 225 375 l 1,4,-1
 300 375 l 1,5,-1
 300 450 l 1,6,-1
 75 450 l 1,7,-1
 75 675 l 1,8,-1
 300 675 l 1,9,-1
 300 525 l 1,10,-1
 375 525 l 1,11,-1
 375 675 l 1,12,-1
 450 675 l 1,13,-1
 450 450 l 1,14,-1
 375 450 l 1,15,-1
 375 300 l 1,16,-1
 300 300 l 1,17,-1
 300 225 l 1,18,-1
 525 225 l 1,19,-1
 525 0 l 1,20,-1
 300 0 l 1,21,-1
 300 150 l 1,22,-1
 225 150 l 1,23,-1
 225 0 l 1,0,-1
600 225 m 1,24,-1
 825 225 l 1,25,-1
 825 0 l 1,26,-1
 600 0 l 1,27,-1
 600 225 l 1,24,-1
375 75 m 1,28,-1
 450 75 l 1,29,-1
 450 150 l 1,30,-1
 375 150 l 1,31,-1
 375 75 l 1,28,-1
150 525 m 1,32,-1
 225 525 l 1,33,-1
 225 600 l 1,34,-1
 150 600 l 1,35,-1
 150 525 l 1,32,-1
675 75 m 1,36,-1
 750 75 l 1,37,-1
 750 150 l 1,38,-1
 675 150 l 1,39,-1
 675 75 l 1,36,-1
EndSplineSet
EndChar

StartChar: Scaron
Encoding: 352 352 107
Width: 525
Flags: W
LayerCount: 2
Fore
SplineSet
75 600 m 1,0,-1
 150 600 l 1,1,-1
 150 675 l 1,2,-1
 525 675 l 1,3,-1
 525 600 l 1,4,-1
 225 600 l 1,5,-1
 225 375 l 1,6,-1
 450 375 l 1,7,-1
 450 300 l 1,8,-1
 525 300 l 1,9,-1
 525 75 l 1,10,-1
 450 75 l 1,11,-1
 450 0 l 1,12,-1
 75 0 l 1,13,-1
 75 75 l 1,14,-1
 375 75 l 1,15,-1
 375 300 l 1,16,-1
 150 300 l 1,17,-1
 150 375 l 1,18,-1
 75 375 l 1,19,-1
 75 600 l 1,0,-1
150 900 m 1,20,-1
 225 900 l 1,21,-1
 225 825 l 1,22,-1
 375 825 l 1,23,-1
 375 750 l 1,24,-1
 225 750 l 1,25,-1
 225 825 l 1,26,-1
 150 825 l 1,27,-1
 150 900 l 1,20,-1
375 900 m 1,28,-1
 450 900 l 1,29,-1
 450 825 l 1,30,-1
 375 825 l 1,31,-1
 375 900 l 1,28,-1
EndSplineSet
EndChar

StartChar: guilsinglleft
Encoding: 8249 8249 108
Width: 300
Flags: W
LayerCount: 2
Fore
SplineSet
75 375 m 1,0,-1
 150 375 l 1,1,-1
 150 450 l 1,2,-1
 225 450 l 1,3,-1
 225 525 l 1,4,-1
 300 525 l 1,5,-1
 300 375 l 1,6,-1
 225 375 l 1,7,-1
 225 300 l 1,8,-1
 300 300 l 1,9,-1
 300 150 l 1,10,-1
 225 150 l 1,11,-1
 225 225 l 1,12,-1
 150 225 l 1,13,-1
 150 300 l 1,14,-1
 75 300 l 1,15,-1
 75 375 l 1,0,-1
EndSplineSet
EndChar

StartChar: OE
Encoding: 338 338 109
Width: 825
Flags: W
LayerCount: 2
Fore
SplineSet
525 75 m 1,0,-1
 825 75 l 1,1,-1
 825 0 l 1,2,-1
 150 0 l 1,3,-1
 150 75 l 1,4,-1
 75 75 l 1,5,-1
 75 600 l 1,6,-1
 150 600 l 1,7,-1
 150 675 l 1,8,-1
 825 675 l 1,9,-1
 825 600 l 1,10,-1
 525 600 l 1,11,-1
 525 375 l 1,12,-1
 675 375 l 1,13,-1
 675 300 l 1,14,-1
 525 300 l 1,15,-1
 525 75 l 1,0,-1
225 75 m 1,16,-1
 375 75 l 1,17,-1
 375 600 l 1,18,-1
 225 600 l 1,19,-1
 225 75 l 1,16,-1
EndSplineSet
EndChar

StartChar: .0141
Encoding: 141 141 110
Width: 525
Flags: W
LayerCount: 2
Fore
SplineSet
75 675 m 1,0,-1
 525 675 l 1,1,-1
 525 0 l 1,2,-1
 75 0 l 1,3,-1
 75 675 l 1,0,-1
150 75 m 1,4,-1
 450 75 l 1,5,-1
 450 600 l 1,6,-1
 150 600 l 1,7,-1
 150 75 l 1,4,-1
EndSplineSet
EndChar

StartChar: .0142
Encoding: 142 142 111
Width: 525
Flags: W
LayerCount: 2
Fore
SplineSet
75 675 m 1,0,-1
 525 675 l 1,1,-1
 525 0 l 1,2,-1
 75 0 l 1,3,-1
 75 675 l 1,0,-1
150 75 m 1,4,-1
 450 75 l 1,5,-1
 450 600 l 1,6,-1
 150 600 l 1,7,-1
 150 75 l 1,4,-1
EndSplineSet
EndChar

StartChar: .0143
Encoding: 143 143 112
Width: 525
Flags: W
LayerCount: 2
Fore
SplineSet
75 675 m 1,0,-1
 525 675 l 1,1,-1
 525 0 l 1,2,-1
 75 0 l 1,3,-1
 75 675 l 1,0,-1
150 75 m 1,4,-1
 450 75 l 1,5,-1
 450 600 l 1,6,-1
 150 600 l 1,7,-1
 150 75 l 1,4,-1
EndSplineSet
EndChar

StartChar: .0144
Encoding: 144 144 113
Width: 525
Flags: W
LayerCount: 2
Fore
SplineSet
75 675 m 1,0,-1
 525 675 l 1,1,-1
 525 0 l 1,2,-1
 75 0 l 1,3,-1
 75 675 l 1,0,-1
150 75 m 1,4,-1
 450 75 l 1,5,-1
 450 600 l 1,6,-1
 150 600 l 1,7,-1
 150 75 l 1,4,-1
EndSplineSet
EndChar

StartChar: quoteleft
Encoding: 8216 8216 114
Width: 225
Flags: W
LayerCount: 2
Fore
SplineSet
75 600 m 1,0,-1
 150 600 l 1,1,-1
 150 525 l 1,2,-1
 225 525 l 1,3,-1
 225 375 l 1,4,-1
 75 375 l 1,5,-1
 75 600 l 1,0,-1
150 675 m 1,6,-1
 225 675 l 1,7,-1
 225 600 l 1,8,-1
 150 600 l 1,9,-1
 150 675 l 1,6,-1
EndSplineSet
EndChar

StartChar: quoteright
Encoding: 8217 8217 115
Width: 225
Flags: W
LayerCount: 2
Fore
SplineSet
75 675 m 1,0,-1
 225 675 l 1,1,-1
 225 450 l 1,2,-1
 150 450 l 1,3,-1
 150 525 l 1,4,-1
 75 525 l 1,5,-1
 75 675 l 1,0,-1
75 450 m 1,6,-1
 150 450 l 1,7,-1
 150 375 l 1,8,-1
 75 375 l 1,9,-1
 75 450 l 1,6,-1
EndSplineSet
EndChar

StartChar: quotedblleft
Encoding: 8220 8220 116
Width: 450
Flags: W
LayerCount: 2
Fore
SplineSet
75 600 m 1,0,-1
 150 600 l 1,1,-1
 150 525 l 1,2,-1
 225 525 l 1,3,-1
 225 375 l 1,4,-1
 75 375 l 1,5,-1
 75 600 l 1,0,-1
300 600 m 1,6,-1
 375 600 l 1,7,-1
 375 525 l 1,8,-1
 450 525 l 1,9,-1
 450 375 l 1,10,-1
 300 375 l 1,11,-1
 300 600 l 1,6,-1
375 675 m 1,12,-1
 450 675 l 1,13,-1
 450 600 l 1,14,-1
 375 600 l 1,15,-1
 375 675 l 1,12,-1
150 675 m 1,16,-1
 225 675 l 1,17,-1
 225 600 l 1,18,-1
 150 600 l 1,19,-1
 150 675 l 1,16,-1
EndSplineSet
EndChar

StartChar: quotedblright
Encoding: 8221 8221 117
Width: 450
Flags: W
LayerCount: 2
Fore
SplineSet
75 675 m 1,0,-1
 225 675 l 1,1,-1
 225 450 l 1,2,-1
 150 450 l 1,3,-1
 150 525 l 1,4,-1
 75 525 l 1,5,-1
 75 675 l 1,0,-1
300 675 m 1,6,-1
 450 675 l 1,7,-1
 450 450 l 1,8,-1
 375 450 l 1,9,-1
 375 525 l 1,10,-1
 300 525 l 1,11,-1
 300 675 l 1,6,-1
300 450 m 1,12,-1
 375 450 l 1,13,-1
 375 375 l 1,14,-1
 300 375 l 1,15,-1
 300 450 l 1,12,-1
75 450 m 1,16,-1
 150 450 l 1,17,-1
 150 375 l 1,18,-1
 75 375 l 1,19,-1
 75 450 l 1,16,-1
EndSplineSet
EndChar

StartChar: bullet
Encoding: 8226 8226 118
Width: 450
Flags: W
LayerCount: 2
Fore
SplineSet
75 375 m 1,0,-1
 150 375 l 1,1,-1
 150 450 l 1,2,-1
 225 450 l 1,3,-1
 225 525 l 1,4,-1
 300 525 l 1,5,-1
 300 450 l 1,6,-1
 375 450 l 1,7,-1
 375 375 l 1,8,-1
 450 375 l 1,9,-1
 450 300 l 1,10,-1
 375 300 l 1,11,-1
 375 225 l 1,12,-1
 300 225 l 1,13,-1
 300 150 l 1,14,-1
 225 150 l 1,15,-1
 225 225 l 1,16,-1
 150 225 l 1,17,-1
 150 300 l 1,18,-1
 75 300 l 1,19,-1
 75 375 l 1,0,-1
EndSplineSet
EndChar

StartChar: endash
Encoding: 8211 8211 119
Width: 375
Flags: W
LayerCount: 2
Fore
SplineSet
75 375 m 1,0,-1
 375 375 l 1,1,-1
 375 300 l 1,2,-1
 75 300 l 1,3,-1
 75 375 l 1,0,-1
EndSplineSet
EndChar

StartChar: emdash
Encoding: 8212 8212 120
Width: 675
Flags: W
LayerCount: 2
Fore
SplineSet
75 375 m 1,0,-1
 675 375 l 1,1,-1
 675 300 l 1,2,-1
 75 300 l 1,3,-1
 75 375 l 1,0,-1
EndSplineSet
EndChar

StartChar: tilde
Encoding: 732 732 121
Width: 375
Flags: W
LayerCount: 2
Fore
SplineSet
150 525 m 1,0,-1
 75 525 l 1,1,-1
 75 675 l 1,2,-1
 225 675 l 1,3,-1
 225 600 l 1,4,-1
 300 600 l 1,5,-1
 300 675 l 1,6,-1
 375 675 l 1,7,-1
 375 525 l 1,8,-1
 225 525 l 1,9,-1
 225 600 l 1,10,-1
 150 600 l 1,11,-1
 150 525 l 1,0,-1
EndSplineSet
EndChar

StartChar: trademark
Encoding: 8482 8482 122
Width: 900
Flags: W
LayerCount: 2
Fore
SplineSet
375 600 m 1,0,-1
 300 600 l 1,1,-1
 300 375 l 1,2,-1
 150 375 l 1,3,-1
 150 600 l 1,4,-1
 75 600 l 1,5,-1
 75 675 l 1,6,-1
 375 675 l 1,7,-1
 375 600 l 1,8,-1
 450 600 l 1,9,-1
 450 675 l 1,10,-1
 600 675 l 1,11,-1
 600 600 l 1,12,-1
 675 600 l 1,13,-1
 675 525 l 1,14,-1
 600 525 l 1,15,-1
 600 600 l 1,16,-1
 525 600 l 1,17,-1
 525 375 l 1,18,-1
 450 375 l 1,19,-1
 450 450 l 1,20,-1
 375 450 l 1,21,-1
 375 600 l 1,0,-1
750 600 m 1,22,-1
 675 600 l 1,23,-1
 675 675 l 1,24,-1
 825 675 l 1,25,-1
 825 600 l 1,26,-1
 900 600 l 1,27,-1
 900 450 l 1,28,-1
 825 450 l 1,29,-1
 825 375 l 1,30,-1
 750 375 l 1,31,-1
 750 600 l 1,22,-1
EndSplineSet
EndChar

StartChar: scaron
Encoding: 353 353 123
Width: 525
Flags: W
LayerCount: 2
Fore
SplineSet
75 300 m 1,0,-1
 150 300 l 1,1,-1
 150 375 l 1,2,-1
 525 375 l 1,3,-1
 525 300 l 1,4,-1
 225 300 l 1,5,-1
 225 225 l 1,6,-1
 450 225 l 1,7,-1
 450 150 l 1,8,-1
 525 150 l 1,9,-1
 525 75 l 1,10,-1
 450 75 l 1,11,-1
 450 0 l 1,12,-1
 75 0 l 1,13,-1
 75 75 l 1,14,-1
 375 75 l 1,15,-1
 375 150 l 1,16,-1
 150 150 l 1,17,-1
 150 225 l 1,18,-1
 75 225 l 1,19,-1
 75 300 l 1,0,-1
150 600 m 1,20,-1
 225 600 l 1,21,-1
 225 525 l 1,22,-1
 375 525 l 1,23,-1
 375 450 l 1,24,-1
 225 450 l 1,25,-1
 225 525 l 1,26,-1
 150 525 l 1,27,-1
 150 600 l 1,20,-1
375 600 m 1,28,-1
 450 600 l 1,29,-1
 450 525 l 1,30,-1
 375 525 l 1,31,-1
 375 600 l 1,28,-1
EndSplineSet
EndChar

StartChar: guilsinglright
Encoding: 8250 8250 124
Width: 300
Flags: W
LayerCount: 2
Fore
SplineSet
150 150 m 1,0,-1
 75 150 l 1,1,-1
 75 300 l 1,2,-1
 150 300 l 1,3,-1
 150 375 l 1,4,-1
 75 375 l 1,5,-1
 75 525 l 1,6,-1
 150 525 l 1,7,-1
 150 450 l 1,8,-1
 225 450 l 1,9,-1
 225 375 l 1,10,-1
 300 375 l 1,11,-1
 300 300 l 1,12,-1
 225 300 l 1,13,-1
 225 225 l 1,14,-1
 150 225 l 1,15,-1
 150 150 l 1,0,-1
EndSplineSet
EndChar

StartChar: oe
Encoding: 339 339 125
Width: 825
Flags: W
LayerCount: 2
Fore
SplineSet
525 75 m 1,0,-1
 825 75 l 1,1,-1
 825 0 l 1,2,-1
 150 0 l 1,3,-1
 150 75 l 1,4,-1
 75 75 l 1,5,-1
 75 300 l 1,6,-1
 150 300 l 1,7,-1
 150 375 l 1,8,-1
 750 375 l 1,9,-1
 750 300 l 1,10,-1
 825 300 l 1,11,-1
 825 150 l 1,12,-1
 525 150 l 1,13,-1
 525 75 l 1,0,-1
225 75 m 1,14,-1
 375 75 l 1,15,-1
 375 300 l 1,16,-1
 225 300 l 1,17,-1
 225 75 l 1,14,-1
525 225 m 1,18,-1
 675 225 l 1,19,-1
 675 300 l 1,20,-1
 525 300 l 1,21,-1
 525 225 l 1,18,-1
EndSplineSet
EndChar

StartChar: .0157
Encoding: 157 157 126
Width: 525
Flags: W
LayerCount: 2
Fore
SplineSet
75 675 m 1,0,-1
 525 675 l 1,1,-1
 525 0 l 1,2,-1
 75 0 l 1,3,-1
 75 675 l 1,0,-1
150 75 m 1,4,-1
 450 75 l 1,5,-1
 450 600 l 1,6,-1
 150 600 l 1,7,-1
 150 75 l 1,4,-1
EndSplineSet
EndChar

StartChar: .0158
Encoding: 158 158 127
Width: 525
Flags: W
LayerCount: 2
Fore
SplineSet
75 675 m 1,0,-1
 525 675 l 1,1,-1
 525 0 l 1,2,-1
 75 0 l 1,3,-1
 75 675 l 1,0,-1
150 75 m 1,4,-1
 450 75 l 1,5,-1
 450 600 l 1,6,-1
 150 600 l 1,7,-1
 150 75 l 1,4,-1
EndSplineSet
EndChar

StartChar: Ydieresis
Encoding: 376 376 128
Width: 525
Flags: W
LayerCount: 2
Fore
SplineSet
225 300 m 1,0,-1
 150 300 l 1,1,-1
 150 375 l 1,2,-1
 75 375 l 1,3,-1
 75 600 l 1,4,-1
 150 600 l 1,5,-1
 150 675 l 1,6,-1
 225 675 l 1,7,-1
 225 375 l 1,8,-1
 375 375 l 1,9,-1
 375 675 l 1,10,-1
 450 675 l 1,11,-1
 450 600 l 1,12,-1
 525 600 l 1,13,-1
 525 375 l 1,14,-1
 450 375 l 1,15,-1
 450 300 l 1,16,-1
 375 300 l 1,17,-1
 375 0 l 1,18,-1
 225 0 l 1,19,-1
 225 300 l 1,0,-1
75 900 m 1,20,-1
 225 900 l 1,21,-1
 225 750 l 1,22,-1
 75 750 l 1,23,-1
 75 900 l 1,20,-1
375 900 m 1,24,-1
 525 900 l 1,25,-1
 525 750 l 1,26,-1
 375 750 l 1,27,-1
 375 900 l 1,24,-1
EndSplineSet
EndChar

StartChar: exclamdown
Encoding: 161 161 130
Width: 375
Flags: W
LayerCount: 2
Fore
SplineSet
300 0 m 1,0,-1
 150 0 l 1,1,-1
 150 75 l 1,2,-1
 75 75 l 1,3,-1
 75 300 l 1,4,-1
 150 300 l 1,5,-1
 150 450 l 1,6,-1
 300 450 l 1,7,-1
 300 300 l 1,8,-1
 375 300 l 1,9,-1
 375 75 l 1,10,-1
 300 75 l 1,11,-1
 300 0 l 1,0,-1
150 675 m 1,12,-1
 300 675 l 1,13,-1
 300 525 l 1,14,-1
 150 525 l 1,15,-1
 150 675 l 1,12,-1
EndSplineSet
EndChar

StartChar: cent
Encoding: 162 162 131
Width: 525
Flags: W
LayerCount: 2
Fore
SplineSet
300 675 m 1,0,-1
 375 675 l 1,1,-1
 375 525 l 1,2,-1
 525 525 l 1,3,-1
 525 450 l 1,4,-1
 375 450 l 1,5,-1
 375 225 l 1,6,-1
 525 225 l 1,7,-1
 525 150 l 1,8,-1
 375 150 l 1,9,-1
 375 0 l 1,10,-1
 300 0 l 1,11,-1
 300 150 l 1,12,-1
 150 150 l 1,13,-1
 150 225 l 1,14,-1
 75 225 l 1,15,-1
 75 450 l 1,16,-1
 150 450 l 1,17,-1
 150 525 l 1,18,-1
 300 525 l 1,19,-1
 300 675 l 1,0,-1
225 225 m 1,20,-1
 300 225 l 1,21,-1
 300 450 l 1,22,-1
 225 450 l 1,23,-1
 225 225 l 1,20,-1
EndSplineSet
EndChar

StartChar: sterling
Encoding: 163 163 132
Width: 525
Flags: W
LayerCount: 2
Fore
SplineSet
150 300 m 1,0,-1
 75 300 l 1,1,-1
 75 375 l 1,2,-1
 150 375 l 1,3,-1
 150 600 l 1,4,-1
 225 600 l 1,5,-1
 225 675 l 1,6,-1
 450 675 l 1,7,-1
 450 600 l 1,8,-1
 525 600 l 1,9,-1
 525 450 l 1,10,-1
 375 450 l 1,11,-1
 375 600 l 1,12,-1
 300 600 l 1,13,-1
 300 375 l 1,14,-1
 450 375 l 1,15,-1
 450 300 l 1,16,-1
 300 300 l 1,17,-1
 300 75 l 1,18,-1
 450 75 l 1,19,-1
 450 0 l 1,20,-1
 225 0 l 1,21,-1
 225 75 l 1,22,-1
 150 75 l 1,23,-1
 150 300 l 1,0,-1
450 150 m 1,24,-1
 525 150 l 1,25,-1
 525 75 l 1,26,-1
 450 75 l 1,27,-1
 450 150 l 1,24,-1
75 75 m 1,28,-1
 150 75 l 1,29,-1
 150 0 l 1,30,-1
 75 0 l 1,31,-1
 75 75 l 1,28,-1
EndSplineSet
EndChar

StartChar: currency
Encoding: 164 164 133
Width: 525
Flags: W
LayerCount: 2
Fore
SplineSet
150 225 m 1,0,-1
 75 225 l 1,1,-1
 75 450 l 1,2,-1
 150 450 l 1,3,-1
 150 525 l 1,4,-1
 75 525 l 1,5,-1
 75 600 l 1,6,-1
 150 600 l 1,7,-1
 150 525 l 1,8,-1
 450 525 l 1,9,-1
 450 450 l 1,10,-1
 525 450 l 1,11,-1
 525 225 l 1,12,-1
 450 225 l 1,13,-1
 450 150 l 1,14,-1
 525 150 l 1,15,-1
 525 75 l 1,16,-1
 450 75 l 1,17,-1
 450 150 l 1,18,-1
 150 150 l 1,19,-1
 150 225 l 1,0,-1
225 225 m 1,20,-1
 375 225 l 1,21,-1
 375 450 l 1,22,-1
 225 450 l 1,23,-1
 225 225 l 1,20,-1
450 600 m 1,24,-1
 525 600 l 1,25,-1
 525 525 l 1,26,-1
 450 525 l 1,27,-1
 450 600 l 1,24,-1
75 150 m 1,28,-1
 150 150 l 1,29,-1
 150 75 l 1,30,-1
 75 75 l 1,31,-1
 75 150 l 1,28,-1
EndSplineSet
EndChar

StartChar: yen
Encoding: 165 165 134
Width: 525
Flags: W
LayerCount: 2
Fore
SplineSet
375 0 m 1,0,-1
 225 0 l 1,1,-1
 225 75 l 1,2,-1
 75 75 l 1,3,-1
 75 150 l 1,4,-1
 225 150 l 1,5,-1
 225 225 l 1,6,-1
 75 225 l 1,7,-1
 75 300 l 1,8,-1
 150 300 l 1,9,-1
 150 375 l 1,10,-1
 75 375 l 1,11,-1
 75 600 l 1,12,-1
 150 600 l 1,13,-1
 150 675 l 1,14,-1
 225 675 l 1,15,-1
 225 375 l 1,16,-1
 375 375 l 1,17,-1
 375 675 l 1,18,-1
 450 675 l 1,19,-1
 450 600 l 1,20,-1
 525 600 l 1,21,-1
 525 375 l 1,22,-1
 450 375 l 1,23,-1
 450 300 l 1,24,-1
 525 300 l 1,25,-1
 525 225 l 1,26,-1
 375 225 l 1,27,-1
 375 150 l 1,28,-1
 525 150 l 1,29,-1
 525 75 l 1,30,-1
 375 75 l 1,31,-1
 375 0 l 1,0,-1
EndSplineSet
EndChar

StartChar: brokenbar
Encoding: 166 166 135
Width: 225
Flags: W
LayerCount: 2
Fore
SplineSet
75 750 m 1,0,-1
 225 750 l 1,1,-1
 225 375 l 1,2,-1
 75 375 l 1,3,-1
 75 750 l 1,0,-1
75 300 m 1,4,-1
 225 300 l 1,5,-1
 225 -74 l 1,6,-1
 75 -74 l 1,7,-1
 75 300 l 1,4,-1
EndSplineSet
EndChar

StartChar: section
Encoding: 167 167 136
Width: 525
Flags: W
LayerCount: 2
Fore
SplineSet
375 825 m 1,0,-1
 300 825 l 1,1,-1
 300 750 l 1,2,-1
 225 750 l 1,3,-1
 225 675 l 1,4,-1
 300 675 l 1,5,-1
 300 600 l 1,6,-1
 375 600 l 1,7,-1
 375 525 l 1,8,-1
 450 525 l 1,9,-1
 450 450 l 1,10,-1
 525 450 l 1,11,-1
 525 300 l 1,12,-1
 450 300 l 1,13,-1
 450 225 l 1,14,-1
 375 225 l 1,15,-1
 375 150 l 1,16,-1
 450 150 l 1,17,-1
 450 75 l 1,18,-1
 525 75 l 1,19,-1
 525 0 l 1,20,-1
 450 0 l 1,21,-1
 450 -74 l 1,22,-1
 375 -74 l 1,23,-1
 375 -149 l 1,24,-1
 150 -149 l 1,25,-1
 150 -74 l 1,26,-1
 75 -74 l 1,27,-1
 75 0 l 1,28,-1
 225 0 l 1,29,-1
 225 -74 l 1,30,-1
 300 -74 l 1,31,-1
 300 0 l 1,32,-1
 375 0 l 1,33,-1
 375 75 l 1,34,-1
 300 75 l 1,35,-1
 300 150 l 1,36,-1
 225 150 l 1,37,-1
 225 225 l 1,38,-1
 150 225 l 1,39,-1
 150 300 l 1,40,-1
 75 300 l 1,41,-1
 75 450 l 1,42,-1
 150 450 l 1,43,-1
 150 525 l 1,44,-1
 225 525 l 1,45,-1
 225 600 l 1,46,-1
 150 600 l 1,47,-1
 150 675 l 1,48,-1
 75 675 l 1,49,-1
 75 750 l 1,50,-1
 150 750 l 1,51,-1
 150 825 l 1,52,-1
 225 825 l 1,53,-1
 225 900 l 1,54,-1
 450 900 l 1,55,-1
 450 825 l 1,56,-1
 525 825 l 1,57,-1
 525 750 l 1,58,-1
 375 750 l 1,59,-1
 375 825 l 1,0,-1
375 450 m 1,60,-1
 225 450 l 1,61,-1
 225 300 l 1,62,-1
 375 300 l 1,63,-1
 375 450 l 1,60,-1
EndSplineSet
EndChar

StartChar: dieresis
Encoding: 168 168 137
Width: 450
Flags: W
LayerCount: 2
Fore
SplineSet
75 900 m 1,0,-1
 225 900 l 1,1,-1
 225 750 l 1,2,-1
 75 750 l 1,3,-1
 75 900 l 1,0,-1
300 900 m 1,4,-1
 450 900 l 1,5,-1
 450 750 l 1,6,-1
 300 750 l 1,7,-1
 300 900 l 1,4,-1
EndSplineSet
EndChar

StartChar: copyright
Encoding: 169 169 138
Width: 825
Flags: W
LayerCount: 2
Fore
SplineSet
750 0 m 1,0,-1
 150 0 l 1,1,-1
 150 75 l 1,2,-1
 75 75 l 1,3,-1
 75 600 l 1,4,-1
 150 600 l 1,5,-1
 150 675 l 1,6,-1
 750 675 l 1,7,-1
 750 600 l 1,8,-1
 825 600 l 1,9,-1
 825 75 l 1,10,-1
 750 75 l 1,11,-1
 750 0 l 1,0,-1
225 75 m 1,12,-1
 675 75 l 1,13,-1
 675 600 l 1,14,-1
 225 600 l 1,15,-1
 225 75 l 1,12,-1
375 225 m 1,16,-1
 300 225 l 1,17,-1
 300 450 l 1,18,-1
 375 450 l 1,19,-1
 375 525 l 1,20,-1
 600 525 l 1,21,-1
 600 450 l 1,22,-1
 450 450 l 1,23,-1
 450 225 l 1,24,-1
 600 225 l 1,25,-1
 600 150 l 1,26,-1
 375 150 l 1,27,-1
 375 225 l 1,16,-1
EndSplineSet
EndChar

StartChar: ordfeminine
Encoding: 170 170 139
Width: 375
Flags: W
LayerCount: 2
Fore
SplineSet
150 375 m 1,0,-1
 75 375 l 1,1,-1
 75 450 l 1,2,-1
 150 450 l 1,3,-1
 150 375 l 1,4,-1
 300 375 l 1,5,-1
 300 450 l 1,6,-1
 150 450 l 1,7,-1
 150 525 l 1,8,-1
 300 525 l 1,9,-1
 300 600 l 1,10,-1
 150 600 l 1,11,-1
 150 675 l 1,12,-1
 300 675 l 1,13,-1
 300 600 l 1,14,-1
 375 600 l 1,15,-1
 375 300 l 1,16,-1
 150 300 l 1,17,-1
 150 375 l 1,0,-1
EndSplineSet
EndChar

StartChar: guillemotleft
Encoding: 171 171 140
Width: 525
Flags: W
LayerCount: 2
Fore
SplineSet
300 0 m 1,0,-1
 225 0 l 1,1,-1
 225 75 l 1,2,-1
 150 75 l 1,3,-1
 150 150 l 1,4,-1
 75 150 l 1,5,-1
 75 225 l 1,6,-1
 150 225 l 1,7,-1
 150 300 l 1,8,-1
 225 300 l 1,9,-1
 225 375 l 1,10,-1
 300 375 l 1,11,-1
 300 225 l 1,12,-1
 375 225 l 1,13,-1
 375 300 l 1,14,-1
 450 300 l 1,15,-1
 450 375 l 1,16,-1
 525 375 l 1,17,-1
 525 225 l 1,18,-1
 450 225 l 1,19,-1
 450 150 l 1,20,-1
 525 150 l 1,21,-1
 525 0 l 1,22,-1
 450 0 l 1,23,-1
 450 75 l 1,24,-1
 375 75 l 1,25,-1
 375 150 l 1,26,-1
 300 150 l 1,27,-1
 300 0 l 1,0,-1
300 225 m 1,28,-1
 225 225 l 1,29,-1
 225 150 l 1,30,-1
 300 150 l 1,31,-1
 300 225 l 1,28,-1
EndSplineSet
EndChar

StartChar: logicalnot
Encoding: 172 172 141
Width: 525
Flags: W
LayerCount: 2
Fore
SplineSet
75 375 m 1,0,-1
 525 375 l 1,1,-1
 525 150 l 1,2,-1
 375 150 l 1,3,-1
 375 300 l 1,4,-1
 75 300 l 1,5,-1
 75 375 l 1,0,-1
EndSplineSet
EndChar

StartChar: hyphen
Encoding: 173 173 142
Width: 225
Flags: W
LayerCount: 2
Fore
SplineSet
75 375 m 1,0,-1
 225 375 l 1,1,-1
 225 300 l 1,2,-1
 75 300 l 1,3,-1
 75 375 l 1,0,-1
EndSplineSet
EndChar

StartChar: registered
Encoding: 174 174 143
Width: 825
Flags: W
LayerCount: 2
Fore
SplineSet
750 0 m 1,0,-1
 150 0 l 1,1,-1
 150 75 l 1,2,-1
 75 75 l 1,3,-1
 75 600 l 1,4,-1
 150 600 l 1,5,-1
 150 675 l 1,6,-1
 750 675 l 1,7,-1
 750 600 l 1,8,-1
 825 600 l 1,9,-1
 825 75 l 1,10,-1
 750 75 l 1,11,-1
 750 0 l 1,0,-1
225 75 m 1,12,-1
 675 75 l 1,13,-1
 675 600 l 1,14,-1
 225 600 l 1,15,-1
 225 75 l 1,12,-1
450 150 m 1,16,-1
 300 150 l 1,17,-1
 300 525 l 1,18,-1
 600 525 l 1,19,-1
 600 375 l 1,20,-1
 525 375 l 1,21,-1
 525 450 l 1,22,-1
 450 450 l 1,23,-1
 450 375 l 1,24,-1
 525 375 l 1,25,-1
 525 300 l 1,26,-1
 600 300 l 1,27,-1
 600 150 l 1,28,-1
 525 150 l 1,29,-1
 525 300 l 1,30,-1
 450 300 l 1,31,-1
 450 150 l 1,16,-1
EndSplineSet
EndChar

StartChar: macron
Encoding: 175 175 144
Width: 525
Flags: W
LayerCount: 2
Fore
SplineSet
75 825 m 1,0,-1
 525 825 l 1,1,-1
 525 750 l 1,2,-1
 75 750 l 1,3,-1
 75 825 l 1,0,-1
EndSplineSet
EndChar

StartChar: degree
Encoding: 176 176 145
Width: 300
Flags: W
LayerCount: 2
Fore
SplineSet
300 900 m 1,0,-1
 300 675 l 1,1,-1
 75 675 l 1,2,-1
 75 900 l 1,3,-1
 300 900 l 1,0,-1
225 825 m 1,4,-1
 150 825 l 1,5,-1
 150 750 l 1,6,-1
 225 750 l 1,7,-1
 225 825 l 1,4,-1
EndSplineSet
EndChar

StartChar: plusminus
Encoding: 177 177 146
Width: 525
Flags: W
LayerCount: 2
Fore
SplineSet
75 450 m 1,0,-1
 225 450 l 1,1,-1
 225 600 l 1,2,-1
 375 600 l 1,3,-1
 375 450 l 1,4,-1
 525 450 l 1,5,-1
 525 375 l 1,6,-1
 375 375 l 1,7,-1
 375 225 l 1,8,-1
 225 225 l 1,9,-1
 225 375 l 1,10,-1
 75 375 l 1,11,-1
 75 450 l 1,0,-1
75 150 m 1,12,-1
 525 150 l 1,13,-1
 525 75 l 1,14,-1
 75 75 l 1,15,-1
 75 150 l 1,12,-1
EndSplineSet
EndChar

StartChar: twosuperior
Encoding: 178 178 147
Width: 375
Flags: W
LayerCount: 2
Fore
SplineSet
150 675 m 1,0,-1
 300 675 l 1,1,-1
 300 600 l 1,2,-1
 375 600 l 1,3,-1
 375 450 l 1,4,-1
 300 450 l 1,5,-1
 300 375 l 1,6,-1
 375 375 l 1,7,-1
 375 300 l 1,8,-1
 75 300 l 1,9,-1
 75 375 l 1,10,-1
 150 375 l 1,11,-1
 150 450 l 1,12,-1
 225 450 l 1,13,-1
 225 600 l 1,14,-1
 150 600 l 1,15,-1
 150 675 l 1,0,-1
75 600 m 1,16,-1
 150 600 l 1,17,-1
 150 525 l 1,18,-1
 75 525 l 1,19,-1
 75 600 l 1,16,-1
EndSplineSet
EndChar

StartChar: threesuperior
Encoding: 179 179 148
Width: 375
Flags: W
LayerCount: 2
Fore
SplineSet
75 675 m 1,0,-1
 300 675 l 1,1,-1
 300 600 l 1,2,-1
 375 600 l 1,3,-1
 375 375 l 1,4,-1
 300 375 l 1,5,-1
 300 300 l 1,6,-1
 75 300 l 1,7,-1
 75 375 l 1,8,-1
 225 375 l 1,9,-1
 225 450 l 1,10,-1
 75 450 l 1,11,-1
 75 525 l 1,12,-1
 225 525 l 1,13,-1
 225 600 l 1,14,-1
 75 600 l 1,15,-1
 75 675 l 1,0,-1
EndSplineSet
EndChar

StartChar: acute
Encoding: 180 180 149
Width: 225
Flags: W
LayerCount: 2
Fore
SplineSet
75 825 m 1,0,-1
 150 825 l 1,1,-1
 150 750 l 1,2,-1
 75 750 l 1,3,-1
 75 825 l 1,0,-1
150 900 m 1,4,-1
 225 900 l 1,5,-1
 225 825 l 1,6,-1
 150 825 l 1,7,-1
 150 900 l 1,4,-1
EndSplineSet
EndChar

StartChar: mu
Encoding: 181 181 150
Width: 525
Flags: W
LayerCount: 2
Fore
SplineSet
225 -149 m 1,0,-1
 150 -149 l 1,1,-1
 150 -74 l 1,2,-1
 75 -74 l 1,3,-1
 75 450 l 1,4,-1
 150 450 l 1,5,-1
 150 525 l 1,6,-1
 225 525 l 1,7,-1
 225 75 l 1,8,-1
 375 75 l 1,9,-1
 375 525 l 1,10,-1
 450 525 l 1,11,-1
 450 450 l 1,12,-1
 525 450 l 1,13,-1
 525 75 l 1,14,-1
 450 75 l 1,15,-1
 450 0 l 1,16,-1
 225 0 l 1,17,-1
 225 -149 l 1,0,-1
EndSplineSet
EndChar

StartChar: paragraph
Encoding: 182 182 151
Width: 675
Flags: W
LayerCount: 2
Fore
SplineSet
150 375 m 1,0,-1
 75 375 l 1,1,-1
 75 600 l 1,2,-1
 150 600 l 1,3,-1
 150 675 l 1,4,-1
 675 675 l 1,5,-1
 675 600 l 1,6,-1
 600 600 l 1,7,-1
 600 0 l 1,8,-1
 450 0 l 1,9,-1
 450 600 l 1,10,-1
 375 600 l 1,11,-1
 375 0 l 1,12,-1
 225 0 l 1,13,-1
 225 300 l 1,14,-1
 150 300 l 1,15,-1
 150 375 l 1,0,-1
EndSplineSet
EndChar

StartChar: periodcentered
Encoding: 183 183 152
AltUni2: 002219.ffffffff.0
Width: 225
Flags: W
LayerCount: 2
Fore
SplineSet
75 450 m 1,0,-1
 225 450 l 1,1,-1
 225 225 l 1,2,-1
 75 225 l 1,3,-1
 75 450 l 1,0,-1
EndSplineSet
EndChar

StartChar: cedilla
Encoding: 184 184 153
Width: 300
Flags: W
LayerCount: 2
Fore
SplineSet
75 -74 m 1,0,-1
 150 -74 l 1,1,-1
 150 75 l 1,2,-1
 300 75 l 1,3,-1
 300 -74 l 1,4,-1
 225 -74 l 1,5,-1
 225 -149 l 1,6,-1
 75 -149 l 1,7,-1
 75 -74 l 1,0,-1
EndSplineSet
EndChar

StartChar: onesuperior
Encoding: 185 185 154
Width: 225
Flags: W
LayerCount: 2
Fore
SplineSet
150 450 m 1,0,-1
 75 450 l 1,1,-1
 75 600 l 1,2,-1
 150 600 l 1,3,-1
 150 675 l 1,4,-1
 225 675 l 1,5,-1
 225 300 l 1,6,-1
 150 300 l 1,7,-1
 150 450 l 1,0,-1
EndSplineSet
EndChar

StartChar: ordmasculine
Encoding: 186 186 155
Width: 450
Flags: W
LayerCount: 2
Fore
SplineSet
150 375 m 1,0,-1
 75 375 l 1,1,-1
 75 600 l 1,2,-1
 150 600 l 1,3,-1
 150 675 l 1,4,-1
 375 675 l 1,5,-1
 375 600 l 1,6,-1
 450 600 l 1,7,-1
 450 375 l 1,8,-1
 375 375 l 1,9,-1
 375 300 l 1,10,-1
 150 300 l 1,11,-1
 150 375 l 1,0,-1
225 375 m 1,12,-1
 300 375 l 1,13,-1
 300 600 l 1,14,-1
 225 600 l 1,15,-1
 225 375 l 1,12,-1
EndSplineSet
EndChar

StartChar: guillemotright
Encoding: 187 187 156
Width: 525
Flags: W
LayerCount: 2
Fore
SplineSet
375 0 m 1,0,-1
 300 0 l 1,1,-1
 300 150 l 1,2,-1
 225 150 l 1,3,-1
 225 75 l 1,4,-1
 150 75 l 1,5,-1
 150 0 l 1,6,-1
 75 0 l 1,7,-1
 75 150 l 1,8,-1
 150 150 l 1,9,-1
 150 225 l 1,10,-1
 75 225 l 1,11,-1
 75 375 l 1,12,-1
 150 375 l 1,13,-1
 150 300 l 1,14,-1
 225 300 l 1,15,-1
 225 225 l 1,16,-1
 300 225 l 1,17,-1
 300 150 l 1,18,-1
 375 150 l 1,19,-1
 375 225 l 1,20,-1
 300 225 l 1,21,-1
 300 375 l 1,22,-1
 375 375 l 1,23,-1
 375 300 l 1,24,-1
 450 300 l 1,25,-1
 450 225 l 1,26,-1
 525 225 l 1,27,-1
 525 150 l 1,28,-1
 450 150 l 1,29,-1
 450 75 l 1,30,-1
 375 75 l 1,31,-1
 375 0 l 1,0,-1
EndSplineSet
EndChar

StartChar: onequarter
Encoding: 188 188 157
Width: 675
Flags: W
LayerCount: 2
Fore
SplineSet
450 300 m 1,0,-1
 375 300 l 1,1,-1
 375 150 l 1,2,-1
 300 150 l 1,3,-1
 300 0 l 1,4,-1
 225 0 l 1,5,-1
 225 225 l 1,6,-1
 300 225 l 1,7,-1
 300 375 l 1,8,-1
 375 375 l 1,9,-1
 375 525 l 1,10,-1
 450 525 l 1,11,-1
 450 675 l 1,12,-1
 525 675 l 1,13,-1
 525 450 l 1,14,-1
 450 450 l 1,15,-1
 450 300 l 1,16,-1
 525 300 l 1,17,-1
 525 150 l 1,18,-1
 600 150 l 1,19,-1
 600 300 l 1,20,-1
 675 300 l 1,21,-1
 675 0 l 1,22,-1
 600 0 l 1,23,-1
 600 75 l 1,24,-1
 450 75 l 1,25,-1
 450 300 l 1,0,-1
75 675 m 1,26,-1
 225 675 l 1,27,-1
 225 375 l 1,28,-1
 150 375 l 1,29,-1
 150 600 l 1,30,-1
 75 600 l 1,31,-1
 75 675 l 1,26,-1
EndSplineSet
EndChar

StartChar: onehalf
Encoding: 189 189 158
Width: 675
Flags: W
LayerCount: 2
Fore
SplineSet
450 300 m 1,0,-1
 375 300 l 1,1,-1
 375 150 l 1,2,-1
 300 150 l 1,3,-1
 300 0 l 1,4,-1
 225 0 l 1,5,-1
 225 225 l 1,6,-1
 300 225 l 1,7,-1
 300 375 l 1,8,-1
 375 375 l 1,9,-1
 375 525 l 1,10,-1
 450 525 l 1,11,-1
 450 675 l 1,12,-1
 525 675 l 1,13,-1
 525 450 l 1,14,-1
 450 450 l 1,15,-1
 450 300 l 1,16,-1
 675 300 l 1,17,-1
 675 150 l 1,18,-1
 600 150 l 1,19,-1
 600 225 l 1,20,-1
 450 225 l 1,21,-1
 450 300 l 1,0,-1
75 675 m 1,22,-1
 225 675 l 1,23,-1
 225 375 l 1,24,-1
 150 375 l 1,25,-1
 150 600 l 1,26,-1
 75 600 l 1,27,-1
 75 675 l 1,22,-1
450 75 m 1,28,-1
 525 75 l 1,29,-1
 525 150 l 1,30,-1
 600 150 l 1,31,-1
 600 75 l 1,32,-1
 675 75 l 1,33,-1
 675 0 l 1,34,-1
 450 0 l 1,35,-1
 450 75 l 1,28,-1
EndSplineSet
EndChar

StartChar: threequarters
Encoding: 190 190 159
Width: 675
Flags: W
LayerCount: 2
Fore
SplineSet
450 300 m 1,0,-1
 375 300 l 1,1,-1
 375 150 l 1,2,-1
 300 150 l 1,3,-1
 300 0 l 1,4,-1
 225 0 l 1,5,-1
 225 225 l 1,6,-1
 300 225 l 1,7,-1
 300 375 l 1,8,-1
 75 375 l 1,9,-1
 75 450 l 1,10,-1
 225 450 l 1,11,-1
 225 525 l 1,12,-1
 150 525 l 1,13,-1
 150 600 l 1,14,-1
 75 600 l 1,15,-1
 75 675 l 1,16,-1
 300 675 l 1,17,-1
 300 375 l 1,18,-1
 375 375 l 1,19,-1
 375 525 l 1,20,-1
 450 525 l 1,21,-1
 450 675 l 1,22,-1
 525 675 l 1,23,-1
 525 450 l 1,24,-1
 450 450 l 1,25,-1
 450 300 l 1,26,-1
 525 300 l 1,27,-1
 525 150 l 1,28,-1
 600 150 l 1,29,-1
 600 300 l 1,30,-1
 675 300 l 1,31,-1
 675 0 l 1,32,-1
 600 0 l 1,33,-1
 600 75 l 1,34,-1
 450 75 l 1,35,-1
 450 300 l 1,0,-1
EndSplineSet
EndChar

StartChar: questiondown
Encoding: 191 191 160
Width: 525
Flags: W
LayerCount: 2
Fore
SplineSet
75 300 m 1,0,-1
 150 300 l 1,1,-1
 150 375 l 1,2,-1
 225 375 l 1,3,-1
 225 450 l 1,4,-1
 375 450 l 1,5,-1
 375 375 l 1,6,-1
 300 375 l 1,7,-1
 300 300 l 1,8,-1
 225 300 l 1,9,-1
 225 75 l 1,10,-1
 375 75 l 1,11,-1
 375 225 l 1,12,-1
 525 225 l 1,13,-1
 525 75 l 1,14,-1
 450 75 l 1,15,-1
 450 0 l 1,16,-1
 150 0 l 1,17,-1
 150 75 l 1,18,-1
 75 75 l 1,19,-1
 75 300 l 1,0,-1
225 675 m 1,20,-1
 375 675 l 1,21,-1
 375 525 l 1,22,-1
 225 525 l 1,23,-1
 225 675 l 1,20,-1
EndSplineSet
EndChar

StartChar: Agrave
Encoding: 192 192 161
Width: 525
Flags: W
LayerCount: 2
Fore
SplineSet
225 0 m 1,0,-1
 150 0 l 1,1,-1
 150 75 l 1,2,-1
 75 75 l 1,3,-1
 75 600 l 1,4,-1
 150 600 l 1,5,-1
 150 675 l 1,6,-1
 450 675 l 1,7,-1
 450 600 l 1,8,-1
 525 600 l 1,9,-1
 525 75 l 1,10,-1
 450 75 l 1,11,-1
 450 0 l 1,12,-1
 375 0 l 1,13,-1
 375 300 l 1,14,-1
 225 300 l 1,15,-1
 225 0 l 1,0,-1
225 375 m 1,16,-1
 375 375 l 1,17,-1
 375 600 l 1,18,-1
 225 600 l 1,19,-1
 225 375 l 1,16,-1
150 900 m 1,20,-1
 300 900 l 1,21,-1
 300 825 l 1,22,-1
 375 825 l 1,23,-1
 375 750 l 1,24,-1
 225 750 l 1,25,-1
 225 825 l 1,26,-1
 150 825 l 1,27,-1
 150 900 l 1,20,-1
EndSplineSet
EndChar

StartChar: Aacute
Encoding: 193 193 162
Width: 525
Flags: W
LayerCount: 2
Fore
SplineSet
225 0 m 1,0,-1
 150 0 l 1,1,-1
 150 75 l 1,2,-1
 75 75 l 1,3,-1
 75 600 l 1,4,-1
 150 600 l 1,5,-1
 150 675 l 1,6,-1
 450 675 l 1,7,-1
 450 600 l 1,8,-1
 525 600 l 1,9,-1
 525 75 l 1,10,-1
 450 75 l 1,11,-1
 450 0 l 1,12,-1
 375 0 l 1,13,-1
 375 300 l 1,14,-1
 225 300 l 1,15,-1
 225 0 l 1,0,-1
225 375 m 1,16,-1
 375 375 l 1,17,-1
 375 600 l 1,18,-1
 225 600 l 1,19,-1
 225 375 l 1,16,-1
300 900 m 1,20,-1
 450 900 l 1,21,-1
 450 825 l 1,22,-1
 375 825 l 1,23,-1
 375 750 l 1,24,-1
 225 750 l 1,25,-1
 225 825 l 1,26,-1
 300 825 l 1,27,-1
 300 900 l 1,20,-1
EndSplineSet
EndChar

StartChar: Acircumflex
Encoding: 194 194 163
Width: 525
Flags: W
LayerCount: 2
Fore
SplineSet
225 0 m 1,0,-1
 150 0 l 1,1,-1
 150 75 l 1,2,-1
 75 75 l 1,3,-1
 75 600 l 1,4,-1
 150 600 l 1,5,-1
 150 675 l 1,6,-1
 450 675 l 1,7,-1
 450 600 l 1,8,-1
 525 600 l 1,9,-1
 525 75 l 1,10,-1
 450 75 l 1,11,-1
 450 0 l 1,12,-1
 375 0 l 1,13,-1
 375 300 l 1,14,-1
 225 300 l 1,15,-1
 225 0 l 1,0,-1
225 375 m 1,16,-1
 375 375 l 1,17,-1
 375 600 l 1,18,-1
 225 600 l 1,19,-1
 225 375 l 1,16,-1
225 900 m 1,20,-1
 375 900 l 1,21,-1
 375 825 l 1,22,-1
 450 825 l 1,23,-1
 450 750 l 1,24,-1
 375 750 l 1,25,-1
 375 825 l 1,26,-1
 225 825 l 1,27,-1
 225 900 l 1,20,-1
150 825 m 1,28,-1
 225 825 l 1,29,-1
 225 750 l 1,30,-1
 150 750 l 1,31,-1
 150 825 l 1,28,-1
EndSplineSet
EndChar

StartChar: Atilde
Encoding: 195 195 164
Width: 525
Flags: W
LayerCount: 2
Fore
SplineSet
225 0 m 1,0,-1
 150 0 l 1,1,-1
 150 75 l 1,2,-1
 75 75 l 1,3,-1
 75 600 l 1,4,-1
 150 600 l 1,5,-1
 150 675 l 1,6,-1
 450 675 l 1,7,-1
 450 600 l 1,8,-1
 525 600 l 1,9,-1
 525 75 l 1,10,-1
 450 75 l 1,11,-1
 450 0 l 1,12,-1
 375 0 l 1,13,-1
 375 300 l 1,14,-1
 225 300 l 1,15,-1
 225 0 l 1,0,-1
225 375 m 1,16,-1
 375 375 l 1,17,-1
 375 600 l 1,18,-1
 225 600 l 1,19,-1
 225 375 l 1,16,-1
225 750 m 1,20,-1
 150 750 l 1,21,-1
 150 900 l 1,22,-1
 300 900 l 1,23,-1
 300 825 l 1,24,-1
 375 825 l 1,25,-1
 375 900 l 1,26,-1
 450 900 l 1,27,-1
 450 750 l 1,28,-1
 300 750 l 1,29,-1
 300 825 l 1,30,-1
 225 825 l 1,31,-1
 225 750 l 1,20,-1
EndSplineSet
EndChar

StartChar: Adieresis
Encoding: 196 196 165
Width: 525
Flags: W
LayerCount: 2
Fore
SplineSet
225 0 m 1,0,-1
 150 0 l 1,1,-1
 150 75 l 1,2,-1
 75 75 l 1,3,-1
 75 600 l 1,4,-1
 150 600 l 1,5,-1
 150 675 l 1,6,-1
 450 675 l 1,7,-1
 450 600 l 1,8,-1
 525 600 l 1,9,-1
 525 75 l 1,10,-1
 450 75 l 1,11,-1
 450 0 l 1,12,-1
 375 0 l 1,13,-1
 375 300 l 1,14,-1
 225 300 l 1,15,-1
 225 0 l 1,0,-1
225 375 m 1,16,-1
 375 375 l 1,17,-1
 375 600 l 1,18,-1
 225 600 l 1,19,-1
 225 375 l 1,16,-1
375 900 m 1,20,-1
 525 900 l 1,21,-1
 525 750 l 1,22,-1
 375 750 l 1,23,-1
 375 900 l 1,20,-1
75 900 m 1,24,-1
 225 900 l 1,25,-1
 225 750 l 1,26,-1
 75 750 l 1,27,-1
 75 900 l 1,24,-1
EndSplineSet
EndChar

StartChar: Aring
Encoding: 197 197 166
Width: 525
Flags: W
LayerCount: 2
Fore
SplineSet
150 825 m 1,0,-1
 225 825 l 1,1,-1
 225 750 l 1,2,-1
 375 750 l 1,3,-1
 375 675 l 1,4,-1
 450 675 l 1,5,-1
 450 600 l 1,6,-1
 525 600 l 1,7,-1
 525 75 l 1,8,-1
 450 75 l 1,9,-1
 450 0 l 1,10,-1
 375 0 l 1,11,-1
 375 300 l 1,12,-1
 225 300 l 1,13,-1
 225 0 l 1,14,-1
 150 0 l 1,15,-1
 150 75 l 1,16,-1
 75 75 l 1,17,-1
 75 600 l 1,18,-1
 150 600 l 1,19,-1
 150 675 l 1,20,-1
 225 675 l 1,21,-1
 225 750 l 1,22,-1
 150 750 l 1,23,-1
 150 825 l 1,0,-1
225 375 m 1,24,-1
 375 375 l 1,25,-1
 375 600 l 1,26,-1
 225 600 l 1,27,-1
 225 375 l 1,24,-1
375 825 m 1,28,-1
 225 825 l 1,29,-1
 225 900 l 1,30,-1
 375 900 l 1,31,-1
 375 825 l 1,32,-1
 450 825 l 1,33,-1
 450 750 l 1,34,-1
 375 750 l 1,35,-1
 375 825 l 1,28,-1
EndSplineSet
EndChar

StartChar: AE
Encoding: 198 198 167
Width: 825
Flags: W
LayerCount: 2
Fore
SplineSet
375 300 m 1,0,-1
 225 300 l 1,1,-1
 225 0 l 1,2,-1
 150 0 l 1,3,-1
 150 75 l 1,4,-1
 75 75 l 1,5,-1
 75 600 l 1,6,-1
 150 600 l 1,7,-1
 150 675 l 1,8,-1
 825 675 l 1,9,-1
 825 600 l 1,10,-1
 525 600 l 1,11,-1
 525 375 l 1,12,-1
 675 375 l 1,13,-1
 675 300 l 1,14,-1
 525 300 l 1,15,-1
 525 75 l 1,16,-1
 825 75 l 1,17,-1
 825 0 l 1,18,-1
 375 0 l 1,19,-1
 375 300 l 1,0,-1
225 375 m 1,20,-1
 375 375 l 1,21,-1
 375 600 l 1,22,-1
 225 600 l 1,23,-1
 225 375 l 1,20,-1
EndSplineSet
EndChar

StartChar: Ccedilla
Encoding: 199 199 168
Width: 525
Flags: W
LayerCount: 2
Fore
SplineSet
150 75 m 1,0,-1
 75 75 l 1,1,-1
 75 600 l 1,2,-1
 150 600 l 1,3,-1
 150 675 l 1,4,-1
 450 675 l 1,5,-1
 450 600 l 1,6,-1
 525 600 l 1,7,-1
 525 450 l 1,8,-1
 375 450 l 1,9,-1
 375 600 l 1,10,-1
 225 600 l 1,11,-1
 225 75 l 1,12,-1
 375 75 l 1,13,-1
 375 225 l 1,14,-1
 525 225 l 1,15,-1
 525 75 l 1,16,-1
 450 75 l 1,17,-1
 450 0 l 1,18,-1
 375 0 l 1,19,-1
 375 -74 l 1,20,-1
 300 -74 l 1,21,-1
 300 -149 l 1,22,-1
 150 -149 l 1,23,-1
 150 -74 l 1,24,-1
 225 -74 l 1,25,-1
 225 0 l 1,26,-1
 150 0 l 1,27,-1
 150 75 l 1,0,-1
EndSplineSet
EndChar

StartChar: Egrave
Encoding: 200 200 169
Width: 525
Flags: W
LayerCount: 2
Fore
SplineSet
150 75 m 1,0,-1
 75 75 l 1,1,-1
 75 600 l 1,2,-1
 150 600 l 1,3,-1
 150 675 l 1,4,-1
 525 675 l 1,5,-1
 525 600 l 1,6,-1
 225 600 l 1,7,-1
 225 375 l 1,8,-1
 375 375 l 1,9,-1
 375 300 l 1,10,-1
 225 300 l 1,11,-1
 225 75 l 1,12,-1
 525 75 l 1,13,-1
 525 0 l 1,14,-1
 150 0 l 1,15,-1
 150 75 l 1,0,-1
150 900 m 1,16,-1
 300 900 l 1,17,-1
 300 825 l 1,18,-1
 375 825 l 1,19,-1
 375 750 l 1,20,-1
 225 750 l 1,21,-1
 225 825 l 1,22,-1
 150 825 l 1,23,-1
 150 900 l 1,16,-1
EndSplineSet
EndChar

StartChar: Eacute
Encoding: 201 201 170
Width: 525
Flags: W
LayerCount: 2
Fore
SplineSet
150 75 m 1,0,-1
 75 75 l 1,1,-1
 75 600 l 1,2,-1
 150 600 l 1,3,-1
 150 675 l 1,4,-1
 525 675 l 1,5,-1
 525 600 l 1,6,-1
 225 600 l 1,7,-1
 225 375 l 1,8,-1
 375 375 l 1,9,-1
 375 300 l 1,10,-1
 225 300 l 1,11,-1
 225 75 l 1,12,-1
 525 75 l 1,13,-1
 525 0 l 1,14,-1
 150 0 l 1,15,-1
 150 75 l 1,0,-1
300 900 m 1,16,-1
 450 900 l 1,17,-1
 450 825 l 1,18,-1
 375 825 l 1,19,-1
 375 750 l 1,20,-1
 225 750 l 1,21,-1
 225 825 l 1,22,-1
 300 825 l 1,23,-1
 300 900 l 1,16,-1
EndSplineSet
EndChar

StartChar: Ecircumflex
Encoding: 202 202 171
Width: 525
Flags: W
LayerCount: 2
Fore
SplineSet
150 75 m 1,0,-1
 75 75 l 1,1,-1
 75 600 l 1,2,-1
 150 600 l 1,3,-1
 150 675 l 1,4,-1
 525 675 l 1,5,-1
 525 600 l 1,6,-1
 225 600 l 1,7,-1
 225 375 l 1,8,-1
 375 375 l 1,9,-1
 375 300 l 1,10,-1
 225 300 l 1,11,-1
 225 75 l 1,12,-1
 525 75 l 1,13,-1
 525 0 l 1,14,-1
 150 0 l 1,15,-1
 150 75 l 1,0,-1
225 900 m 1,16,-1
 375 900 l 1,17,-1
 375 825 l 1,18,-1
 450 825 l 1,19,-1
 450 750 l 1,20,-1
 375 750 l 1,21,-1
 375 825 l 1,22,-1
 225 825 l 1,23,-1
 225 900 l 1,16,-1
150 825 m 1,24,-1
 225 825 l 1,25,-1
 225 750 l 1,26,-1
 150 750 l 1,27,-1
 150 825 l 1,24,-1
EndSplineSet
EndChar

StartChar: Edieresis
Encoding: 203 203 172
Width: 525
Flags: W
LayerCount: 2
Fore
SplineSet
150 75 m 1,0,-1
 75 75 l 1,1,-1
 75 600 l 1,2,-1
 150 600 l 1,3,-1
 150 675 l 1,4,-1
 525 675 l 1,5,-1
 525 600 l 1,6,-1
 225 600 l 1,7,-1
 225 375 l 1,8,-1
 375 375 l 1,9,-1
 375 300 l 1,10,-1
 225 300 l 1,11,-1
 225 75 l 1,12,-1
 525 75 l 1,13,-1
 525 0 l 1,14,-1
 150 0 l 1,15,-1
 150 75 l 1,0,-1
375 900 m 1,16,-1
 525 900 l 1,17,-1
 525 750 l 1,18,-1
 375 750 l 1,19,-1
 375 900 l 1,16,-1
75 900 m 1,20,-1
 225 900 l 1,21,-1
 225 750 l 1,22,-1
 75 750 l 1,23,-1
 75 900 l 1,20,-1
EndSplineSet
EndChar

StartChar: Igrave
Encoding: 204 204 173
Width: 525
Flags: W
LayerCount: 2
Fore
SplineSet
75 675 m 1,0,-1
 525 675 l 1,1,-1
 525 600 l 1,2,-1
 375 600 l 1,3,-1
 375 75 l 1,4,-1
 525 75 l 1,5,-1
 525 0 l 1,6,-1
 75 0 l 1,7,-1
 75 75 l 1,8,-1
 225 75 l 1,9,-1
 225 600 l 1,10,-1
 75 600 l 1,11,-1
 75 675 l 1,0,-1
150 900 m 1,12,-1
 300 900 l 1,13,-1
 300 825 l 1,14,-1
 375 825 l 1,15,-1
 375 750 l 1,16,-1
 225 750 l 1,17,-1
 225 825 l 1,18,-1
 150 825 l 1,19,-1
 150 900 l 1,12,-1
EndSplineSet
EndChar

StartChar: Iacute
Encoding: 205 205 174
Width: 525
Flags: W
LayerCount: 2
Fore
SplineSet
75 675 m 1,0,-1
 525 675 l 1,1,-1
 525 600 l 1,2,-1
 375 600 l 1,3,-1
 375 75 l 1,4,-1
 525 75 l 1,5,-1
 525 0 l 1,6,-1
 75 0 l 1,7,-1
 75 75 l 1,8,-1
 225 75 l 1,9,-1
 225 600 l 1,10,-1
 75 600 l 1,11,-1
 75 675 l 1,0,-1
300 900 m 1,12,-1
 450 900 l 1,13,-1
 450 825 l 1,14,-1
 375 825 l 1,15,-1
 375 750 l 1,16,-1
 225 750 l 1,17,-1
 225 825 l 1,18,-1
 300 825 l 1,19,-1
 300 900 l 1,12,-1
EndSplineSet
EndChar

StartChar: Icircumflex
Encoding: 206 206 175
Width: 525
Flags: W
LayerCount: 2
Fore
SplineSet
75 675 m 1,0,-1
 525 675 l 1,1,-1
 525 600 l 1,2,-1
 375 600 l 1,3,-1
 375 75 l 1,4,-1
 525 75 l 1,5,-1
 525 0 l 1,6,-1
 75 0 l 1,7,-1
 75 75 l 1,8,-1
 225 75 l 1,9,-1
 225 600 l 1,10,-1
 75 600 l 1,11,-1
 75 675 l 1,0,-1
225 900 m 1,12,-1
 375 900 l 1,13,-1
 375 825 l 1,14,-1
 450 825 l 1,15,-1
 450 750 l 1,16,-1
 375 750 l 1,17,-1
 375 825 l 1,18,-1
 225 825 l 1,19,-1
 225 900 l 1,12,-1
150 825 m 1,20,-1
 225 825 l 1,21,-1
 225 750 l 1,22,-1
 150 750 l 1,23,-1
 150 825 l 1,20,-1
EndSplineSet
EndChar

StartChar: Idieresis
Encoding: 207 207 176
Width: 525
Flags: W
LayerCount: 2
Fore
SplineSet
75 675 m 1,0,-1
 525 675 l 1,1,-1
 525 600 l 1,2,-1
 375 600 l 1,3,-1
 375 75 l 1,4,-1
 525 75 l 1,5,-1
 525 0 l 1,6,-1
 75 0 l 1,7,-1
 75 75 l 1,8,-1
 225 75 l 1,9,-1
 225 600 l 1,10,-1
 75 600 l 1,11,-1
 75 675 l 1,0,-1
75 900 m 1,12,-1
 225 900 l 1,13,-1
 225 750 l 1,14,-1
 75 750 l 1,15,-1
 75 900 l 1,12,-1
375 900 m 1,16,-1
 525 900 l 1,17,-1
 525 750 l 1,18,-1
 375 750 l 1,19,-1
 375 900 l 1,16,-1
EndSplineSet
EndChar

StartChar: Eth
Encoding: 208 208 177
Width: 600
Flags: W
LayerCount: 2
Fore
SplineSet
75 375 m 1,0,-1
 150 375 l 1,1,-1
 150 600 l 1,2,-1
 225 600 l 1,3,-1
 225 675 l 1,4,-1
 450 675 l 1,5,-1
 450 600 l 1,6,-1
 525 600 l 1,7,-1
 525 450 l 1,8,-1
 600 450 l 1,9,-1
 600 75 l 1,10,-1
 525 75 l 1,11,-1
 525 0 l 1,12,-1
 225 0 l 1,13,-1
 225 75 l 1,14,-1
 150 75 l 1,15,-1
 150 300 l 1,16,-1
 75 300 l 1,17,-1
 75 375 l 1,0,-1
300 75 m 1,18,-1
 450 75 l 1,19,-1
 450 450 l 1,20,-1
 375 450 l 1,21,-1
 375 600 l 1,22,-1
 300 600 l 1,23,-1
 300 375 l 1,24,-1
 375 375 l 1,25,-1
 375 300 l 1,26,-1
 300 300 l 1,27,-1
 300 75 l 1,18,-1
EndSplineSet
EndChar

StartChar: Ntilde
Encoding: 209 209 178
Width: 525
Flags: W
LayerCount: 2
Fore
SplineSet
225 0 m 1,0,-1
 150 0 l 1,1,-1
 150 75 l 1,2,-1
 75 75 l 1,3,-1
 75 600 l 1,4,-1
 150 600 l 1,5,-1
 150 675 l 1,6,-1
 225 675 l 1,7,-1
 225 525 l 1,8,-1
 300 525 l 1,9,-1
 300 450 l 1,10,-1
 375 450 l 1,11,-1
 375 675 l 1,12,-1
 450 675 l 1,13,-1
 450 600 l 1,14,-1
 525 600 l 1,15,-1
 525 75 l 1,16,-1
 450 75 l 1,17,-1
 450 0 l 1,18,-1
 375 0 l 1,19,-1
 375 300 l 1,20,-1
 300 300 l 1,21,-1
 300 375 l 1,22,-1
 225 375 l 1,23,-1
 225 0 l 1,0,-1
225 750 m 1,24,-1
 150 750 l 1,25,-1
 150 900 l 1,26,-1
 300 900 l 1,27,-1
 300 825 l 1,28,-1
 375 825 l 1,29,-1
 375 900 l 1,30,-1
 450 900 l 1,31,-1
 450 750 l 1,32,-1
 300 750 l 1,33,-1
 300 825 l 1,34,-1
 225 825 l 1,35,-1
 225 750 l 1,24,-1
EndSplineSet
EndChar

StartChar: Ograve
Encoding: 210 210 179
Width: 525
Flags: W
LayerCount: 2
Fore
SplineSet
150 75 m 1,0,-1
 75 75 l 1,1,-1
 75 600 l 1,2,-1
 150 600 l 1,3,-1
 150 675 l 1,4,-1
 450 675 l 1,5,-1
 450 600 l 1,6,-1
 525 600 l 1,7,-1
 525 75 l 1,8,-1
 450 75 l 1,9,-1
 450 0 l 1,10,-1
 150 0 l 1,11,-1
 150 75 l 1,0,-1
225 75 m 1,12,-1
 375 75 l 1,13,-1
 375 600 l 1,14,-1
 225 600 l 1,15,-1
 225 75 l 1,12,-1
150 900 m 1,16,-1
 300 900 l 1,17,-1
 300 825 l 1,18,-1
 375 825 l 1,19,-1
 375 750 l 1,20,-1
 225 750 l 1,21,-1
 225 825 l 1,22,-1
 150 825 l 1,23,-1
 150 900 l 1,16,-1
EndSplineSet
EndChar

StartChar: Oacute
Encoding: 211 211 180
Width: 525
Flags: W
LayerCount: 2
Fore
SplineSet
150 75 m 1,0,-1
 75 75 l 1,1,-1
 75 600 l 1,2,-1
 150 600 l 1,3,-1
 150 675 l 1,4,-1
 450 675 l 1,5,-1
 450 600 l 1,6,-1
 525 600 l 1,7,-1
 525 75 l 1,8,-1
 450 75 l 1,9,-1
 450 0 l 1,10,-1
 150 0 l 1,11,-1
 150 75 l 1,0,-1
225 75 m 1,12,-1
 375 75 l 1,13,-1
 375 600 l 1,14,-1
 225 600 l 1,15,-1
 225 75 l 1,12,-1
300 900 m 1,16,-1
 450 900 l 1,17,-1
 450 825 l 1,18,-1
 375 825 l 1,19,-1
 375 750 l 1,20,-1
 225 750 l 1,21,-1
 225 825 l 1,22,-1
 300 825 l 1,23,-1
 300 900 l 1,16,-1
EndSplineSet
EndChar

StartChar: Ocircumflex
Encoding: 212 212 181
Width: 525
Flags: W
LayerCount: 2
Fore
SplineSet
150 75 m 1,0,-1
 75 75 l 1,1,-1
 75 600 l 1,2,-1
 150 600 l 1,3,-1
 150 675 l 1,4,-1
 450 675 l 1,5,-1
 450 600 l 1,6,-1
 525 600 l 1,7,-1
 525 75 l 1,8,-1
 450 75 l 1,9,-1
 450 0 l 1,10,-1
 150 0 l 1,11,-1
 150 75 l 1,0,-1
225 75 m 1,12,-1
 375 75 l 1,13,-1
 375 600 l 1,14,-1
 225 600 l 1,15,-1
 225 75 l 1,12,-1
225 900 m 1,16,-1
 375 900 l 1,17,-1
 375 825 l 1,18,-1
 450 825 l 1,19,-1
 450 750 l 1,20,-1
 375 750 l 1,21,-1
 375 825 l 1,22,-1
 225 825 l 1,23,-1
 225 900 l 1,16,-1
150 825 m 1,24,-1
 225 825 l 1,25,-1
 225 750 l 1,26,-1
 150 750 l 1,27,-1
 150 825 l 1,24,-1
EndSplineSet
EndChar

StartChar: Otilde
Encoding: 213 213 182
Width: 525
Flags: W
LayerCount: 2
Fore
SplineSet
150 75 m 1,0,-1
 75 75 l 1,1,-1
 75 600 l 1,2,-1
 150 600 l 1,3,-1
 150 675 l 1,4,-1
 450 675 l 1,5,-1
 450 600 l 1,6,-1
 525 600 l 1,7,-1
 525 75 l 1,8,-1
 450 75 l 1,9,-1
 450 0 l 1,10,-1
 150 0 l 1,11,-1
 150 75 l 1,0,-1
225 75 m 1,12,-1
 375 75 l 1,13,-1
 375 600 l 1,14,-1
 225 600 l 1,15,-1
 225 75 l 1,12,-1
225 750 m 1,16,-1
 150 750 l 1,17,-1
 150 900 l 1,18,-1
 300 900 l 1,19,-1
 300 825 l 1,20,-1
 375 825 l 1,21,-1
 375 900 l 1,22,-1
 450 900 l 1,23,-1
 450 750 l 1,24,-1
 300 750 l 1,25,-1
 300 825 l 1,26,-1
 225 825 l 1,27,-1
 225 750 l 1,16,-1
EndSplineSet
EndChar

StartChar: Odieresis
Encoding: 214 214 183
Width: 525
Flags: W
LayerCount: 2
Fore
SplineSet
150 75 m 1,0,-1
 75 75 l 1,1,-1
 75 600 l 1,2,-1
 150 600 l 1,3,-1
 150 675 l 1,4,-1
 450 675 l 1,5,-1
 450 600 l 1,6,-1
 525 600 l 1,7,-1
 525 75 l 1,8,-1
 450 75 l 1,9,-1
 450 0 l 1,10,-1
 150 0 l 1,11,-1
 150 75 l 1,0,-1
225 75 m 1,12,-1
 375 75 l 1,13,-1
 375 600 l 1,14,-1
 225 600 l 1,15,-1
 225 75 l 1,12,-1
375 900 m 1,16,-1
 525 900 l 1,17,-1
 525 750 l 1,18,-1
 375 750 l 1,19,-1
 375 900 l 1,16,-1
75 900 m 1,20,-1
 225 900 l 1,21,-1
 225 750 l 1,22,-1
 75 750 l 1,23,-1
 75 900 l 1,20,-1
EndSplineSet
EndChar

StartChar: multiply
Encoding: 215 215 184
Width: 525
Flags: W
LayerCount: 2
Fore
SplineSet
375 225 m 1,0,-1
 225 225 l 1,1,-1
 225 150 l 1,2,-1
 75 150 l 1,3,-1
 75 225 l 1,4,-1
 150 225 l 1,5,-1
 150 300 l 1,6,-1
 225 300 l 1,7,-1
 225 375 l 1,8,-1
 150 375 l 1,9,-1
 150 450 l 1,10,-1
 75 450 l 1,11,-1
 75 525 l 1,12,-1
 225 525 l 1,13,-1
 225 450 l 1,14,-1
 375 450 l 1,15,-1
 375 525 l 1,16,-1
 525 525 l 1,17,-1
 525 450 l 1,18,-1
 450 450 l 1,19,-1
 450 375 l 1,20,-1
 375 375 l 1,21,-1
 375 300 l 1,22,-1
 450 300 l 1,23,-1
 450 225 l 1,24,-1
 525 225 l 1,25,-1
 525 150 l 1,26,-1
 375 150 l 1,27,-1
 375 225 l 1,0,-1
EndSplineSet
EndChar

StartChar: Oslash
Encoding: 216 216 185
Width: 675
Flags: W
LayerCount: 2
Fore
SplineSet
600 75 m 1,0,-1
 525 75 l 1,1,-1
 525 0 l 1,2,-1
 150 0 l 1,3,-1
 150 -74 l 1,4,-1
 75 -74 l 1,5,-1
 75 75 l 1,6,-1
 150 75 l 1,7,-1
 150 600 l 1,8,-1
 225 600 l 1,9,-1
 225 675 l 1,10,-1
 600 675 l 1,11,-1
 600 750 l 1,12,-1
 675 750 l 1,13,-1
 675 600 l 1,14,-1
 600 600 l 1,15,-1
 600 75 l 1,0,-1
300 375 m 1,16,-1
 375 375 l 1,17,-1
 375 525 l 1,18,-1
 450 525 l 1,19,-1
 450 600 l 1,20,-1
 300 600 l 1,21,-1
 300 375 l 1,16,-1
300 75 m 1,22,-1
 450 75 l 1,23,-1
 450 300 l 1,24,-1
 375 300 l 1,25,-1
 375 150 l 1,26,-1
 300 150 l 1,27,-1
 300 75 l 1,22,-1
EndSplineSet
EndChar

StartChar: Ugrave
Encoding: 217 217 186
Width: 525
Flags: W
LayerCount: 2
Fore
SplineSet
150 75 m 1,0,-1
 75 75 l 1,1,-1
 75 600 l 1,2,-1
 150 600 l 1,3,-1
 150 675 l 1,4,-1
 225 675 l 1,5,-1
 225 75 l 1,6,-1
 375 75 l 1,7,-1
 375 675 l 1,8,-1
 450 675 l 1,9,-1
 450 600 l 1,10,-1
 525 600 l 1,11,-1
 525 75 l 1,12,-1
 450 75 l 1,13,-1
 450 0 l 1,14,-1
 150 0 l 1,15,-1
 150 75 l 1,0,-1
150 900 m 1,16,-1
 300 900 l 1,17,-1
 300 825 l 1,18,-1
 375 825 l 1,19,-1
 375 750 l 1,20,-1
 225 750 l 1,21,-1
 225 825 l 1,22,-1
 150 825 l 1,23,-1
 150 900 l 1,16,-1
EndSplineSet
EndChar

StartChar: Uacute
Encoding: 218 218 187
Width: 525
Flags: W
LayerCount: 2
Fore
SplineSet
150 75 m 1,0,-1
 75 75 l 1,1,-1
 75 600 l 1,2,-1
 150 600 l 1,3,-1
 150 675 l 1,4,-1
 225 675 l 1,5,-1
 225 75 l 1,6,-1
 375 75 l 1,7,-1
 375 675 l 1,8,-1
 450 675 l 1,9,-1
 450 600 l 1,10,-1
 525 600 l 1,11,-1
 525 75 l 1,12,-1
 450 75 l 1,13,-1
 450 0 l 1,14,-1
 150 0 l 1,15,-1
 150 75 l 1,0,-1
300 900 m 1,16,-1
 450 900 l 1,17,-1
 450 825 l 1,18,-1
 375 825 l 1,19,-1
 375 750 l 1,20,-1
 225 750 l 1,21,-1
 225 825 l 1,22,-1
 300 825 l 1,23,-1
 300 900 l 1,16,-1
EndSplineSet
EndChar

StartChar: Ucircumflex
Encoding: 219 219 188
Width: 525
Flags: W
LayerCount: 2
Fore
SplineSet
150 75 m 1,0,-1
 75 75 l 1,1,-1
 75 600 l 1,2,-1
 150 600 l 1,3,-1
 150 675 l 1,4,-1
 225 675 l 1,5,-1
 225 75 l 1,6,-1
 375 75 l 1,7,-1
 375 675 l 1,8,-1
 450 675 l 1,9,-1
 450 600 l 1,10,-1
 525 600 l 1,11,-1
 525 75 l 1,12,-1
 450 75 l 1,13,-1
 450 0 l 1,14,-1
 150 0 l 1,15,-1
 150 75 l 1,0,-1
225 900 m 1,16,-1
 375 900 l 1,17,-1
 375 825 l 1,18,-1
 450 825 l 1,19,-1
 450 750 l 1,20,-1
 375 750 l 1,21,-1
 375 825 l 1,22,-1
 225 825 l 1,23,-1
 225 900 l 1,16,-1
150 825 m 1,24,-1
 225 825 l 1,25,-1
 225 750 l 1,26,-1
 150 750 l 1,27,-1
 150 825 l 1,24,-1
EndSplineSet
EndChar

StartChar: Udieresis
Encoding: 220 220 189
Width: 525
Flags: W
LayerCount: 2
Fore
SplineSet
150 75 m 1,0,-1
 75 75 l 1,1,-1
 75 600 l 1,2,-1
 150 600 l 1,3,-1
 150 675 l 1,4,-1
 225 675 l 1,5,-1
 225 75 l 1,6,-1
 375 75 l 1,7,-1
 375 675 l 1,8,-1
 450 675 l 1,9,-1
 450 600 l 1,10,-1
 525 600 l 1,11,-1
 525 75 l 1,12,-1
 450 75 l 1,13,-1
 450 0 l 1,14,-1
 150 0 l 1,15,-1
 150 75 l 1,0,-1
375 900 m 1,16,-1
 525 900 l 1,17,-1
 525 750 l 1,18,-1
 375 750 l 1,19,-1
 375 900 l 1,16,-1
75 900 m 1,20,-1
 225 900 l 1,21,-1
 225 750 l 1,22,-1
 75 750 l 1,23,-1
 75 900 l 1,20,-1
EndSplineSet
EndChar

StartChar: Yacute
Encoding: 221 221 190
Width: 525
Flags: W
LayerCount: 2
Fore
SplineSet
225 300 m 1,0,-1
 150 300 l 1,1,-1
 150 375 l 1,2,-1
 75 375 l 1,3,-1
 75 600 l 1,4,-1
 150 600 l 1,5,-1
 150 675 l 1,6,-1
 225 675 l 1,7,-1
 225 375 l 1,8,-1
 375 375 l 1,9,-1
 375 675 l 1,10,-1
 450 675 l 1,11,-1
 450 600 l 1,12,-1
 525 600 l 1,13,-1
 525 375 l 1,14,-1
 450 375 l 1,15,-1
 450 300 l 1,16,-1
 375 300 l 1,17,-1
 375 0 l 1,18,-1
 225 0 l 1,19,-1
 225 300 l 1,0,-1
300 900 m 1,20,-1
 450 900 l 1,21,-1
 450 825 l 1,22,-1
 375 825 l 1,23,-1
 375 750 l 1,24,-1
 225 750 l 1,25,-1
 225 825 l 1,26,-1
 300 825 l 1,27,-1
 300 900 l 1,20,-1
EndSplineSet
EndChar

StartChar: Thorn
Encoding: 222 222 191
Width: 525
Flags: W
LayerCount: 2
Fore
SplineSet
225 0 m 1,0,-1
 75 0 l 1,1,-1
 75 675 l 1,2,-1
 225 675 l 1,3,-1
 225 525 l 1,4,-1
 450 525 l 1,5,-1
 450 450 l 1,6,-1
 525 450 l 1,7,-1
 525 225 l 1,8,-1
 450 225 l 1,9,-1
 450 150 l 1,10,-1
 225 150 l 1,11,-1
 225 0 l 1,0,-1
375 450 m 1,12,-1
 225 450 l 1,13,-1
 225 225 l 1,14,-1
 375 225 l 1,15,-1
 375 450 l 1,12,-1
EndSplineSet
EndChar

StartChar: germandbls
Encoding: 223 223 192
Width: 525
Flags: W
LayerCount: 2
Fore
SplineSet
225 0 m 1,0,-1
 150 0 l 1,1,-1
 150 75 l 1,2,-1
 75 75 l 1,3,-1
 75 600 l 1,4,-1
 150 600 l 1,5,-1
 150 675 l 1,6,-1
 450 675 l 1,7,-1
 450 600 l 1,8,-1
 525 600 l 1,9,-1
 525 375 l 1,10,-1
 450 375 l 1,11,-1
 450 300 l 1,12,-1
 525 300 l 1,13,-1
 525 75 l 1,14,-1
 450 75 l 1,15,-1
 450 0 l 1,16,-1
 300 0 l 1,17,-1
 300 75 l 1,18,-1
 375 75 l 1,19,-1
 375 300 l 1,20,-1
 300 300 l 1,21,-1
 300 375 l 1,22,-1
 375 375 l 1,23,-1
 375 600 l 1,24,-1
 225 600 l 1,25,-1
 225 0 l 1,0,-1
EndSplineSet
EndChar

StartChar: agrave
Encoding: 224 224 193
Width: 525
Flags: W
LayerCount: 2
Fore
SplineSet
225 75 m 1,0,-1
 375 75 l 1,1,-1
 375 0 l 1,2,-1
 150 0 l 1,3,-1
 150 75 l 1,4,-1
 75 75 l 1,5,-1
 75 300 l 1,6,-1
 150 300 l 1,7,-1
 150 375 l 1,8,-1
 450 375 l 1,9,-1
 450 300 l 1,10,-1
 525 300 l 1,11,-1
 525 0 l 1,12,-1
 450 0 l 1,13,-1
 450 75 l 1,14,-1
 375 75 l 1,15,-1
 375 300 l 1,16,-1
 225 300 l 1,17,-1
 225 75 l 1,0,-1
150 600 m 1,18,-1
 300 600 l 1,19,-1
 300 525 l 1,20,-1
 375 525 l 1,21,-1
 375 450 l 1,22,-1
 225 450 l 1,23,-1
 225 525 l 1,24,-1
 150 525 l 1,25,-1
 150 600 l 1,18,-1
EndSplineSet
EndChar

StartChar: aacute
Encoding: 225 225 194
Width: 525
Flags: W
LayerCount: 2
Fore
SplineSet
225 75 m 1,0,-1
 375 75 l 1,1,-1
 375 0 l 1,2,-1
 150 0 l 1,3,-1
 150 75 l 1,4,-1
 75 75 l 1,5,-1
 75 300 l 1,6,-1
 150 300 l 1,7,-1
 150 375 l 1,8,-1
 450 375 l 1,9,-1
 450 300 l 1,10,-1
 525 300 l 1,11,-1
 525 0 l 1,12,-1
 450 0 l 1,13,-1
 450 75 l 1,14,-1
 375 75 l 1,15,-1
 375 300 l 1,16,-1
 225 300 l 1,17,-1
 225 75 l 1,0,-1
300 600 m 1,18,-1
 450 600 l 1,19,-1
 450 525 l 1,20,-1
 375 525 l 1,21,-1
 375 450 l 1,22,-1
 225 450 l 1,23,-1
 225 525 l 1,24,-1
 300 525 l 1,25,-1
 300 600 l 1,18,-1
EndSplineSet
EndChar

StartChar: acircumflex
Encoding: 226 226 195
Width: 525
Flags: W
LayerCount: 2
Fore
SplineSet
225 75 m 1,0,-1
 375 75 l 1,1,-1
 375 0 l 1,2,-1
 150 0 l 1,3,-1
 150 75 l 1,4,-1
 75 75 l 1,5,-1
 75 300 l 1,6,-1
 150 300 l 1,7,-1
 150 375 l 1,8,-1
 450 375 l 1,9,-1
 450 300 l 1,10,-1
 525 300 l 1,11,-1
 525 0 l 1,12,-1
 450 0 l 1,13,-1
 450 75 l 1,14,-1
 375 75 l 1,15,-1
 375 300 l 1,16,-1
 225 300 l 1,17,-1
 225 75 l 1,0,-1
225 600 m 1,18,-1
 375 600 l 1,19,-1
 375 525 l 1,20,-1
 450 525 l 1,21,-1
 450 450 l 1,22,-1
 375 450 l 1,23,-1
 375 525 l 1,24,-1
 225 525 l 1,25,-1
 225 600 l 1,18,-1
150 525 m 1,26,-1
 225 525 l 1,27,-1
 225 450 l 1,28,-1
 150 450 l 1,29,-1
 150 525 l 1,26,-1
EndSplineSet
EndChar

StartChar: atilde
Encoding: 227 227 196
Width: 525
Flags: W
LayerCount: 2
Fore
SplineSet
225 75 m 1,0,-1
 375 75 l 1,1,-1
 375 0 l 1,2,-1
 150 0 l 1,3,-1
 150 75 l 1,4,-1
 75 75 l 1,5,-1
 75 300 l 1,6,-1
 150 300 l 1,7,-1
 150 375 l 1,8,-1
 450 375 l 1,9,-1
 450 300 l 1,10,-1
 525 300 l 1,11,-1
 525 0 l 1,12,-1
 450 0 l 1,13,-1
 450 75 l 1,14,-1
 375 75 l 1,15,-1
 375 300 l 1,16,-1
 225 300 l 1,17,-1
 225 75 l 1,0,-1
225 450 m 1,18,-1
 150 450 l 1,19,-1
 150 600 l 1,20,-1
 300 600 l 1,21,-1
 300 525 l 1,22,-1
 375 525 l 1,23,-1
 375 600 l 1,24,-1
 450 600 l 1,25,-1
 450 450 l 1,26,-1
 300 450 l 1,27,-1
 300 525 l 1,28,-1
 225 525 l 1,29,-1
 225 450 l 1,18,-1
EndSplineSet
EndChar

StartChar: adieresis
Encoding: 228 228 197
Width: 525
Flags: W
LayerCount: 2
Fore
SplineSet
225 75 m 1,0,-1
 375 75 l 1,1,-1
 375 0 l 1,2,-1
 150 0 l 1,3,-1
 150 75 l 1,4,-1
 75 75 l 1,5,-1
 75 300 l 1,6,-1
 150 300 l 1,7,-1
 150 375 l 1,8,-1
 450 375 l 1,9,-1
 450 300 l 1,10,-1
 525 300 l 1,11,-1
 525 0 l 1,12,-1
 450 0 l 1,13,-1
 450 75 l 1,14,-1
 375 75 l 1,15,-1
 375 300 l 1,16,-1
 225 300 l 1,17,-1
 225 75 l 1,0,-1
375 600 m 1,18,-1
 525 600 l 1,19,-1
 525 450 l 1,20,-1
 375 450 l 1,21,-1
 375 600 l 1,18,-1
75 600 m 1,22,-1
 225 600 l 1,23,-1
 225 450 l 1,24,-1
 75 450 l 1,25,-1
 75 600 l 1,22,-1
EndSplineSet
EndChar

StartChar: aring
Encoding: 229 229 198
Width: 525
Flags: W
LayerCount: 2
Fore
SplineSet
225 75 m 1,0,-1
 375 75 l 1,1,-1
 375 0 l 1,2,-1
 150 0 l 1,3,-1
 150 75 l 1,4,-1
 75 75 l 1,5,-1
 75 300 l 1,6,-1
 150 300 l 1,7,-1
 150 375 l 1,8,-1
 450 375 l 1,9,-1
 450 300 l 1,10,-1
 525 300 l 1,11,-1
 525 0 l 1,12,-1
 450 0 l 1,13,-1
 450 75 l 1,14,-1
 375 75 l 1,15,-1
 375 300 l 1,16,-1
 225 300 l 1,17,-1
 225 75 l 1,0,-1
150 600 m 1,18,-1
 225 600 l 1,19,-1
 225 525 l 1,20,-1
 375 525 l 1,21,-1
 375 450 l 1,22,-1
 225 450 l 1,23,-1
 225 525 l 1,24,-1
 150 525 l 1,25,-1
 150 600 l 1,18,-1
375 600 m 1,26,-1
 225 600 l 1,27,-1
 225 675 l 1,28,-1
 375 675 l 1,29,-1
 375 600 l 1,30,-1
 450 600 l 1,31,-1
 450 525 l 1,32,-1
 375 525 l 1,33,-1
 375 600 l 1,26,-1
EndSplineSet
EndChar

StartChar: ae
Encoding: 230 230 199
Width: 825
Flags: W
LayerCount: 2
Fore
SplineSet
450 75 m 1,0,-1
 375 75 l 1,1,-1
 375 300 l 1,2,-1
 225 300 l 1,3,-1
 225 75 l 1,4,-1
 375 75 l 1,5,-1
 375 0 l 1,6,-1
 150 0 l 1,7,-1
 150 75 l 1,8,-1
 75 75 l 1,9,-1
 75 300 l 1,10,-1
 150 300 l 1,11,-1
 150 375 l 1,12,-1
 750 375 l 1,13,-1
 750 300 l 1,14,-1
 825 300 l 1,15,-1
 825 150 l 1,16,-1
 525 150 l 1,17,-1
 525 75 l 1,18,-1
 825 75 l 1,19,-1
 825 0 l 1,20,-1
 450 0 l 1,21,-1
 450 75 l 1,0,-1
675 300 m 1,22,-1
 525 300 l 1,23,-1
 525 225 l 1,24,-1
 675 225 l 1,25,-1
 675 300 l 1,22,-1
EndSplineSet
EndChar

StartChar: ccedilla
Encoding: 231 231 200
Width: 525
Flags: W
LayerCount: 2
Fore
SplineSet
150 -74 m 1,0,-1
 225 -74 l 1,1,-1
 225 0 l 1,2,-1
 150 0 l 1,3,-1
 150 75 l 1,4,-1
 75 75 l 1,5,-1
 75 300 l 1,6,-1
 150 300 l 1,7,-1
 150 375 l 1,8,-1
 525 375 l 1,9,-1
 525 300 l 1,10,-1
 225 300 l 1,11,-1
 225 75 l 1,12,-1
 525 75 l 1,13,-1
 525 0 l 1,14,-1
 375 0 l 1,15,-1
 375 -74 l 1,16,-1
 300 -74 l 1,17,-1
 300 -149 l 1,18,-1
 150 -149 l 1,19,-1
 150 -74 l 1,0,-1
EndSplineSet
EndChar

StartChar: egrave
Encoding: 232 232 201
Width: 525
Flags: W
LayerCount: 2
Fore
SplineSet
225 75 m 1,0,-1
 525 75 l 1,1,-1
 525 0 l 1,2,-1
 150 0 l 1,3,-1
 150 75 l 1,4,-1
 75 75 l 1,5,-1
 75 300 l 1,6,-1
 150 300 l 1,7,-1
 150 375 l 1,8,-1
 450 375 l 1,9,-1
 450 300 l 1,10,-1
 525 300 l 1,11,-1
 525 150 l 1,12,-1
 225 150 l 1,13,-1
 225 75 l 1,0,-1
150 600 m 1,14,-1
 300 600 l 1,15,-1
 300 525 l 1,16,-1
 375 525 l 1,17,-1
 375 450 l 1,18,-1
 225 450 l 1,19,-1
 225 525 l 1,20,-1
 150 525 l 1,21,-1
 150 600 l 1,14,-1
225 225 m 1,22,-1
 375 225 l 1,23,-1
 375 300 l 1,24,-1
 225 300 l 1,25,-1
 225 225 l 1,22,-1
EndSplineSet
EndChar

StartChar: eacute
Encoding: 233 233 202
Width: 525
Flags: W
LayerCount: 2
Fore
SplineSet
225 75 m 1,0,-1
 525 75 l 1,1,-1
 525 0 l 1,2,-1
 150 0 l 1,3,-1
 150 75 l 1,4,-1
 75 75 l 1,5,-1
 75 300 l 1,6,-1
 150 300 l 1,7,-1
 150 375 l 1,8,-1
 450 375 l 1,9,-1
 450 300 l 1,10,-1
 525 300 l 1,11,-1
 525 150 l 1,12,-1
 225 150 l 1,13,-1
 225 75 l 1,0,-1
300 600 m 1,14,-1
 450 600 l 1,15,-1
 450 525 l 1,16,-1
 375 525 l 1,17,-1
 375 450 l 1,18,-1
 225 450 l 1,19,-1
 225 525 l 1,20,-1
 300 525 l 1,21,-1
 300 600 l 1,14,-1
225 225 m 1,22,-1
 375 225 l 1,23,-1
 375 300 l 1,24,-1
 225 300 l 1,25,-1
 225 225 l 1,22,-1
EndSplineSet
EndChar

StartChar: ecircumflex
Encoding: 234 234 203
Width: 525
Flags: W
LayerCount: 2
Fore
SplineSet
225 75 m 1,0,-1
 525 75 l 1,1,-1
 525 0 l 1,2,-1
 150 0 l 1,3,-1
 150 75 l 1,4,-1
 75 75 l 1,5,-1
 75 300 l 1,6,-1
 150 300 l 1,7,-1
 150 375 l 1,8,-1
 450 375 l 1,9,-1
 450 300 l 1,10,-1
 525 300 l 1,11,-1
 525 150 l 1,12,-1
 225 150 l 1,13,-1
 225 75 l 1,0,-1
225 600 m 1,14,-1
 375 600 l 1,15,-1
 375 525 l 1,16,-1
 450 525 l 1,17,-1
 450 450 l 1,18,-1
 375 450 l 1,19,-1
 375 525 l 1,20,-1
 225 525 l 1,21,-1
 225 600 l 1,14,-1
225 225 m 1,22,-1
 375 225 l 1,23,-1
 375 300 l 1,24,-1
 225 300 l 1,25,-1
 225 225 l 1,22,-1
150 525 m 1,26,-1
 225 525 l 1,27,-1
 225 450 l 1,28,-1
 150 450 l 1,29,-1
 150 525 l 1,26,-1
EndSplineSet
EndChar

StartChar: edieresis
Encoding: 235 235 204
Width: 525
Flags: W
LayerCount: 2
Fore
SplineSet
225 75 m 1,0,-1
 525 75 l 1,1,-1
 525 0 l 1,2,-1
 150 0 l 1,3,-1
 150 75 l 1,4,-1
 75 75 l 1,5,-1
 75 300 l 1,6,-1
 150 300 l 1,7,-1
 150 375 l 1,8,-1
 450 375 l 1,9,-1
 450 300 l 1,10,-1
 525 300 l 1,11,-1
 525 150 l 1,12,-1
 225 150 l 1,13,-1
 225 75 l 1,0,-1
375 600 m 1,14,-1
 525 600 l 1,15,-1
 525 450 l 1,16,-1
 375 450 l 1,17,-1
 375 600 l 1,14,-1
75 600 m 1,18,-1
 225 600 l 1,19,-1
 225 450 l 1,20,-1
 75 450 l 1,21,-1
 75 600 l 1,18,-1
225 225 m 1,22,-1
 375 225 l 1,23,-1
 375 300 l 1,24,-1
 225 300 l 1,25,-1
 225 225 l 1,22,-1
EndSplineSet
EndChar

StartChar: igrave
Encoding: 236 236 205
Width: 300
Flags: W
LayerCount: 2
Fore
SplineSet
150 375 m 1,0,-1
 300 375 l 1,1,-1
 300 0 l 1,2,-1
 150 0 l 1,3,-1
 150 375 l 1,0,-1
75 600 m 1,4,-1
 225 600 l 1,5,-1
 225 525 l 1,6,-1
 300 525 l 1,7,-1
 300 450 l 1,8,-1
 150 450 l 1,9,-1
 150 525 l 1,10,-1
 75 525 l 1,11,-1
 75 600 l 1,4,-1
EndSplineSet
EndChar

StartChar: iacute
Encoding: 237 237 206
Width: 300
Flags: W
LayerCount: 2
Fore
SplineSet
75 375 m 1,0,-1
 225 375 l 1,1,-1
 225 0 l 1,2,-1
 75 0 l 1,3,-1
 75 375 l 1,0,-1
150 600 m 1,4,-1
 300 600 l 1,5,-1
 300 525 l 1,6,-1
 225 525 l 1,7,-1
 225 450 l 1,8,-1
 75 450 l 1,9,-1
 75 525 l 1,10,-1
 150 525 l 1,11,-1
 150 600 l 1,4,-1
EndSplineSet
EndChar

StartChar: icircumflex
Encoding: 238 238 207
Width: 375
Flags: W
LayerCount: 2
Fore
SplineSet
150 375 m 1,0,-1
 300 375 l 1,1,-1
 300 0 l 1,2,-1
 150 0 l 1,3,-1
 150 375 l 1,0,-1
150 600 m 1,4,-1
 300 600 l 1,5,-1
 300 525 l 1,6,-1
 375 525 l 1,7,-1
 375 450 l 1,8,-1
 300 450 l 1,9,-1
 300 525 l 1,10,-1
 150 525 l 1,11,-1
 150 600 l 1,4,-1
75 525 m 1,12,-1
 150 525 l 1,13,-1
 150 450 l 1,14,-1
 75 450 l 1,15,-1
 75 525 l 1,12,-1
EndSplineSet
EndChar

StartChar: idieresis
Encoding: 239 239 208
Width: 525
Flags: W
LayerCount: 2
Fore
SplineSet
225 375 m 1,0,-1
 375 375 l 1,1,-1
 375 0 l 1,2,-1
 225 0 l 1,3,-1
 225 375 l 1,0,-1
75 600 m 1,4,-1
 225 600 l 1,5,-1
 225 450 l 1,6,-1
 75 450 l 1,7,-1
 75 600 l 1,4,-1
375 600 m 1,8,-1
 525 600 l 1,9,-1
 525 450 l 1,10,-1
 375 450 l 1,11,-1
 375 600 l 1,8,-1
EndSplineSet
EndChar

StartChar: eth
Encoding: 240 240 209
Width: 525
Flags: W
LayerCount: 2
Fore
SplineSet
150 75 m 1,0,-1
 75 75 l 1,1,-1
 75 300 l 1,2,-1
 150 300 l 1,3,-1
 150 375 l 1,4,-1
 375 375 l 1,5,-1
 375 525 l 1,6,-1
 300 525 l 1,7,-1
 300 600 l 1,8,-1
 225 600 l 1,9,-1
 225 675 l 1,10,-1
 375 675 l 1,11,-1
 375 600 l 1,12,-1
 450 600 l 1,13,-1
 450 525 l 1,14,-1
 525 525 l 1,15,-1
 525 75 l 1,16,-1
 450 75 l 1,17,-1
 450 0 l 1,18,-1
 150 0 l 1,19,-1
 150 75 l 1,0,-1
225 75 m 1,20,-1
 375 75 l 1,21,-1
 375 300 l 1,22,-1
 225 300 l 1,23,-1
 225 75 l 1,20,-1
225 525 m 1,24,-1
 300 525 l 1,25,-1
 300 450 l 1,26,-1
 225 450 l 1,27,-1
 225 525 l 1,24,-1
375 750 m 1,28,-1
 450 750 l 1,29,-1
 450 675 l 1,30,-1
 375 675 l 1,31,-1
 375 750 l 1,28,-1
EndSplineSet
EndChar

StartChar: ntilde
Encoding: 241 241 210
Width: 525
Flags: W
LayerCount: 2
Fore
SplineSet
225 0 m 1,0,-1
 150 0 l 1,1,-1
 150 75 l 1,2,-1
 75 75 l 1,3,-1
 75 300 l 1,4,-1
 150 300 l 1,5,-1
 150 375 l 1,6,-1
 450 375 l 1,7,-1
 450 300 l 1,8,-1
 525 300 l 1,9,-1
 525 75 l 1,10,-1
 450 75 l 1,11,-1
 450 0 l 1,12,-1
 375 0 l 1,13,-1
 375 300 l 1,14,-1
 225 300 l 1,15,-1
 225 0 l 1,0,-1
225 450 m 1,16,-1
 150 450 l 1,17,-1
 150 600 l 1,18,-1
 300 600 l 1,19,-1
 300 525 l 1,20,-1
 375 525 l 1,21,-1
 375 600 l 1,22,-1
 450 600 l 1,23,-1
 450 450 l 1,24,-1
 300 450 l 1,25,-1
 300 525 l 1,26,-1
 225 525 l 1,27,-1
 225 450 l 1,16,-1
EndSplineSet
EndChar

StartChar: ograve
Encoding: 242 242 211
Width: 525
Flags: W
LayerCount: 2
Fore
SplineSet
450 0 m 1,0,-1
 150 0 l 1,1,-1
 150 75 l 1,2,-1
 75 75 l 1,3,-1
 75 300 l 1,4,-1
 150 300 l 1,5,-1
 150 375 l 1,6,-1
 450 375 l 1,7,-1
 450 300 l 1,8,-1
 525 300 l 1,9,-1
 525 75 l 1,10,-1
 450 75 l 1,11,-1
 450 0 l 1,0,-1
225 75 m 1,12,-1
 375 75 l 1,13,-1
 375 300 l 1,14,-1
 225 300 l 1,15,-1
 225 75 l 1,12,-1
150 600 m 1,16,-1
 300 600 l 1,17,-1
 300 525 l 1,18,-1
 375 525 l 1,19,-1
 375 450 l 1,20,-1
 225 450 l 1,21,-1
 225 525 l 1,22,-1
 150 525 l 1,23,-1
 150 600 l 1,16,-1
EndSplineSet
EndChar

StartChar: oacute
Encoding: 243 243 212
Width: 525
Flags: W
LayerCount: 2
Fore
SplineSet
450 0 m 1,0,-1
 150 0 l 1,1,-1
 150 75 l 1,2,-1
 75 75 l 1,3,-1
 75 300 l 1,4,-1
 150 300 l 1,5,-1
 150 375 l 1,6,-1
 450 375 l 1,7,-1
 450 300 l 1,8,-1
 525 300 l 1,9,-1
 525 75 l 1,10,-1
 450 75 l 1,11,-1
 450 0 l 1,0,-1
225 75 m 1,12,-1
 375 75 l 1,13,-1
 375 300 l 1,14,-1
 225 300 l 1,15,-1
 225 75 l 1,12,-1
300 600 m 1,16,-1
 450 600 l 1,17,-1
 450 525 l 1,18,-1
 375 525 l 1,19,-1
 375 450 l 1,20,-1
 225 450 l 1,21,-1
 225 525 l 1,22,-1
 300 525 l 1,23,-1
 300 600 l 1,16,-1
EndSplineSet
EndChar

StartChar: ocircumflex
Encoding: 244 244 213
Width: 525
Flags: W
LayerCount: 2
Fore
SplineSet
450 0 m 1,0,-1
 150 0 l 1,1,-1
 150 75 l 1,2,-1
 75 75 l 1,3,-1
 75 300 l 1,4,-1
 150 300 l 1,5,-1
 150 375 l 1,6,-1
 450 375 l 1,7,-1
 450 300 l 1,8,-1
 525 300 l 1,9,-1
 525 75 l 1,10,-1
 450 75 l 1,11,-1
 450 0 l 1,0,-1
225 75 m 1,12,-1
 375 75 l 1,13,-1
 375 300 l 1,14,-1
 225 300 l 1,15,-1
 225 75 l 1,12,-1
225 600 m 1,16,-1
 375 600 l 1,17,-1
 375 525 l 1,18,-1
 450 525 l 1,19,-1
 450 450 l 1,20,-1
 375 450 l 1,21,-1
 375 525 l 1,22,-1
 225 525 l 1,23,-1
 225 600 l 1,16,-1
150 525 m 1,24,-1
 225 525 l 1,25,-1
 225 450 l 1,26,-1
 150 450 l 1,27,-1
 150 525 l 1,24,-1
EndSplineSet
EndChar

StartChar: otilde
Encoding: 245 245 214
Width: 525
Flags: W
LayerCount: 2
Fore
SplineSet
450 0 m 1,0,-1
 150 0 l 1,1,-1
 150 75 l 1,2,-1
 75 75 l 1,3,-1
 75 300 l 1,4,-1
 150 300 l 1,5,-1
 150 375 l 1,6,-1
 450 375 l 1,7,-1
 450 300 l 1,8,-1
 525 300 l 1,9,-1
 525 75 l 1,10,-1
 450 75 l 1,11,-1
 450 0 l 1,0,-1
225 75 m 1,12,-1
 375 75 l 1,13,-1
 375 300 l 1,14,-1
 225 300 l 1,15,-1
 225 75 l 1,12,-1
225 450 m 1,16,-1
 150 450 l 1,17,-1
 150 600 l 1,18,-1
 300 600 l 1,19,-1
 300 525 l 1,20,-1
 375 525 l 1,21,-1
 375 600 l 1,22,-1
 450 600 l 1,23,-1
 450 450 l 1,24,-1
 300 450 l 1,25,-1
 300 525 l 1,26,-1
 225 525 l 1,27,-1
 225 450 l 1,16,-1
EndSplineSet
EndChar

StartChar: odieresis
Encoding: 246 246 215
Width: 525
Flags: W
LayerCount: 2
Fore
SplineSet
450 0 m 1,0,-1
 150 0 l 1,1,-1
 150 75 l 1,2,-1
 75 75 l 1,3,-1
 75 300 l 1,4,-1
 150 300 l 1,5,-1
 150 375 l 1,6,-1
 450 375 l 1,7,-1
 450 300 l 1,8,-1
 525 300 l 1,9,-1
 525 75 l 1,10,-1
 450 75 l 1,11,-1
 450 0 l 1,0,-1
225 75 m 1,12,-1
 375 75 l 1,13,-1
 375 300 l 1,14,-1
 225 300 l 1,15,-1
 225 75 l 1,12,-1
75 600 m 1,16,-1
 225 600 l 1,17,-1
 225 450 l 1,18,-1
 75 450 l 1,19,-1
 75 600 l 1,16,-1
375 600 m 1,20,-1
 525 600 l 1,21,-1
 525 450 l 1,22,-1
 375 450 l 1,23,-1
 375 600 l 1,20,-1
EndSplineSet
EndChar

StartChar: divide
Encoding: 247 247 216
Width: 525
Flags: W
LayerCount: 2
Fore
SplineSet
75 375 m 1,0,-1
 525 375 l 1,1,-1
 525 300 l 1,2,-1
 75 300 l 1,3,-1
 75 375 l 1,0,-1
225 225 m 1,4,-1
 375 225 l 1,5,-1
 375 75 l 1,6,-1
 225 75 l 1,7,-1
 225 225 l 1,4,-1
225 600 m 1,8,-1
 375 600 l 1,9,-1
 375 450 l 1,10,-1
 225 450 l 1,11,-1
 225 600 l 1,8,-1
EndSplineSet
EndChar

StartChar: oslash
Encoding: 248 248 217
Width: 525
Flags: W
LayerCount: 2
Fore
SplineSet
75 0 m 1,0,-1
 150 0 l 1,1,-1
 150 75 l 1,2,-1
 75 75 l 1,3,-1
 75 300 l 1,4,-1
 150 300 l 1,5,-1
 150 375 l 1,6,-1
 375 375 l 1,7,-1
 375 450 l 1,8,-1
 525 450 l 1,9,-1
 525 375 l 1,10,-1
 450 375 l 1,11,-1
 450 300 l 1,12,-1
 525 300 l 1,13,-1
 525 75 l 1,14,-1
 450 75 l 1,15,-1
 450 0 l 1,16,-1
 225 0 l 1,17,-1
 225 -74 l 1,18,-1
 75 -74 l 1,19,-1
 75 0 l 1,0,-1
300 75 m 1,20,-1
 375 75 l 1,21,-1
 375 150 l 1,22,-1
 300 150 l 1,23,-1
 300 75 l 1,20,-1
225 225 m 1,24,-1
 300 225 l 1,25,-1
 300 300 l 1,26,-1
 225 300 l 1,27,-1
 225 225 l 1,24,-1
EndSplineSet
EndChar

StartChar: ugrave
Encoding: 249 249 218
Width: 525
Flags: W
LayerCount: 2
Fore
SplineSet
450 0 m 1,0,-1
 150 0 l 1,1,-1
 150 75 l 1,2,-1
 75 75 l 1,3,-1
 75 300 l 1,4,-1
 150 300 l 1,5,-1
 150 375 l 1,6,-1
 225 375 l 1,7,-1
 225 75 l 1,8,-1
 375 75 l 1,9,-1
 375 375 l 1,10,-1
 450 375 l 1,11,-1
 450 300 l 1,12,-1
 525 300 l 1,13,-1
 525 75 l 1,14,-1
 450 75 l 1,15,-1
 450 0 l 1,0,-1
150 600 m 1,16,-1
 300 600 l 1,17,-1
 300 525 l 1,18,-1
 375 525 l 1,19,-1
 375 450 l 1,20,-1
 225 450 l 1,21,-1
 225 525 l 1,22,-1
 150 525 l 1,23,-1
 150 600 l 1,16,-1
EndSplineSet
EndChar

StartChar: uacute
Encoding: 250 250 219
Width: 525
Flags: W
LayerCount: 2
Fore
SplineSet
450 0 m 1,0,-1
 150 0 l 1,1,-1
 150 75 l 1,2,-1
 75 75 l 1,3,-1
 75 300 l 1,4,-1
 150 300 l 1,5,-1
 150 375 l 1,6,-1
 225 375 l 1,7,-1
 225 75 l 1,8,-1
 375 75 l 1,9,-1
 375 375 l 1,10,-1
 450 375 l 1,11,-1
 450 300 l 1,12,-1
 525 300 l 1,13,-1
 525 75 l 1,14,-1
 450 75 l 1,15,-1
 450 0 l 1,0,-1
300 600 m 1,16,-1
 450 600 l 1,17,-1
 450 525 l 1,18,-1
 375 525 l 1,19,-1
 375 450 l 1,20,-1
 225 450 l 1,21,-1
 225 525 l 1,22,-1
 300 525 l 1,23,-1
 300 600 l 1,16,-1
EndSplineSet
EndChar

StartChar: ucircumflex
Encoding: 251 251 220
Width: 525
Flags: W
LayerCount: 2
Fore
SplineSet
450 0 m 1,0,-1
 150 0 l 1,1,-1
 150 75 l 1,2,-1
 75 75 l 1,3,-1
 75 300 l 1,4,-1
 150 300 l 1,5,-1
 150 375 l 1,6,-1
 225 375 l 1,7,-1
 225 75 l 1,8,-1
 375 75 l 1,9,-1
 375 375 l 1,10,-1
 450 375 l 1,11,-1
 450 300 l 1,12,-1
 525 300 l 1,13,-1
 525 75 l 1,14,-1
 450 75 l 1,15,-1
 450 0 l 1,0,-1
225 600 m 1,16,-1
 375 600 l 1,17,-1
 375 525 l 1,18,-1
 450 525 l 1,19,-1
 450 450 l 1,20,-1
 375 450 l 1,21,-1
 375 525 l 1,22,-1
 225 525 l 1,23,-1
 225 600 l 1,16,-1
150 525 m 1,24,-1
 225 525 l 1,25,-1
 225 450 l 1,26,-1
 150 450 l 1,27,-1
 150 525 l 1,24,-1
EndSplineSet
EndChar

StartChar: udieresis
Encoding: 252 252 221
Width: 525
Flags: W
LayerCount: 2
Fore
SplineSet
450 0 m 1,0,-1
 150 0 l 1,1,-1
 150 75 l 1,2,-1
 75 75 l 1,3,-1
 75 300 l 1,4,-1
 150 300 l 1,5,-1
 150 375 l 1,6,-1
 225 375 l 1,7,-1
 225 75 l 1,8,-1
 375 75 l 1,9,-1
 375 375 l 1,10,-1
 450 375 l 1,11,-1
 450 300 l 1,12,-1
 525 300 l 1,13,-1
 525 75 l 1,14,-1
 450 75 l 1,15,-1
 450 0 l 1,0,-1
75 600 m 1,16,-1
 225 600 l 1,17,-1
 225 450 l 1,18,-1
 75 450 l 1,19,-1
 75 600 l 1,16,-1
375 600 m 1,20,-1
 525 600 l 1,21,-1
 525 450 l 1,22,-1
 375 450 l 1,23,-1
 375 600 l 1,20,-1
EndSplineSet
EndChar

StartChar: yacute
Encoding: 253 253 222
Width: 525
Flags: W
LayerCount: 2
Fore
SplineSet
75 -74 m 1,0,-1
 375 -74 l 1,1,-1
 375 0 l 1,2,-1
 150 0 l 1,3,-1
 150 75 l 1,4,-1
 75 75 l 1,5,-1
 75 300 l 1,6,-1
 150 300 l 1,7,-1
 150 375 l 1,8,-1
 225 375 l 1,9,-1
 225 75 l 1,10,-1
 375 75 l 1,11,-1
 375 375 l 1,12,-1
 450 375 l 1,13,-1
 450 300 l 1,14,-1
 525 300 l 1,15,-1
 525 -74 l 1,16,-1
 450 -74 l 1,17,-1
 450 -149 l 1,18,-1
 75 -149 l 1,19,-1
 75 -74 l 1,0,-1
300 600 m 1,20,-1
 450 600 l 1,21,-1
 450 525 l 1,22,-1
 375 525 l 1,23,-1
 375 450 l 1,24,-1
 225 450 l 1,25,-1
 225 525 l 1,26,-1
 300 525 l 1,27,-1
 300 600 l 1,20,-1
EndSplineSet
EndChar

StartChar: thorn
Encoding: 254 254 223
Width: 525
Flags: W
LayerCount: 2
Fore
SplineSet
75 750 m 1,0,-1
 225 750 l 1,1,-1
 225 525 l 1,2,-1
 450 525 l 1,3,-1
 450 450 l 1,4,-1
 525 450 l 1,5,-1
 525 225 l 1,6,-1
 450 225 l 1,7,-1
 450 150 l 1,8,-1
 225 150 l 1,9,-1
 225 -74 l 1,10,-1
 75 -74 l 1,11,-1
 75 750 l 1,0,-1
375 450 m 1,12,-1
 225 450 l 1,13,-1
 225 225 l 1,14,-1
 375 225 l 1,15,-1
 375 450 l 1,12,-1
EndSplineSet
EndChar

StartChar: ydieresis
Encoding: 255 255 224
Width: 525
Flags: W
LayerCount: 2
Fore
SplineSet
75 -74 m 1,0,-1
 375 -74 l 1,1,-1
 375 0 l 1,2,-1
 150 0 l 1,3,-1
 150 75 l 1,4,-1
 75 75 l 1,5,-1
 75 300 l 1,6,-1
 150 300 l 1,7,-1
 150 375 l 1,8,-1
 225 375 l 1,9,-1
 225 75 l 1,10,-1
 375 75 l 1,11,-1
 375 375 l 1,12,-1
 450 375 l 1,13,-1
 450 300 l 1,14,-1
 525 300 l 1,15,-1
 525 -74 l 1,16,-1
 450 -74 l 1,17,-1
 450 -149 l 1,18,-1
 75 -149 l 1,19,-1
 75 -74 l 1,0,-1
75 600 m 1,20,-1
 225 600 l 1,21,-1
 225 450 l 1,22,-1
 75 450 l 1,23,-1
 75 600 l 1,20,-1
375 600 m 1,24,-1
 525 600 l 1,25,-1
 525 450 l 1,26,-1
 375 450 l 1,27,-1
 375 600 l 1,24,-1
EndSplineSet
EndChar

StartChar: aogonek
Encoding: 261 261 227
Width: 525
Flags: HWO
LayerCount: 2
Fore
SplineSet
225 75 m 1,0,-1
 375 75 l 1,1,-1
 375 0 l 1,2,-1
 150 0 l 1,3,-1
 150 75 l 1,4,-1
 75 75 l 1,5,-1
 75 300 l 1,6,-1
 150 300 l 1,7,-1
 150 375 l 1,8,-1
 450 375 l 1,9,-1
 450 300 l 1,10,-1
 525 300 l 1,11,-1
 525 -108 l 5,12,-1
 450 -110 l 1,13,-1
 450 75 l 1,14,-1
 375 75 l 1,15,-1
 375 300 l 1,16,-1
 225 300 l 1,17,-1
 225 75 l 1,0,-1
EndSplineSet
EndChar
